SplineFontDB: 3.2
FontName: ATM091-Regular
FullName: ATM091-Regular
FamilyName: ATM 091
Weight: Book
Copyright: AzhaguThamizh
Version: 1.001
ItalicAngle: -11
UnderlinePosition: -271
UnderlineWidth: 102
Ascent: 1600
Descent: 400
InvalidEm: 0
sfntRevision: 0x00010042
LayerCount: 2
Layer: 0 1 "Back" 1
Layer: 1 1 "Fore" 0
XUID: [1021 192 2086997156 25349]
StyleMap: 0x0040
FSType: 8
OS2Version: 3
OS2_WeightWidthSlopeOnly: 0
OS2_UseTypoMetrics: 0
CreationTime: 1536310795
ModificationTime: 1545787191
PfmFamily: 17
TTFWeight: 400
TTFWidth: 5
LineGap: 0
VLineGap: 0
Panose: 2 11 6 4 2 2 2 2 2 4
OS2TypoAscent: 2000
OS2TypoAOffset: 0
OS2TypoDescent: -1320
OS2TypoDOffset: 0
OS2TypoLinegap: 0
OS2WinAscent: 2000
OS2WinAOffset: 0
OS2WinDescent: 744
OS2WinDOffset: 0
HheadAscent: 2000
HheadAOffset: 0
HheadDescent: -1320
HheadDOffset: 0
OS2SubXSize: 1400
OS2SubYSize: 1300
OS2SubXOff: 0
OS2SubYOff: 0
OS2SupXSize: 1400
OS2SupYSize: 1300
OS2SupXOff: 0
OS2SupYOff: 0
OS2StrikeYSize: 100
OS2StrikeYPos: 518
OS2CapHeight: 1586
OS2XHeight: -200
OS2Vendor: '    '
OS2CodePages: 00000001.00000000
OS2UnicodeRanges: 00100003.00000000.00000000.00000000
Lookup: 4 0 0 "'akhn' Akhand in Tamil2 lookup 0" { "'akhn' Akhand in Tamil2 lookup 0 subtable"  } ['akhn' ('tml2' <'dflt' > ) ]
Lookup: 4 0 0 "'akhn' Akhand in Tamil lookup 1" { "'akhn' Akhand in Tamil lookup 1 subtable"  } ['akhn' ('taml' <'dflt' > ) ]
Lookup: 4 0 0 "'half' Half Forms in Tamil lookup 2" { "'half' Half Forms in Tamil lookup 2 subtable"  } ['half' ('taml' <'dflt' > ) ]
Lookup: 4 0 0 "'haln' Halant Forms in Tamil2 lookup 3" { "'haln' Halant Forms in Tamil2 lookup 3 subtable"  } ['haln' ('tml2' <'dflt' > ) ]
Lookup: 4 0 0 "'haln' Halant Forms in Tamil lookup 4" { "'haln' Halant Forms in Tamil lookup 4 subtable"  } ['haln' ('taml' <'dflt' > ) ]
Lookup: 4 0 0 "'abvs' Above Base Substitutions lookup 5" { "'abvs' Above Base Substitutions lookup 5 subtable"  } ['abvs' ('taml' <'dflt' > 'tml2' <'dflt' > ) ]

StartChar: .notdef
Encoding: 65536 -1 0
Width: 1600
Flags: W
LayerCount: 2
Fore
SplineSet
100 0 m 1,0,-1
 100 1600 l 1,1,-1
 1500 1600 l 1,2,-1
 1500 0 l 1,3,-1
 100 0 l 1,0,-1
1400 100 m 1,4,-1
 1400 1500 l 1,5,-1
 200 1500 l 1,6,-1
 200 100 l 1,7,-1
 1400 100 l 1,4,-1
EndSplineSet
EndChar

StartChar: exclam
Encoding: 33 33 4
Width: 615
GlyphClass: 2
Flags: W
LayerCount: 2
Fore
SplineSet
273 1109 m 0,0,1
 273 1145 273 1145 303.5 1169 c 128,-1,2
 334 1193 334 1193 377 1193 c 256,3,4
 420 1193 420 1193 449.5 1169 c 128,-1,5
 479 1145 479 1145 479 1109 c 0,6,7
 479 1062 479 1062 474 1011.5 c 128,-1,8
 469 961 469 961 459 906 c 1,9,-1
 396 311 l 1,10,-1
 396 246 l 1,11,-1
 357 246 l 1,12,-1
 357 311 l 1,13,-1
 293 906 l 1,14,15
 283 961 283 961 278 1011.5 c 128,-1,16
 273 1062 273 1062 273 1109 c 0,0,1
293 82 m 256,17,18
 293 115 293 115 317.5 139.5 c 128,-1,19
 342 164 342 164 377 164 c 0,20,21
 410 164 410 164 434.5 139.5 c 128,-1,22
 459 115 459 115 459 82 c 256,23,24
 459 49 459 49 434.5 24.5 c 128,-1,25
 410 0 410 0 377 0 c 0,26,27
 342 0 342 0 317.5 24.5 c 128,-1,28
 293 49 293 49 293 82 c 256,17,18
EndSplineSet
EndChar

StartChar: quotedbl
Encoding: 34 34 5
Width: 840
GlyphClass: 2
Flags: W
LayerCount: 2
Fore
SplineSet
646 784 m 1,0,-1
 674 1070 l 1,1,-1
 690 1200 l 2,2,3
 698 1264 698 1264 735 1309 c 128,-1,4
 772 1354 772 1354 832 1354 c 0,5,6
 896 1354 896 1354 904 1288 c 0,7,8
 904 1262 904 1262 890 1222 c 0,9,10
 858 1126 858 1126 830 1070 c 2,11,-1
 692 784 l 1,12,-1
 646 784 l 1,0,-1
288 784 m 1,13,-1
 318 1074 l 2,14,15
 330 1192 330 1192 334 1210 c 0,16,17
 350 1292 350 1292 396 1328 c 1,18,19
 438 1354 438 1354 472 1354 c 0,20,21
 546 1354 546 1354 546 1286 c 0,22,23
 546 1248 546 1248 464 1072 c 2,24,-1
 330 784 l 1,25,-1
 288 784 l 1,13,-1
EndSplineSet
EndChar

StartChar: numbersign
Encoding: 35 35 6
Width: 1068
GlyphClass: 2
Flags: W
LayerCount: 2
Fore
SplineSet
998 278 m 1,0,-1
 746 278 l 1,1,-1
 680 -36 l 1,2,-1
 584 -36 l 1,3,-1
 650 278 l 1,4,-1
 320 278 l 1,5,-1
 254 -36 l 1,6,-1
 158 -36 l 1,7,-1
 224 278 l 1,8,-1
 68 278 l 1,9,-1
 68 374 l 1,10,-1
 244 374 l 1,11,-1
 304 664 l 1,12,-1
 68 664 l 1,13,-1
 68 760 l 1,14,-1
 324 760 l 1,15,-1
 392 1076 l 1,16,-1
 488 1076 l 1,17,-1
 420 760 l 1,18,-1
 748 760 l 1,19,-1
 814 1076 l 1,20,-1
 910 1076 l 1,21,-1
 844 760 l 1,22,-1
 998 760 l 1,23,-1
 998 664 l 1,24,-1
 826 664 l 1,25,-1
 764 374 l 1,26,-1
 998 374 l 1,27,-1
 998 278 l 1,0,-1
730 664 m 1,28,-1
 400 664 l 1,29,-1
 340 374 l 1,30,-1
 668 374 l 1,31,-1
 730 664 l 1,28,-1
EndSplineSet
EndChar

StartChar: dollar
Encoding: 36 36 7
Width: 932
GlyphClass: 2
Flags: W
LayerCount: 2
Fore
SplineSet
774 296 m 2,0,1
 760 170 760 170 636 82 c 0,2,3
 534 12 534 12 392 -16 c 1,4,-1
 376 -90 l 1,5,-1
 314 -90 l 1,6,-1
 328 -20 l 1,7,-1
 302 -20 l 1,8,-1
 242 -18 l 1,9,-1
 210 -18 l 1,10,11
 194 -12 194 -12 188 -10 c 0,12,13
 112 6 112 6 30 46 c 1,14,-1
 46 88 l 1,15,-1
 66 160 l 1,16,-1
 86 242 l 1,17,-1
 130 242 l 1,18,-1
 124 188 l 1,19,20
 124 104 124 104 190 60 c 0,21,22
 248 20 248 20 336 20 c 1,23,-1
 432 464 l 1,24,25
 172 562 172 562 172 724 c 0,26,27
 172 760 172 760 176 776 c 0,28,29
 206 900 206 900 322 982 c 0,30,31
 424 1054 424 1054 562 1074 c 1,32,-1
 574 1134 l 1,33,-1
 636 1134 l 1,34,-1
 624 1074 l 1,35,36
 774 1074 774 1074 882 1008 c 1,37,-1
 830 830 l 1,38,-1
 786 830 l 1,39,-1
 788 868 l 2,40,41
 796 1030 796 1030 614 1030 c 1,42,-1
 524 602 l 1,43,44
 652 546 652 546 696 512 c 0,45,46
 780 448 780 448 780 350 c 1,47,-1
 774 296 l 2,0,1
468 630 m 1,48,-1
 552 1028 l 1,49,50
 362 996 362 996 314 824 c 1,51,-1
 310 792 l 1,52,53
 310 736 310 736 360 690 c 0,54,55
 388 664 388 664 468 630 c 1,48,-1
638 238 m 1,56,-1
 642 278 l 1,57,58
 642 364 642 364 488 438 c 1,59,-1
 398 20 l 1,60,61
 484 34 484 34 550 94 c 128,-1,62
 616 154 616 154 638 238 c 1,56,-1
EndSplineSet
EndChar

StartChar: percent
Encoding: 37 37 8
Width: 1508
GlyphClass: 2
Flags: W
LayerCount: 2
Fore
SplineSet
498 -205 m 1,0,-1
 953 986 l 1,1,-1
 1012 986 l 1,2,-1
 555 -205 l 1,3,-1
 498 -205 l 1,0,-1
137 412 m 2,4,-1
 137 658 l 2,5,6
 137 709 137 709 173 745 c 128,-1,7
 209 781 209 781 262 781 c 2,8,-1
 445 781 l 2,9,10
 496 781 496 781 532 745 c 128,-1,11
 568 709 568 709 568 658 c 2,12,-1
 568 412 l 2,13,14
 568 369 568 369 532 339 c 128,-1,15
 496 309 496 309 445 309 c 2,16,-1
 262 309 l 2,17,18
 209 309 209 309 173 339 c 128,-1,19
 137 369 137 369 137 412 c 2,4,-1
199 412 m 2,20,21
 199 387 199 387 217.5 368.5 c 128,-1,22
 236 350 236 350 262 350 c 2,23,-1
 445 350 l 2,24,25
 471 350 471 350 489.5 368.5 c 128,-1,26
 508 387 508 387 508 412 c 2,27,-1
 508 658 l 2,28,29
 508 684 508 684 489.5 701.5 c 128,-1,30
 471 719 471 719 445 719 c 2,31,-1
 262 719 l 2,32,33
 236 719 236 719 217.5 701.5 c 128,-1,34
 199 684 199 684 199 658 c 2,35,-1
 199 412 l 2,20,21
939 123 m 2,36,-1
 939 369 l 2,37,38
 939 422 939 422 975.5 458 c 128,-1,39
 1012 494 1012 494 1062 494 c 2,40,-1
 1248 494 l 2,41,42
 1299 494 1299 494 1335 458 c 128,-1,43
 1371 422 1371 422 1371 369 c 2,44,-1
 1371 123 l 2,45,46
 1371 72 1371 72 1335 36 c 128,-1,47
 1299 0 1299 0 1248 0 c 2,48,-1
 1062 0 l 2,49,50
 1012 0 1012 0 975.5 36 c 128,-1,51
 939 72 939 72 939 123 c 2,36,-1
1000 123 m 2,52,53
 1000 98 1000 98 1018.5 80 c 128,-1,54
 1037 62 1037 62 1062 62 c 2,55,-1
 1248 62 l 2,56,57
 1273 62 1273 62 1291 80 c 128,-1,58
 1309 98 1309 98 1309 123 c 2,59,-1
 1309 369 l 2,60,61
 1309 395 1309 395 1291 413.5 c 128,-1,62
 1273 432 1273 432 1248 432 c 2,63,-1
 1062 432 l 2,64,65
 1037 432 1037 432 1018.5 413.5 c 128,-1,66
 1000 395 1000 395 1000 369 c 2,67,-1
 1000 123 l 2,52,53
EndSplineSet
EndChar

StartChar: ampersand
Encoding: 38 38 9
Width: 1034
GlyphClass: 2
Flags: W
LayerCount: 2
Fore
SplineSet
1006 -4 m 1,0,-1
 928 0 l 1,1,-1
 850 0 l 1,2,-1
 754 -4 l 1,3,-1
 676 98 l 1,4,5
 598 32 598 32 524 2 c 1,6,-1
 462 -14 l 2,7,8
 424 -24 424 -24 370 -24 c 0,9,10
 228 -24 228 -24 132 60 c 128,-1,11
 36 144 36 144 36 284 c 0,12,13
 36 470 36 470 260 586 c 2,14,-1
 310 612 l 1,15,-1
 248 730 l 1,16,-1
 232 778 l 1,17,-1
 226 828 l 1,18,19
 226 938 226 938 324 1010 c 0,20,21
 414 1076 414 1076 528 1076 c 0,22,23
 604 1076 604 1076 664 1029 c 128,-1,24
 724 982 724 982 724 908 c 0,25,26
 724 806 724 806 626 746 c 2,27,-1
 552 700 l 1,28,-1
 452 644 l 1,29,-1
 568 472 l 1,30,-1
 748 228 l 1,31,32
 812 312 812 312 812 416 c 256,33,34
 812 520 812 520 716 516 c 2,35,-1
 676 514 l 1,36,-1
 688 552 l 1,37,-1
 1006 552 l 1,38,-1
 1006 514 l 1,39,-1
 968 514 l 2,40,41
 916 514 916 514 892 486 c 0,42,43
 878 470 878 470 862 408 c 2,44,-1
 848 352 l 2,45,46
 840 322 840 322 828 300 c 0,47,48
 814 262 814 262 772 200 c 1,49,-1
 862 98 l 1,50,-1
 888 72 l 1,51,-1
 934 44 l 2,52,53
 950 32 950 32 980 32 c 2,54,-1
 1006 32 l 1,55,-1
 1006 -4 l 1,0,-1
590 890 m 0,56,57
 590 950 590 950 558 992 c 128,-1,58
 526 1034 526 1034 468 1034 c 0,59,60
 414 1034 414 1034 376 996 c 128,-1,61
 338 958 338 958 338 904 c 0,62,63
 338 874 338 874 342 858 c 2,64,-1
 360 806 l 2,65,66
 378 756 378 756 434 672 c 1,67,68
 500 712 500 712 530 744 c 0,69,70
 590 808 590 808 590 890 c 0,56,57
652 124 m 1,71,-1
 484 348 l 1,72,-1
 422 440 l 1,73,-1
 330 582 l 1,74,75
 178 470 178 470 178 326 c 0,76,77
 178 210 178 210 264 132 c 128,-1,78
 350 54 350 54 468 54 c 0,79,80
 522 54 522 54 580 78 c 0,81,82
 604 88 604 88 610 94 c 2,83,-1
 652 124 l 1,71,-1
EndSplineSet
EndChar

StartChar: quotesingle
Encoding: 39 39 10
Width: 428
GlyphClass: 2
Flags: W
LayerCount: 2
Fore
SplineSet
262 784 m 1,0,-1
 292 1074 l 2,1,2
 300 1144 300 1144 324 1264 c 1,3,4
 342 1322 342 1322 408 1346 c 0,5,6
 430 1354 430 1354 446 1354 c 0,7,8
 514 1354 514 1354 522 1286 c 0,9,10
 522 1256 522 1256 512 1236 c 1,11,12
 504 1208 504 1208 440 1072 c 2,13,-1
 306 784 l 1,14,-1
 262 784 l 1,0,-1
EndSplineSet
EndChar

StartChar: parenleft
Encoding: 40 40 11
Width: 850
GlyphClass: 2
Flags: W
LayerCount: 2
Fore
SplineSet
137 -494 m 2,0,-1
 137 1275 l 2,1,2
 137 1326 137 1326 173 1362 c 128,-1,3
 209 1398 209 1398 260 1398 c 2,4,-1
 713 1398 l 1,5,-1
 713 1336 l 1,6,-1
 260 1336 l 2,7,8
 234 1336 234 1336 215.5 1318.5 c 128,-1,9
 197 1301 197 1301 197 1275 c 2,10,-1
 197 -494 l 2,11,12
 197 -520 197 -520 215.5 -537.5 c 128,-1,13
 234 -555 234 -555 260 -555 c 2,14,-1
 713 -555 l 1,15,-1
 713 -617 l 1,16,-1
 260 -617 l 2,17,18
 209 -617 209 -617 173 -581 c 128,-1,19
 137 -545 137 -545 137 -494 c 2,0,-1
EndSplineSet
EndChar

StartChar: parenright
Encoding: 41 41 12
Width: 850
GlyphClass: 2
Flags: W
LayerCount: 2
Fore
SplineSet
713 -494 m 2,0,1
 713 -545 713 -545 677 -581 c 128,-1,2
 641 -617 641 -617 588 -617 c 2,3,-1
 137 -617 l 1,4,-1
 137 -555 l 1,5,-1
 588 -555 l 2,6,7
 613 -555 613 -555 631.5 -537.5 c 128,-1,8
 650 -520 650 -520 650 -494 c 2,9,-1
 650 1275 l 2,10,11
 650 1301 650 1301 631.5 1318.5 c 128,-1,12
 613 1336 613 1336 588 1336 c 2,13,-1
 137 1336 l 1,14,-1
 137 1398 l 1,15,-1
 588 1398 l 2,16,17
 641 1398 641 1398 677 1362 c 128,-1,18
 713 1326 713 1326 713 1275 c 2,19,-1
 713 -494 l 2,0,1
EndSplineSet
EndChar

StartChar: asterisk
Encoding: 42 42 13
Width: 1043
GlyphClass: 2
Flags: W
LayerCount: 2
Fore
SplineSet
426 723 m 0,0,1
 426 760 426 760 454 787 c 128,-1,2
 482 814 482 814 521 814 c 0,3,4
 557 814 557 814 587 785 c 128,-1,5
 617 756 617 756 617 723 c 0,6,7
 617 687 617 687 593.5 619 c 128,-1,8
 570 551 570 551 521 441 c 1,9,10
 473 551 473 551 449.5 619 c 128,-1,11
 426 687 426 687 426 723 c 0,0,1
180 471 m 0,12,13
 148 488 148 488 139.5 525 c 128,-1,14
 131 562 131 562 150 598 c 0,15,16
 168 629 168 629 207 640.5 c 128,-1,17
 246 652 246 652 275 635 c 0,18,19
 307 617 307 617 356.5 561.5 c 128,-1,20
 406 506 406 506 473 414 c 1,21,22
 348 428 348 428 279.5 440.5 c 128,-1,23
 211 453 211 453 180 471 c 0,12,13
275 133 m 0,24,25
 244 113 244 113 207 125 c 128,-1,26
 170 137 170 137 150 170 c 0,27,28
 133 199 133 199 142.5 239 c 128,-1,29
 152 279 152 279 180 295 c 0,30,31
 219 318 219 318 293 333 c 128,-1,32
 367 348 367 348 473 355 c 1,33,34
 414 268 414 268 363 211 c 128,-1,35
 312 154 312 154 275 133 c 0,24,25
617 43 m 0,36,37
 617 6 617 6 589 -20.5 c 128,-1,38
 561 -47 561 -47 521 -47 c 0,39,40
 486 -47 486 -47 456 -18.5 c 128,-1,41
 426 10 426 10 426 43 c 0,42,43
 426 86 426 86 450.5 157.5 c 128,-1,44
 475 229 475 229 521 326 c 1,45,46
 568 229 568 229 592.5 157.5 c 128,-1,47
 617 86 617 86 617 43 c 0,36,37
863 295 m 0,48,49
 895 277 895 277 903.5 240 c 128,-1,50
 912 203 912 203 893 170 c 0,51,52
 875 139 875 139 836 127 c 128,-1,53
 797 115 797 115 768 133 c 0,54,55
 732 152 732 152 683.5 209 c 128,-1,56
 635 266 635 266 574 355 c 1,57,58
 678 348 678 348 751 333 c 128,-1,59
 824 318 824 318 863 295 c 0,48,49
768 635 m 0,60,61
 799 652 799 652 836 641.5 c 128,-1,62
 873 631 873 631 893 596 c 0,63,64
 910 566 910 566 900.5 526 c 128,-1,65
 891 486 891 486 863 471 c 0,66,67
 832 453 832 453 760.5 438.5 c 128,-1,68
 689 424 689 424 574 412 c 1,69,70
 646 512 646 512 691 564.5 c 128,-1,71
 736 617 736 617 768 635 c 0,60,61
EndSplineSet
EndChar

StartChar: plus
Encoding: 43 43 14
Width: 1076
GlyphClass: 2
Flags: W
LayerCount: 2
Fore
SplineSet
137 369 m 1,0,-1
 137 432 l 1,1,-1
 508 432 l 1,2,-1
 508 781 l 1,3,-1
 570 781 l 1,4,-1
 570 432 l 1,5,-1
 939 432 l 1,6,-1
 939 369 l 1,7,-1
 570 369 l 1,8,-1
 570 0 l 1,9,-1
 508 0 l 1,10,-1
 508 369 l 1,11,-1
 137 369 l 1,0,-1
EndSplineSet
EndChar

StartChar: comma
Encoding: 44 44 15
Width: 531
GlyphClass: 2
Flags: W
LayerCount: 2
Fore
SplineSet
137 -223 m 1,0,1
 215 -178 215 -178 267.5 -122 c 128,-1,2
 320 -66 320 -66 342 -6 c 1,3,4
 295 -6 295 -6 262 19.5 c 128,-1,5
 229 45 229 45 229 82 c 0,6,7
 229 115 229 115 253 139.5 c 128,-1,8
 277 164 277 164 312 164 c 0,9,10
 346 164 346 164 370.5 139.5 c 128,-1,11
 395 115 395 115 395 82 c 0,12,13
 395 -10 395 -10 332.5 -98 c 128,-1,14
 270 -186 270 -186 162 -248 c 1,15,-1
 137 -223 l 1,0,1
EndSplineSet
EndChar

StartChar: hyphen
Encoding: 45 45 16
Width: 871
GlyphClass: 2
Flags: W
LayerCount: 2
Fore
SplineSet
137 369 m 1,0,-1
 137 432 l 1,1,-1
 734 432 l 1,2,-1
 734 369 l 1,3,-1
 137 369 l 1,0,-1
EndSplineSet
EndChar

StartChar: period
Encoding: 46 46 17
Width: 439
GlyphClass: 2
Flags: W
LayerCount: 2
Fore
SplineSet
137 82 m 256,0,1
 137 115 137 115 161.5 139.5 c 128,-1,2
 186 164 186 164 221 164 c 0,3,4
 254 164 254 164 278.5 139.5 c 128,-1,5
 303 115 303 115 303 82 c 256,6,7
 303 49 303 49 278.5 24.5 c 128,-1,8
 254 0 254 0 221 0 c 0,9,10
 186 0 186 0 161.5 24.5 c 128,-1,11
 137 49 137 49 137 82 c 256,0,1
EndSplineSet
EndChar

StartChar: slash
Encoding: 47 47 18
Width: 787
GlyphClass: 2
Flags: W
LayerCount: 2
Fore
SplineSet
137 -205 m 1,0,-1
 592 986 l 1,1,-1
 650 986 l 1,2,-1
 193 -205 l 1,3,-1
 137 -205 l 1,0,-1
EndSplineSet
EndChar

StartChar: zero
Encoding: 48 48 19
Width: 903
GlyphClass: 2
Flags: W
LayerCount: 2
Fore
SplineSet
793 227 m 2,0,1
 793 177 793 177 780 136 c 128,-1,2
 767 95 767 95 729 60 c 0,3,4
 687 22 687 22 639 11 c 128,-1,5
 591 0 591 0 536 0 c 2,6,-1
 364 0 l 2,7,8
 242 0 242 0 173 53 c 128,-1,9
 104 106 104 106 104 225 c 2,10,-1
 104 694 l 2,11,12
 104 815 104 815 171.5 870 c 128,-1,13
 239 925 239 925 364 925 c 2,14,-1
 536 925 l 2,15,16
 657 925 657 925 725 869.5 c 128,-1,17
 793 814 793 814 793 694 c 2,18,-1
 793 227 l 2,0,1
731 691 m 2,19,20
 731 729 731 729 721 764.5 c 128,-1,21
 711 800 711 800 682 826 c 0,22,23
 652 854 652 854 616 859.5 c 128,-1,24
 580 865 580 865 539 865 c 2,25,-1
 351 865 l 2,26,27
 313 865 313 865 278.5 858.5 c 128,-1,28
 244 852 244 852 216 826 c 0,29,30
 187 798 187 798 177.5 763.5 c 128,-1,31
 168 729 168 729 168 691 c 2,32,-1
 168 230 l 2,33,34
 168 193 168 193 177.5 159 c 128,-1,35
 187 125 187 125 216 98 c 0,36,37
 231 84 231 84 248 76 c 128,-1,38
 265 68 265 68 283.5 64 c 128,-1,39
 302 60 302 60 322 59.5 c 128,-1,40
 342 59 342 59 363 59 c 2,41,-1
 539 59 l 2,42,43
 579 59 579 59 615.5 65 c 128,-1,44
 652 71 652 71 682 98 c 0,45,46
 711 125 711 125 721 158.5 c 128,-1,47
 731 192 731 192 731 230 c 2,48,-1
 731 691 l 2,19,20
EndSplineSet
EndChar

StartChar: one
Encoding: 49 49 20
Width: 903
GlyphClass: 2
Flags: W
LayerCount: 2
Fore
SplineSet
465 0 m 1,0,-1
 465 865 l 1,1,-1
 320 865 l 1,2,-1
 320 925 l 1,3,-1
 529 925 l 1,4,-1
 529 0 l 1,5,-1
 465 0 l 1,0,-1
EndSplineSet
EndChar

StartChar: two
Encoding: 50 50 21
Width: 903
GlyphClass: 2
Flags: W
LayerCount: 2
Fore
SplineSet
770 642 m 1,0,1
 770 597 770 597 753 554.5 c 128,-1,2
 736 512 736 512 701 480 c 0,3,4
 663 445 663 445 621.5 436 c 128,-1,5
 580 427 580 427 530 427 c 2,6,-1
 370 427 l 2,7,8
 332 427 332 427 299 419.5 c 128,-1,9
 266 412 266 412 242 395 c 128,-1,10
 218 378 218 378 204.5 351 c 128,-1,11
 191 324 191 324 191 285 c 2,12,-1
 191 59 l 1,13,-1
 767 59 l 1,14,-1
 767 0 l 1,15,-1
 128 0 l 1,16,-1
 128 283 l 2,17,18
 128 336 128 336 146.5 374.5 c 128,-1,19
 165 413 165 413 197 438 c 128,-1,20
 229 463 229 463 273.5 475 c 128,-1,21
 318 487 318 487 370 487 c 2,22,-1
 527 487 l 2,23,24
 548 487 548 487 566.5 488.5 c 128,-1,25
 585 490 585 490 601.5 494.5 c 128,-1,26
 618 499 618 499 633 508 c 128,-1,27
 648 517 648 517 662 532 c 0,28,29
 681 552 681 552 695 578.5 c 128,-1,30
 709 605 709 605 709 631 c 2,31,-1
 709 721 l 2,32,33
 709 757 709 757 695 784 c 128,-1,34
 681 811 681 811 656.5 829 c 128,-1,35
 632 847 632 847 600 856 c 128,-1,36
 568 865 568 865 532 865 c 2,37,-1
 130 865 l 1,38,-1
 130 925 l 1,39,-1
 536 925 l 2,40,41
 587 925 587 925 629.5 912 c 128,-1,42
 672 899 672 899 703.5 873.5 c 128,-1,43
 735 848 735 848 752.5 809.5 c 128,-1,44
 770 771 770 771 770 721 c 2,45,-1
 770 642 l 1,46,-1
 770 642 l 1,0,1
EndSplineSet
EndChar

StartChar: three
Encoding: 51 51 22
Width: 903
GlyphClass: 2
Flags: W
LayerCount: 2
Fore
SplineSet
738 219 m 1,0,1
 738 168 738 168 721.5 127.5 c 128,-1,2
 705 87 705 87 674.5 58.5 c 128,-1,3
 644 30 644 30 600.5 15 c 128,-1,4
 557 0 557 0 503 0 c 2,5,-1
 101 0 l 1,6,-1
 101 59 l 1,7,-1
 503 59 l 2,8,9
 582 59 582 59 629 98.5 c 128,-1,10
 676 138 676 138 676 214 c 2,11,-1
 676 309 l 2,12,13
 676 347 676 347 664 372.5 c 128,-1,14
 652 398 652 398 630 414 c 128,-1,15
 608 430 608 430 577 436.5 c 128,-1,16
 546 443 546 443 509 443 c 2,17,-1
 310 443 l 1,18,-1
 310 502 l 1,19,-1
 509 502 l 2,20,21
 544 502 544 502 576.5 506 c 128,-1,22
 609 510 609 510 635 533 c 0,23,24
 657 553 657 553 666.5 581.5 c 128,-1,25
 676 610 676 610 676 639 c 2,26,-1
 676 734 l 2,27,28
 676 763 676 763 664.5 795 c 128,-1,29
 653 827 653 827 627 845 c 0,30,31
 605 859 605 859 572 862 c 128,-1,32
 539 865 539 865 510 865 c 2,33,-1
 101 865 l 1,34,-1
 101 925 l 1,35,-1
 503 925 l 2,36,37
 559 925 559 925 603 915.5 c 128,-1,38
 647 906 647 906 677 883.5 c 128,-1,39
 707 861 707 861 722.5 823 c 128,-1,40
 738 785 738 785 738 728 c 2,41,-1
 738 636 l 2,42,43
 738 578 738 578 716.5 539.5 c 128,-1,44
 695 501 695 501 644 473 c 1,45,46
 696 449 696 449 717 409.5 c 128,-1,47
 738 370 738 370 738 313 c 2,48,-1
 738 219 l 1,49,-1
 738 219 l 1,0,1
EndSplineSet
EndChar

StartChar: four
Encoding: 52 52 23
Width: 903
GlyphClass: 2
Flags: W
LayerCount: 2
Fore
SplineSet
660 0 m 1,0,-1
 660 266 l 1,1,-1
 128 266 l 2,2,3
 107 266 107 266 91 276.5 c 128,-1,4
 75 287 75 287 75 311 c 0,5,6
 75 315 75 315 78 321.5 c 128,-1,7
 81 328 81 328 85 333 c 2,8,-1
 87 335 l 1,9,-1
 463 925 l 1,10,-1
 537 925 l 1,11,-1
 154 325 l 1,12,-1
 660 325 l 1,13,-1
 660 925 l 1,14,-1
 725 925 l 1,15,-1
 725 0 l 1,16,-1
 660 0 l 1,0,-1
EndSplineSet
EndChar

StartChar: five
Encoding: 53 53 24
Width: 903
GlyphClass: 2
Flags: W
LayerCount: 2
Fore
SplineSet
189 865 m 1,0,-1
 189 579 l 1,1,-1
 540 579 l 2,2,3
 591 579 591 579 633 562.5 c 128,-1,4
 675 546 675 546 705.5 516 c 128,-1,5
 736 486 736 486 752.5 445.5 c 128,-1,6
 769 405 769 405 769 357 c 2,7,-1
 769 209 l 2,8,9
 769 161 769 161 746 118 c 128,-1,10
 723 75 723 75 683 45 c 0,11,12
 643 17 643 17 605.5 8.5 c 128,-1,13
 568 0 568 0 520 0 c 2,14,-1
 128 0 l 1,15,-1
 128 59 l 1,16,-1
 511 59 l 2,17,18
 549 59 549 59 582 63 c 128,-1,19
 615 67 615 67 647 89 c 0,20,21
 677 112 677 112 692.5 143 c 128,-1,22
 708 174 708 174 708 209 c 2,23,-1
 708 357 l 2,24,25
 708 391 708 391 696 421.5 c 128,-1,26
 684 452 684 452 662.5 474 c 128,-1,27
 641 496 641 496 610.5 509 c 128,-1,28
 580 522 580 522 543 522 c 2,29,-1
 128 522 l 1,30,-1
 128 925 l 1,31,-1
 770 925 l 1,32,-1
 770 865 l 1,33,-1
 189 865 l 1,0,-1
EndSplineSet
EndChar

StartChar: six
Encoding: 54 54 25
Width: 903
GlyphClass: 2
Flags: W
LayerCount: 2
Fore
SplineSet
333 865 m 2,0,1
 314 865 314 865 298.5 864.5 c 128,-1,2
 283 864 283 864 269 861 c 128,-1,3
 255 858 255 858 241.5 852 c 128,-1,4
 228 846 228 846 213 834 c 0,5,6
 182 811 182 811 168 780 c 128,-1,7
 154 749 154 749 154 712 c 2,8,-1
 154 582 l 1,9,-1
 557 582 l 2,10,11
 608 582 608 582 648.5 572.5 c 128,-1,12
 689 563 689 563 730 532 c 0,13,14
 769 500 769 500 787 457.5 c 128,-1,15
 805 415 805 415 805 367 c 2,16,-1
 805 207 l 2,17,18
 805 160 805 160 788 122 c 128,-1,19
 771 84 771 84 741 57 c 128,-1,20
 711 30 711 30 669.5 15 c 128,-1,21
 628 0 628 0 579 0 c 2,22,-1
 332 0 l 2,23,24
 289 0 289 0 249.5 11 c 128,-1,25
 210 22 210 22 175 46 c 0,26,27
 149 65 149 65 132.5 84 c 128,-1,28
 116 103 116 103 107 124.5 c 128,-1,29
 98 146 98 146 95 170.5 c 128,-1,30
 92 195 92 195 92 225 c 2,31,-1
 92 712 l 2,32,33
 92 763 92 763 110 803 c 128,-1,34
 128 843 128 843 160 870 c 128,-1,35
 192 897 192 897 236 911 c 128,-1,36
 280 925 280 925 333 925 c 2,37,-1
 806 925 l 1,38,-1
 806 865 l 1,39,-1
 333 865 l 2,0,1
741 364 m 2,40,41
 741 402 741 402 727 431.5 c 128,-1,42
 713 461 713 461 689 481 c 128,-1,43
 665 501 665 501 632 511.5 c 128,-1,44
 599 522 599 522 560 522 c 2,45,-1
 154 522 l 1,46,-1
 154 225 l 2,47,48
 154 185 154 185 165.5 150.5 c 128,-1,49
 177 116 177 116 211 91 c 0,50,51
 237 76 237 76 270.5 67.5 c 128,-1,52
 304 59 304 59 333 59 c 2,53,-1
 579 59 l 2,54,55
 615 59 615 59 645 70 c 128,-1,56
 675 81 675 81 696 101 c 128,-1,57
 717 121 717 121 729 149 c 128,-1,58
 741 177 741 177 741 210 c 2,59,-1
 741 364 l 2,40,41
EndSplineSet
EndChar

StartChar: seven
Encoding: 55 55 26
Width: 903
GlyphClass: 2
Flags: W
LayerCount: 2
Fore
SplineSet
776 898 m 0,0,1
 776 875 776 875 767 856 c 2,2,-1
 333 0 l 1,3,-1
 265 0 l 1,4,-1
 704 865 l 1,5,-1
 123 865 l 1,6,-1
 123 925 l 1,7,-1
 738 925 l 2,8,9
 755 925 755 925 765.5 920 c 128,-1,10
 776 915 776 915 776 898 c 0,0,1
EndSplineSet
EndChar

StartChar: eight
Encoding: 56 56 27
Width: 903
GlyphClass: 2
Flags: W
LayerCount: 2
Fore
SplineSet
805 636 m 2,0,1
 805 576 805 576 773.5 536.5 c 128,-1,2
 742 497 742 497 694 470 c 1,3,4
 730 452 730 452 751.5 431.5 c 128,-1,5
 773 411 773 411 784.5 386.5 c 128,-1,6
 796 362 796 362 799.5 332 c 128,-1,7
 803 302 803 302 803 264 c 2,8,-1
 803 214 l 2,9,10
 803 164 803 164 786 124 c 128,-1,11
 769 84 769 84 738.5 56.5 c 128,-1,12
 708 29 708 29 664.5 14.5 c 128,-1,13
 621 0 621 0 568 0 c 2,14,-1
 331 0 l 2,15,16
 278 0 278 0 234 14.5 c 128,-1,17
 190 29 190 29 159 56.5 c 128,-1,18
 128 84 128 84 111 124 c 128,-1,19
 94 164 94 164 94 214 c 2,20,-1
 94 302 l 2,21,22
 94 367 94 367 121.5 404 c 128,-1,23
 149 441 149 441 202 470 c 1,24,25
 168 489 168 489 146.5 507 c 128,-1,26
 125 525 125 525 112.5 547.5 c 128,-1,27
 100 570 100 570 96 598.5 c 128,-1,28
 92 627 92 627 92 667 c 2,29,-1
 92 710 l 2,30,31
 93 769 93 769 110.5 810 c 128,-1,32
 128 851 128 851 160 876.5 c 128,-1,33
 192 902 192 902 239 913.5 c 128,-1,34
 286 925 286 925 345 925 c 2,35,-1
 553 925 l 2,36,37
 613 925 613 925 659.5 913.5 c 128,-1,38
 706 902 706 902 738.5 876.5 c 128,-1,39
 771 851 771 851 788 810 c 128,-1,40
 805 769 805 769 805 710 c 2,41,-1
 805 636 l 2,0,1
743 712 m 2,42,43
 743 753 743 753 728.5 782 c 128,-1,44
 714 811 714 811 688.5 829.5 c 128,-1,45
 663 848 663 848 628 856.5 c 128,-1,46
 593 865 593 865 553 865 c 2,47,-1
 345 865 l 2,48,49
 304 865 304 865 269 856.5 c 128,-1,50
 234 848 234 848 208.5 829.5 c 128,-1,51
 183 811 183 811 168.5 782 c 128,-1,52
 154 753 154 753 154 712 c 2,53,-1
 154 637 l 2,54,55
 154 604 154 604 170.5 578.5 c 128,-1,56
 187 553 187 553 212.5 535.5 c 128,-1,57
 238 518 238 518 270 509.5 c 128,-1,58
 302 501 302 501 333 501 c 2,59,-1
 564 501 l 2,60,61
 596 501 596 501 628 509.5 c 128,-1,62
 660 518 660 518 685.5 535.5 c 128,-1,63
 711 553 711 553 727 578.5 c 128,-1,64
 743 604 743 604 743 637 c 2,65,-1
 743 712 l 2,42,43
741 302 m 2,66,67
 741 325 741 325 729 350.5 c 128,-1,68
 717 376 717 376 702 394 c 0,69,70
 673 426 673 426 635.5 434 c 128,-1,71
 598 442 598 442 557 442 c 2,72,-1
 340 442 l 2,73,74
 298 442 298 442 260.5 433.5 c 128,-1,75
 223 425 223 425 195 393 c 0,76,77
 179 376 179 376 168 350.5 c 128,-1,78
 157 325 157 325 157 302 c 2,79,-1
 157 214 l 2,80,81
 157 178 157 178 170 149 c 128,-1,82
 183 120 183 120 206 100 c 128,-1,83
 229 80 229 80 261 69.5 c 128,-1,84
 293 59 293 59 331 59 c 2,85,-1
 568 59 l 2,86,87
 606 59 606 59 637.5 69.5 c 128,-1,88
 669 80 669 80 692 100 c 128,-1,89
 715 120 715 120 728 149 c 128,-1,90
 741 178 741 178 741 214 c 2,91,-1
 741 302 l 2,66,67
EndSplineSet
EndChar

StartChar: nine
Encoding: 57 57 28
Width: 903
GlyphClass: 2
Flags: W
LayerCount: 2
Fore
SplineSet
806 214 m 2,0,1
 806 163 806 163 788.5 123 c 128,-1,2
 771 83 771 83 739 55.5 c 128,-1,3
 707 28 707 28 662.5 14 c 128,-1,4
 618 0 618 0 564 0 c 2,5,-1
 92 0 l 1,6,-1
 92 59 l 1,7,-1
 562 59 l 2,8,9
 581 59 581 59 596.5 60 c 128,-1,10
 612 61 612 61 626.5 64 c 128,-1,11
 641 67 641 67 655 73.5 c 128,-1,12
 669 80 669 80 685 91 c 0,13,14
 743 137 743 137 743 212 c 2,15,-1
 743 344 l 1,16,-1
 340 344 l 2,17,18
 291 344 291 344 249 352.5 c 128,-1,19
 207 361 207 361 169 392 c 0,20,21
 130 425 130 425 111 468 c 128,-1,22
 92 511 92 511 92 560 c 2,23,-1
 92 716 l 2,24,25
 92 763 92 763 109 801.5 c 128,-1,26
 126 840 126 840 156 867.5 c 128,-1,27
 186 895 186 895 227.5 910 c 128,-1,28
 269 925 269 925 317 925 c 2,29,-1
 566 925 l 2,30,31
 608 925 608 925 647.5 914 c 128,-1,32
 687 903 687 903 722 879 c 0,33,34
 749 861 749 861 765.5 841.5 c 128,-1,35
 782 822 782 822 791 800.5 c 128,-1,36
 800 779 800 779 803 754 c 128,-1,37
 806 729 806 729 806 699 c 2,38,-1
 806 214 l 2,0,1
743 699 m 2,39,40
 743 741 743 741 733 775 c 128,-1,41
 723 809 723 809 686 833 c 0,42,43
 662 850 662 850 628 857.5 c 128,-1,44
 594 865 594 865 562 865 c 2,45,-1
 317 865 l 2,46,47
 282 865 282 865 252.5 854.5 c 128,-1,48
 223 844 223 844 201.5 824 c 128,-1,49
 180 804 180 804 168 776 c 128,-1,50
 156 748 156 748 156 714 c 2,51,-1
 156 560 l 2,52,53
 156 522 156 522 169.5 493 c 128,-1,54
 183 464 183 464 207 444 c 128,-1,55
 231 424 231 424 264 413.5 c 128,-1,56
 297 403 297 403 336 403 c 2,57,-1
 743 403 l 1,58,-1
 743 699 l 2,39,40
EndSplineSet
EndChar

StartChar: colon
Encoding: 58 58 29
Width: 439
GlyphClass: 2
Flags: W
LayerCount: 2
Fore
SplineSet
137 617 m 256,0,1
 137 650 137 650 161.5 674.5 c 128,-1,2
 186 699 186 699 221 699 c 0,3,4
 254 699 254 699 278.5 674.5 c 128,-1,5
 303 650 303 650 303 617 c 256,6,7
 303 584 303 584 278.5 559.5 c 128,-1,8
 254 535 254 535 221 535 c 0,9,10
 186 535 186 535 161.5 559.5 c 128,-1,11
 137 584 137 584 137 617 c 256,0,1
137 82 m 256,12,13
 137 115 137 115 161.5 139.5 c 128,-1,14
 186 164 186 164 221 164 c 0,15,16
 254 164 254 164 278.5 139.5 c 128,-1,17
 303 115 303 115 303 82 c 256,18,19
 303 49 303 49 278.5 24.5 c 128,-1,20
 254 0 254 0 221 0 c 0,21,22
 186 0 186 0 161.5 24.5 c 128,-1,23
 137 49 137 49 137 82 c 256,12,13
EndSplineSet
EndChar

StartChar: semicolon
Encoding: 59 59 30
Width: 668
GlyphClass: 2
Flags: W
LayerCount: 2
Fore
SplineSet
273 -223 m 1,0,1
 352 -178 352 -178 404.5 -122 c 128,-1,2
 457 -66 457 -66 479 -6 c 1,3,4
 432 -6 432 -6 398.5 19.5 c 128,-1,5
 365 45 365 45 365 82 c 0,6,7
 365 115 365 115 389.5 139.5 c 128,-1,8
 414 164 414 164 449 164 c 0,9,10
 482 164 482 164 506.5 139.5 c 128,-1,11
 531 115 531 115 531 82 c 0,12,13
 531 -10 531 -10 468.5 -98 c 128,-1,14
 406 -186 406 -186 299 -248 c 1,15,-1
 273 -223 l 1,0,1
365 617 m 256,16,17
 365 650 365 650 389.5 674.5 c 128,-1,18
 414 699 414 699 449 699 c 0,19,20
 482 699 482 699 506.5 674.5 c 128,-1,21
 531 650 531 650 531 617 c 256,22,23
 531 584 531 584 506.5 559.5 c 128,-1,24
 482 535 482 535 449 535 c 0,25,26
 414 535 414 535 389.5 559.5 c 128,-1,27
 365 584 365 584 365 617 c 256,16,17
EndSplineSet
EndChar

StartChar: less
Encoding: 60 60 31
Width: 1068
GlyphClass: 2
Flags: W
LayerCount: 2
Fore
SplineSet
732 908 m 1,0,-1
 806 836 l 1,1,-1
 486 516 l 1,2,-1
 804 200 l 1,3,-1
 732 128 l 1,4,-1
 342 516 l 1,5,-1
 732 908 l 1,0,-1
EndSplineSet
EndChar

StartChar: equal
Encoding: 61 61 32
Width: 1055
GlyphClass: 2
Flags: W
LayerCount: 2
Fore
SplineSet
137 104 m 1,0,-1
 137 164 l 1,1,-1
 918 164 l 1,2,-1
 918 104 l 1,3,-1
 137 104 l 1,0,-1
137 514 m 1,4,-1
 137 576 l 1,5,-1
 918 576 l 1,6,-1
 918 514 l 1,7,-1
 137 514 l 1,4,-1
EndSplineSet
EndChar

StartChar: greater
Encoding: 62 62 33
Width: 1068
GlyphClass: 2
Flags: W
LayerCount: 2
Fore
SplineSet
866 516 m 1,0,-1
 476 128 l 1,1,-1
 404 200 l 1,2,-1
 722 516 l 1,3,-1
 402 836 l 1,4,-1
 476 908 l 1,5,-1
 866 516 l 1,0,-1
EndSplineSet
EndChar

StartChar: question
Encoding: 63 63 34
Width: 1088
GlyphClass: 2
Flags: W
LayerCount: 2
Fore
SplineSet
273 760 m 2,0,-1
 273 1109 l 2,1,2
 273 1145 273 1145 297.5 1169 c 128,-1,3
 322 1193 322 1193 355 1193 c 2,4,-1
 869 1193 l 2,5,6
 902 1193 902 1193 926.5 1169 c 128,-1,7
 951 1145 951 1145 951 1109 c 2,8,-1
 951 699 l 2,9,10
 951 672 951 672 926.5 643.5 c 128,-1,11
 902 615 902 615 859 594 c 2,12,-1
 727 533 l 2,13,14
 680 510 680 510 651.5 482.5 c 128,-1,15
 623 455 623 455 623 432 c 2,16,-1
 623 287 l 1,17,-1
 561 287 l 1,18,-1
 561 473 l 2,19,20
 561 492 561 492 580.5 511.5 c 128,-1,21
 600 531 600 531 633 547 c 2,22,-1
 795 619 l 2,23,24
 838 639 838 639 864.5 666 c 128,-1,25
 891 693 891 693 891 719 c 2,26,-1
 891 1068 l 2,27,28
 891 1094 891 1094 872.5 1112.5 c 128,-1,29
 854 1131 854 1131 828 1131 c 2,30,-1
 396 1131 l 2,31,32
 371 1131 371 1131 352.5 1112.5 c 128,-1,33
 334 1094 334 1094 334 1068 c 2,34,-1
 334 803 l 2,35,36
 334 777 334 777 352.5 758.5 c 128,-1,37
 371 740 371 740 396 740 c 2,38,-1
 561 740 l 1,39,-1
 561 678 l 1,40,-1
 355 678 l 2,41,42
 322 678 322 678 297.5 702.5 c 128,-1,43
 273 727 273 727 273 760 c 2,0,-1
500 82 m 256,44,45
 500 115 500 115 524.5 139.5 c 128,-1,46
 549 164 549 164 582 164 c 256,47,48
 615 164 615 164 639.5 139.5 c 128,-1,49
 664 115 664 115 664 82 c 256,50,51
 664 49 664 49 639.5 24.5 c 128,-1,52
 615 0 615 0 582 0 c 256,53,54
 549 0 549 0 524.5 24.5 c 128,-1,55
 500 49 500 49 500 82 c 256,44,45
EndSplineSet
EndChar

StartChar: at
Encoding: 64 64 35
Width: 1760
GlyphClass: 2
Flags: W
LayerCount: 2
Fore
SplineSet
936 128 m 1,0,1
 800 -2 800 -2 668 -2 c 0,2,3
 504 -2 504 -2 462 164 c 0,4,5
 450 212 450 212 450 262 c 2,6,-1
 450 314 l 1,7,-1
 458 348 l 2,8,9
 488 476 488 476 575 601 c 128,-1,10
 662 726 662 726 772 786 c 128,-1,11
 882 846 882 846 970 846 c 0,12,13
 1112 846 1112 846 1176 702 c 1,14,-1
 1228 824 l 1,15,-1
 1368 824 l 1,16,-1
 1094 180 l 1,17,18
 1094 160 1094 160 1102 142 c 1,19,20
 1112 132 1112 132 1138 128 c 1,21,22
 1184 128 1184 128 1258 174 c 0,23,24
 1356 236 1356 236 1434 343 c 128,-1,25
 1512 450 1512 450 1532 560 c 2,26,-1
 1540 604 l 1,27,-1
 1542 656 l 2,28,29
 1544 726 1544 726 1518 802 c 0,30,31
 1476 924 1476 924 1338 992 c 0,32,33
 1220 1052 1220 1052 1078 1052 c 0,34,35
 786 1052 786 1052 567 861 c 128,-1,36
 348 670 348 670 284 380 c 0,37,38
 266 298 266 298 266 224 c 0,39,40
 266 -50 266 -50 492 -154 c 0,41,42
 636 -220 636 -220 828 -220 c 0,43,44
 1204 -220 1204 -220 1428 14 c 1,45,-1
 1568 14 l 1,46,47
 1444 -182 1444 -182 1138 -286 c 0,48,49
 992 -336 992 -336 804 -336 c 0,50,51
 448 -336 448 -336 278 -162 c 0,52,53
 146 -26 146 -26 146 196 c 0,54,55
 146 464 146 464 320 730 c 0,56,57
 454 936 454 936 661 1051 c 128,-1,58
 868 1166 868 1166 1110 1166 c 0,59,60
 1524 1166 1524 1166 1634 852 c 0,61,62
 1662 770 1662 770 1660 686 c 2,63,-1
 1658 624 l 1,64,-1
 1646 556 l 2,65,66
 1608 342 1608 342 1402 156 c 0,67,68
 1224 -4 1224 -4 1058 -4 c 2,69,-1
 1036 -4 l 1,70,-1
 1006 0 l 2,71,72
 960 6 960 6 934 60 c 1,73,-1
 932 86 l 1,74,-1
 936 128 l 1,0,1
602 340 m 2,75,-1
 596 302 l 1,76,-1
 594 264 l 2,77,78
 590 202 590 202 625 158 c 128,-1,79
 660 114 660 114 720 114 c 0,80,81
 844 114 844 114 926 218 c 1,82,83
 978 258 978 258 1028 350 c 0,84,85
 1076 436 1076 436 1088 508 c 2,86,-1
 1094 542 l 1,87,-1
 1096 578 l 2,88,89
 1100 642 1100 642 1060 687 c 128,-1,90
 1020 732 1020 732 956 732 c 0,91,92
 800 732 800 732 660 490 c 0,93,94
 612 408 612 408 602 340 c 2,75,-1
EndSplineSet
EndChar

StartChar: bracketleft
Encoding: 91 91 36
Width: 556
GlyphClass: 2
Flags: W
LayerCount: 2
Fore
SplineSet
50 -398 m 1,0,-1
 442 1432 l 1,1,-1
 830 1432 l 1,2,-1
 798 1286 l 1,3,-1
 586 1286 l 1,4,-1
 258 -252 l 1,5,-1
 470 -252 l 1,6,-1
 438 -398 l 1,7,-1
 50 -398 l 1,0,-1
EndSplineSet
EndChar

StartChar: backslash
Encoding: 92 92 37
Width: 556
GlyphClass: 2
Flags: W
LayerCount: 2
Fore
SplineSet
416 -24 m 1,0,-1
 0 1456 l 1,1,-1
 142 1456 l 1,2,-1
 556 -24 l 1,3,-1
 416 -24 l 1,0,-1
EndSplineSet
EndChar

StartChar: bracketright
Encoding: 93 93 38
Width: 556
GlyphClass: 2
Flags: W
LayerCount: 2
Fore
SplineSet
340 -398 m 1,0,-1
 -48 -398 l 1,1,-1
 -16 -252 l 1,2,-1
 196 -252 l 1,3,-1
 524 1286 l 1,4,-1
 312 1286 l 1,5,-1
 344 1432 l 1,6,-1
 732 1432 l 1,7,-1
 340 -398 l 1,0,-1
EndSplineSet
EndChar

StartChar: asciicircum
Encoding: 94 94 39
Width: 938
GlyphClass: 2
Flags: W
LayerCount: 2
Fore
SplineSet
234 674 m 1,0,-1
 52 674 l 1,1,-1
 398 1456 l 1,2,-1
 540 1456 l 1,3,-1
 886 674 l 1,4,-1
 708 674 l 1,5,-1
 468 1256 l 1,6,-1
 234 674 l 1,0,-1
EndSplineSet
EndChar

StartChar: underscore
Encoding: 95 95 40
Width: 1112
GlyphClass: 2
Flags: W
LayerCount: 2
Fore
SplineSet
-30 -398 m 1,0,-1
 -30 -270 l 1,1,-1
 1134 -270 l 1,2,-1
 1134 -398 l 1,3,-1
 -30 -398 l 1,0,-1
EndSplineSet
EndChar

StartChar: grave
Encoding: 96 96 41
Width: 666
GlyphClass: 2
Flags: W
LayerCount: 2
Fore
SplineSet
454 1166 m 1,0,-1
 312 1166 l 1,1,-1
 86 1440 l 1,2,-1
 322 1440 l 1,3,-1
 454 1166 l 1,0,-1
EndSplineSet
EndChar

StartChar: braceleft
Encoding: 123 123 42
Width: 668
GlyphClass: 2
Flags: W
LayerCount: 2
Fore
SplineSet
184 598 m 1,0,1
 336 598 336 598 400 744 c 1,2,-1
 434 854 l 1,3,-1
 466 974 l 2,4,5
 480 1042 480 1042 520 1202 c 0,6,7
 550 1312 550 1312 650 1396 c 0,8,9
 686 1426 686 1426 756 1446 c 1,10,-1
 804 1454 l 1,11,-1
 878 1456 l 1,12,-1
 934 1456 l 1,13,-1
 900 1302 l 1,14,-1
 868 1302 l 2,15,16
 770 1302 770 1302 724 1264 c 0,17,18
 690 1236 690 1236 658 1102 c 2,19,-1
 644 1042 l 1,20,-1
 614 898 l 1,21,-1
 596 824 l 2,22,23
 590 800 590 800 578 780 c 0,24,25
 536 676 536 676 484 623 c 128,-1,26
 432 570 432 570 328 518 c 1,27,28
 468 460 468 460 468 296 c 0,29,30
 468 244 468 244 438 78 c 2,31,-1
 392 -178 l 1,32,33
 392 -220 392 -220 414 -242 c 1,34,-1
 450 -258 l 1,35,36
 486 -268 486 -268 532 -268 c 2,37,-1
 564 -268 l 1,38,-1
 532 -420 l 1,39,-1
 476 -420 l 2,40,41
 378 -420 378 -420 342 -406 c 0,42,43
 292 -386 292 -386 256 -334 c 1,44,-1
 234 -278 l 1,45,-1
 226 -206 l 1,46,47
 226 -160 226 -160 244 -72 c 2,48,-1
 268 46 l 1,49,-1
 296 194 l 1,50,-1
 304 290 l 2,51,52
 310 352 310 352 264 398 c 1,53,54
 214 438 214 438 150 438 c 1,55,-1
 184 598 l 1,0,1
EndSplineSet
EndChar

StartChar: bar
Encoding: 124 124 43
Width: 520
GlyphClass: 2
Flags: W
LayerCount: 2
Fore
SplineSet
184 -420 m 1,0,-1
 184 1456 l 1,1,-1
 336 1456 l 1,2,-1
 336 -420 l 1,3,-1
 184 -420 l 1,0,-1
EndSplineSet
EndChar

StartChar: braceright
Encoding: 125 125 44
Width: 668
GlyphClass: 2
Flags: W
LayerCount: 2
Fore
SplineSet
740 598 m 1,0,-1
 706 438 l 1,1,2
 632 438 632 438 570 398 c 128,-1,3
 508 358 508 358 486 290 c 2,4,-1
 456 200 l 1,5,-1
 372 -154 l 2,6,7
 354 -230 354 -230 310 -282 c 2,8,-1
 274 -324 l 1,9,-1
 234 -364 l 1,10,-1
 194 -386 l 1,11,-1
 134 -410 l 1,12,-1
 86 -418 l 1,13,-1
 10 -420 l 1,14,-1
 -44 -420 l 1,15,-1
 -12 -268 l 1,16,-1
 18 -268 l 2,17,18
 116 -268 116 -268 159 -231 c 128,-1,19
 202 -194 202 -194 230 -66 c 2,20,-1
 272 124 l 1,21,-1
 304 244 l 2,22,23
 354 432 354 432 558 518 c 1,24,25
 460 566 460 566 432 656 c 0,26,27
 422 688 422 688 422 748 c 0,28,29
 422 838 422 838 448 958 c 2,30,-1
 474 1078 l 1,31,-1
 486 1142 l 1,32,-1
 496 1212 l 1,33,-1
 496 1222 l 2,34,35
 496 1302 496 1302 354 1302 c 2,36,-1
 324 1302 l 1,37,-1
 358 1456 l 1,38,-1
 412 1456 l 2,39,40
 584 1456 584 1456 634 1370 c 0,41,42
 660 1326 660 1326 660 1240 c 1,43,-1
 650 1138 l 1,44,-1
 592 834 l 1,45,-1
 582 742 l 1,46,47
 582 686 582 686 624 638 c 1,48,49
 646 620 646 620 674 608 c 1,50,-1
 704 600 l 1,51,-1
 740 598 l 1,0,-1
EndSplineSet
EndChar

StartChar: asciitilde
Encoding: 126 126 45
Width: 1168
GlyphClass: 2
Flags: W
LayerCount: 2
Fore
SplineSet
84 544 m 1,0,-1
 84 744 l 1,1,2
 190 862 190 862 356 862 c 0,3,4
 402 862 402 862 480 844 c 1,5,6
 526 826 526 826 664 776 c 2,7,-1
 764 740 l 1,8,-1
 806 730 l 1,9,-1
 832 730 l 2,10,11
 950 730 950 730 1084 864 c 1,12,-1
 1084 658 l 1,13,14
 1024 604 1024 604 960 572 c 1,15,16
 876 544 876 544 814 546 c 2,17,-1
 758 548 l 1,18,-1
 726 548 l 1,19,20
 718 552 718 552 704 556 c 0,21,22
 662 568 662 568 524 628 c 0,23,24
 414 676 414 676 340 676 c 0,25,26
 276 676 276 676 222 650 c 1,27,-1
 162 612 l 1,28,-1
 136 592 l 1,29,-1
 84 544 l 1,0,-1
EndSplineSet
EndChar

StartChar: cent
Encoding: 162 162 46
Width: 721
GlyphClass: 2
Flags: W
LayerCount: 2
Fore
SplineSet
598 156 m 1,0,1
 537 71 537 71 467 31 c 128,-1,2
 397 -9 397 -9 304 -17 c 1,3,-1
 228 -265 l 1,4,-1
 187 -265 l 1,5,-1
 262 -17 l 1,6,7
 177 -8 177 -8 128.5 47 c 128,-1,8
 80 102 80 102 80 188 c 0,9,10
 80 345 80 345 191.5 478.5 c 128,-1,11
 303 612 303 612 457 638 c 1,12,-1
 541 917 l 1,13,-1
 580 917 l 1,14,-1
 499 638 l 1,15,16
 580 638 580 638 616.5 607 c 128,-1,17
 653 576 653 576 653 523 c 0,18,19
 653 482 653 482 631.5 455.5 c 128,-1,20
 610 429 610 429 580 429 c 0,21,22
 557 429 557 429 544 442 c 128,-1,23
 531 455 531 455 531 476 c 0,24,25
 531 491 531 491 536 502 c 128,-1,26
 541 513 541 513 560.5 534.5 c 128,-1,27
 580 556 580 556 580 570 c 0,28,29
 580 578 580 578 575 585 c 0,30,31
 565 596 565 596 549.5 601 c 128,-1,32
 534 606 534 606 489 606 c 1,33,-1
 322 49 l 1,34,-1
 352 47 l 1,35,36
 470 47 470 47 580 173 c 1,37,-1
 598 156 l 1,0,1
284 57 m 1,38,-1
 445 598 l 1,39,40
 383 570 383 570 342 533 c 0,41,42
 274 467 274 467 237 380.5 c 128,-1,43
 200 294 200 294 200 205 c 0,44,45
 200 146 200 146 224 108 c 0,46,47
 243 81 243 81 284 57 c 1,38,-1
EndSplineSet
EndChar

StartChar: multiply
Encoding: 215 215 47
Width: 975
GlyphClass: 2
Flags: W
LayerCount: 2
Fore
SplineSet
267 230 m 1,0,-1
 515 479 l 1,1,-1
 267 728 l 1,2,-1
 308 768 l 1,3,-1
 556 520 l 1,4,-1
 805 768 l 1,5,-1
 844 728 l 1,6,-1
 595 480 l 1,7,-1
 845 230 l 1,8,-1
 805 190 l 1,9,-1
 555 439 l 1,10,-1
 307 190 l 1,11,-1
 267 230 l 1,0,-1
EndSplineSet
EndChar

StartChar: divide
Encoding: 247 247 48
Width: 910
GlyphClass: 2
Flags: W
LayerCount: 2
Fore
SplineSet
395 123 m 256,0,1
 395 148 395 148 412.5 167 c 128,-1,2
 430 186 430 186 455 186 c 256,3,4
 480 186 480 186 499 167 c 128,-1,5
 518 148 518 148 518 123 c 256,6,7
 518 98 518 98 499 80 c 128,-1,8
 480 62 480 62 455 62 c 256,9,10
 430 62 430 62 412.5 80 c 128,-1,11
 395 98 395 98 395 123 c 256,0,1
137 369 m 1,12,-1
 137 412 l 1,13,-1
 773 412 l 1,14,-1
 773 369 l 1,15,-1
 137 369 l 1,12,-1
395 658 m 0,16,17
 395 684 395 684 412.5 701.5 c 128,-1,18
 430 719 430 719 455 719 c 256,19,20
 480 719 480 719 499 701.5 c 128,-1,21
 518 684 518 684 518 658 c 0,22,23
 518 633 518 633 499 614.5 c 128,-1,24
 480 596 480 596 455 596 c 256,25,26
 430 596 430 596 412.5 614.5 c 128,-1,27
 395 633 395 633 395 658 c 0,16,17
EndSplineSet
EndChar

StartChar: tm_visarga
Encoding: 2947 2947 49
Width: 1145
GlyphClass: 2
Flags: W
LayerCount: 2
Fore
SplineSet
45 104 m 2,0,-1
 45 186 l 2,1,2
 45 229 45 229 74.5 258 c 128,-1,3
 104 287 104 287 146 287 c 2,4,-1
 230 287 l 2,5,6
 273 287 273 287 302.5 258 c 128,-1,7
 332 229 332 229 332 186 c 2,8,-1
 332 104 l 2,9,10
 332 61 332 61 302.5 30.5 c 128,-1,11
 273 0 273 0 230 0 c 2,12,-1
 146 0 l 2,13,14
 104 0 104 0 74.5 30.5 c 128,-1,15
 45 61 45 61 45 104 c 2,0,-1
105 104 m 2,16,17
 105 86 105 86 117 74 c 128,-1,18
 129 62 129 62 146 62 c 2,19,-1
 230 62 l 2,20,21
 248 62 248 62 259.5 74 c 128,-1,22
 271 86 271 86 271 104 c 2,23,-1
 271 186 l 2,24,25
 271 203 271 203 259.5 215 c 128,-1,26
 248 227 248 227 230 227 c 2,27,-1
 146 227 l 2,28,29
 129 227 129 227 117 215 c 128,-1,30
 105 203 105 203 105 186 c 2,31,-1
 105 104 l 2,16,17
812 104 m 2,32,-1
 812 186 l 2,33,34
 812 229 812 229 842.5 258 c 128,-1,35
 873 287 873 287 916 287 c 2,36,-1
 998 287 l 2,37,38
 1041 287 1041 287 1070.5 258 c 128,-1,39
 1100 229 1100 229 1100 186 c 2,40,-1
 1100 104 l 2,41,42
 1100 61 1100 61 1070.5 30.5 c 128,-1,43
 1041 0 1041 0 998 0 c 2,44,-1
 916 0 l 2,45,46
 873 0 873 0 842.5 30.5 c 128,-1,47
 812 61 812 61 812 104 c 2,32,-1
875 104 m 2,48,49
 875 86 875 86 886.5 74 c 128,-1,50
 898 62 898 62 916 62 c 2,51,-1
 998 62 l 2,52,53
 1016 62 1016 62 1027.5 74 c 128,-1,54
 1039 86 1039 86 1039 104 c 2,55,-1
 1039 186 l 2,56,57
 1039 203 1039 203 1027.5 215 c 128,-1,58
 1016 227 1016 227 998 227 c 2,59,-1
 916 227 l 2,60,61
 898 227 898 227 886.5 215 c 128,-1,62
 875 203 875 203 875 186 c 2,63,-1
 875 104 l 2,48,49
418 891 m 2,64,-1
 418 973 l 2,65,66
 418 1016 418 1016 448.5 1046 c 128,-1,67
 479 1076 479 1076 521 1076 c 2,68,-1
 604 1076 l 2,69,70
 646 1076 646 1076 676.5 1046 c 128,-1,71
 707 1016 707 1016 707 973 c 2,72,-1
 707 891 l 2,73,74
 707 848 707 848 676.5 817.5 c 128,-1,75
 646 787 646 787 604 787 c 2,76,-1
 521 787 l 2,77,78
 479 787 479 787 448.5 817.5 c 128,-1,79
 418 848 418 848 418 891 c 2,64,-1
480 891 m 2,80,81
 480 873 480 873 492 861.5 c 128,-1,82
 504 850 504 850 521 850 c 2,83,-1
 604 850 l 2,84,85
 621 850 621 850 633 861.5 c 128,-1,86
 645 873 645 873 645 891 c 2,87,-1
 645 973 l 2,88,89
 645 990 645 990 633 1002 c 128,-1,90
 621 1014 621 1014 604 1014 c 2,91,-1
 521 1014 l 2,92,93
 504 1014 504 1014 492 1002 c 128,-1,94
 480 990 480 990 480 973 c 2,95,-1
 480 891 l 2,80,81
EndSplineSet
EndChar

StartChar: tm_a
Encoding: 2949 2949 50
Width: 1687
GlyphClass: 2
Flags: W
LayerCount: 2
Fore
SplineSet
627 555 m 2,0,1
 627 529 627 529 644.5 511.5 c 128,-1,2
 662 494 662 494 687 494 c 2,3,-1
 811 494 l 2,4,5
 836 494 836 494 854.5 511.5 c 128,-1,6
 873 529 873 529 873 555 c 2,7,-1
 873 719 l 1,8,-1
 687 719 l 2,9,10
 662 719 662 719 644.5 701.5 c 128,-1,11
 627 684 627 684 627 658 c 2,12,-1
 627 555 l 2,0,1
111 21 m 2,13,14
 111 -4 111 -4 129.5 -22.5 c 128,-1,15
 148 -41 148 -41 174 -41 c 2,16,-1
 1119 -41 l 2,17,18
 1145 -41 1145 -41 1163.5 -22.5 c 128,-1,19
 1182 -4 1182 -4 1182 21 c 2,20,-1
 1182 246 l 1,21,-1
 174 246 l 2,22,23
 148 246 148 246 129.5 228.5 c 128,-1,24
 111 211 111 211 111 186 c 2,25,-1
 111 21 l 2,13,14
51 21 m 2,26,-1
 51 186 l 2,27,28
 51 236 51 236 87 272.5 c 128,-1,29
 123 309 123 309 174 309 c 2,30,-1
 1182 309 l 1,31,-1
 1182 658 l 2,32,33
 1182 684 1182 684 1163.5 701.5 c 128,-1,34
 1145 719 1145 719 1119 719 c 2,35,-1
 934 719 l 1,36,-1
 934 555 l 2,37,38
 934 504 934 504 897.5 468 c 128,-1,39
 861 432 861 432 811 432 c 2,40,-1
 687 432 l 2,41,42
 637 432 637 432 600.5 468 c 128,-1,43
 564 504 564 504 564 555 c 2,44,-1
 564 658 l 2,45,46
 564 709 564 709 600.5 745 c 128,-1,47
 637 781 637 781 687 781 c 2,48,-1
 1119 781 l 2,49,50
 1170 781 1170 781 1206 745 c 128,-1,51
 1242 709 1242 709 1242 658 c 2,52,-1
 1242 309 l 1,53,-1
 1490 309 l 1,54,-1
 1490 781 l 1,55,-1
 1551 781 l 1,56,-1
 1551 -104 l 1,57,-1
 1490 -104 l 1,58,-1
 1490 246 l 1,59,-1
 1242 246 l 1,60,-1
 1242 21 l 2,61,62
 1242 -31 1242 -31 1206 -67.5 c 128,-1,63
 1170 -104 1170 -104 1119 -104 c 2,64,-1
 174 -104 l 2,65,66
 123 -104 123 -104 87 -67.5 c 128,-1,67
 51 -31 51 -31 51 21 c 2,26,-1
EndSplineSet
EndChar

StartChar: tm_aa
Encoding: 2950 2950 51
Width: 1926
GlyphClass: 2
Flags: W
LayerCount: 2
Fore
SplineSet
627 555 m 2,0,1
 627 529 627 529 644.5 511.5 c 128,-1,2
 662 494 662 494 687 494 c 2,3,-1
 811 494 l 2,4,5
 836 494 836 494 854.5 511.5 c 128,-1,6
 873 529 873 529 873 555 c 2,7,-1
 873 719 l 1,8,-1
 687 719 l 2,9,10
 662 719 662 719 644.5 701.5 c 128,-1,11
 627 684 627 684 627 658 c 2,12,-1
 627 555 l 2,0,1
111 21 m 2,13,14
 111 -4 111 -4 129.5 -22.5 c 128,-1,15
 148 -41 148 -41 174 -41 c 2,16,-1
 1119 -41 l 2,17,18
 1145 -41 1145 -41 1163.5 -22.5 c 128,-1,19
 1182 -4 1182 -4 1182 21 c 2,20,-1
 1182 246 l 1,21,-1
 174 246 l 2,22,23
 148 246 148 246 129.5 228.5 c 128,-1,24
 111 211 111 211 111 186 c 2,25,-1
 111 21 l 2,13,14
51 21 m 2,26,-1
 51 186 l 2,27,28
 51 236 51 236 87 272.5 c 128,-1,29
 123 309 123 309 174 309 c 2,30,-1
 1182 309 l 1,31,-1
 1182 658 l 2,32,33
 1182 684 1182 684 1163.5 701.5 c 128,-1,34
 1145 719 1145 719 1119 719 c 2,35,-1
 934 719 l 1,36,-1
 934 555 l 2,37,38
 934 504 934 504 897.5 468 c 128,-1,39
 861 432 861 432 811 432 c 2,40,-1
 687 432 l 2,41,42
 637 432 637 432 600.5 468 c 128,-1,43
 564 504 564 504 564 555 c 2,44,-1
 564 658 l 2,45,46
 564 709 564 709 600.5 745 c 128,-1,47
 637 781 637 781 687 781 c 2,48,-1
 1119 781 l 2,49,50
 1170 781 1170 781 1206 745 c 128,-1,51
 1242 709 1242 709 1242 658 c 2,52,-1
 1242 309 l 1,53,-1
 1490 309 l 1,54,-1
 1490 781 l 1,55,-1
 1551 781 l 1,56,-1
 1551 123 l 1,57,58
 1578 145 1578 145 1591.5 154.5 c 128,-1,59
 1605 164 1605 164 1613 164 c 2,60,-1
 1777 164 l 2,61,62
 1828 164 1828 164 1864 128 c 128,-1,63
 1900 92 1900 92 1900 41 c 2,64,-1
 1900 -391 l 2,65,66
 1900 -441 1900 -441 1864 -477.5 c 128,-1,67
 1828 -514 1828 -514 1777 -514 c 2,68,-1
 584 -514 l 2,69,70
 533 -514 533 -514 497 -477.5 c 128,-1,71
 461 -441 461 -441 461 -391 c 2,72,-1
 461 -350 l 2,73,74
 461 -299 461 -299 497 -263 c 128,-1,75
 533 -227 533 -227 584 -227 c 2,76,-1
 832 -227 l 1,77,-1
 832 -287 l 1,78,-1
 584 -287 l 2,79,80
 559 -287 559 -287 541 -305.5 c 128,-1,81
 523 -324 523 -324 523 -350 c 2,82,-1
 523 -391 l 2,83,84
 523 -416 523 -416 541 -434.5 c 128,-1,85
 559 -453 559 -453 584 -453 c 2,86,-1
 1777 -453 l 2,87,88
 1803 -453 1803 -453 1821.5 -434.5 c 128,-1,89
 1840 -416 1840 -416 1840 -391 c 2,90,-1
 1840 41 l 2,91,92
 1840 66 1840 66 1821.5 85 c 128,-1,93
 1803 104 1803 104 1777 104 c 2,94,-1
 1613 104 l 2,95,96
 1588 104 1588 104 1569.5 79.5 c 128,-1,97
 1551 55 1551 55 1551 21 c 2,98,-1
 1551 -104 l 1,99,-1
 1490 -104 l 1,100,-1
 1490 246 l 1,101,-1
 1242 246 l 1,102,-1
 1242 21 l 2,103,104
 1242 -31 1242 -31 1206 -67.5 c 128,-1,105
 1170 -104 1170 -104 1119 -104 c 2,106,-1
 174 -104 l 2,107,108
 123 -104 123 -104 87 -67.5 c 128,-1,109
 51 -31 51 -31 51 21 c 2,26,-1
EndSplineSet
EndChar

StartChar: tm_i
Encoding: 2951 2951 52
Width: 1701
GlyphClass: 2
Flags: W
LayerCount: 2
Fore
SplineSet
41 -391 m 2,0,-1
 41 123 l 2,1,2
 41 174 41 174 77 210 c 128,-1,3
 113 246 113 246 166 246 c 2,4,-1
 229 246 l 1,5,6
 219 258 219 258 213 279.5 c 128,-1,7
 207 301 207 301 207 328 c 2,8,-1
 207 1068 l 2,9,10
 207 1121 207 1121 243 1157 c 128,-1,11
 279 1193 279 1193 330 1193 c 2,12,-1
 1420 1193 l 2,13,14
 1471 1193 1471 1193 1507 1157 c 128,-1,15
 1543 1121 1543 1121 1543 1068 c 2,16,-1
 1543 412 l 1,17,-1
 1480 412 l 1,18,-1
 1480 1068 l 2,19,20
 1480 1094 1480 1094 1462.5 1112.5 c 128,-1,21
 1445 1131 1445 1131 1420 1131 c 2,22,-1
 330 1131 l 2,23,24
 305 1131 305 1131 286.5 1112.5 c 128,-1,25
 268 1094 268 1094 268 1068 c 2,26,-1
 268 328 l 2,27,28
 268 311 268 311 282.5 289.5 c 128,-1,29
 297 268 297 268 322 246 c 1,30,-1
 1172 246 l 1,31,-1
 1172 658 l 2,32,33
 1172 684 1172 684 1154.5 701.5 c 128,-1,34
 1137 719 1137 719 1111 719 c 2,35,-1
 967 719 l 1,36,-1
 967 555 l 2,37,38
 967 496 967 496 931 454 c 128,-1,39
 895 412 895 412 844 412 c 2,40,-1
 689 412 l 2,41,42
 635 412 635 412 596 451 c 128,-1,43
 557 490 557 490 557 545 c 2,44,-1
 557 658 l 2,45,46
 557 709 557 709 593 745 c 128,-1,47
 629 781 629 781 680 781 c 2,48,-1
 1111 781 l 2,49,50
 1162 781 1162 781 1198 745 c 128,-1,51
 1234 709 1234 709 1234 658 c 2,52,-1
 1234 246 l 1,53,-1
 1521 246 l 2,54,55
 1572 246 1572 246 1608.5 210 c 128,-1,56
 1645 174 1645 174 1645 123 c 2,57,-1
 1645 -391 l 2,58,59
 1645 -441 1645 -441 1608.5 -477.5 c 128,-1,60
 1572 -514 1572 -514 1521 -514 c 2,61,-1
 1213 -514 l 2,62,63
 1189 -514 1189 -514 1153 -493.5 c 128,-1,64
 1117 -473 1117 -473 1072 -436 c 2,65,-1
 820 -240 l 1,66,-1
 613 -438 l 2,67,68
 578 -475 578 -475 541 -494.5 c 128,-1,69
 504 -514 504 -514 473 -514 c 2,70,-1
 186 -514 l 2,71,72
 125 -514 125 -514 83 -477.5 c 128,-1,73
 41 -441 41 -441 41 -391 c 2,0,-1
104 -391 m 2,74,75
 104 -416 104 -416 128 -434.5 c 128,-1,76
 152 -453 152 -453 186 -453 c 2,77,-1
 473 -453 l 2,78,79
 494 -453 494 -453 525.5 -435.5 c 128,-1,80
 557 -418 557 -418 590 -385 c 2,81,-1
 781 -203 l 1,82,-1
 297 186 l 1,83,-1
 166 186 l 2,84,85
 141 186 141 186 122.5 167 c 128,-1,86
 104 148 104 148 104 123 c 2,87,-1
 104 -391 l 2,74,75
383 186 m 1,88,-1
 822 -160 l 1,89,-1
 1205 186 l 1,90,-1
 383 186 l 1,88,-1
875 -207 m 1,91,-1
 1109 -387 l 2,92,93
 1133 -402 1133 -402 1166 -427.5 c 128,-1,94
 1199 -453 1199 -453 1213 -453 c 2,95,-1
 1521 -453 l 2,96,97
 1547 -453 1547 -453 1565.5 -434.5 c 128,-1,98
 1584 -416 1584 -416 1584 -391 c 2,99,-1
 1584 123 l 2,100,101
 1584 148 1584 148 1565.5 167 c 128,-1,102
 1547 186 1547 186 1521 186 c 2,103,-1
 1236 186 l 1,104,105
 1236 160 1236 160 1224.5 134.5 c 128,-1,106
 1213 109 1213 109 1189 86 c 2,107,-1
 875 -207 l 1,91,-1
617 545 m 2,108,109
 617 516 617 516 638.5 494.5 c 128,-1,110
 660 473 660 473 689 473 c 2,111,-1
 844 473 l 2,112,113
 869 473 869 473 887.5 497 c 128,-1,114
 906 521 906 521 906 555 c 2,115,-1
 906 719 l 1,116,-1
 680 719 l 2,117,118
 654 719 654 719 635.5 701.5 c 128,-1,119
 617 684 617 684 617 658 c 2,120,-1
 617 545 l 2,108,109
EndSplineSet
EndChar

StartChar: tm_ii
Encoding: 2952 2952 53
Width: 1133
GlyphClass: 2
Flags: W
LayerCount: 2
Fore
SplineSet
135 0 m 1,0,-1
 135 658 l 2,1,2
 135 709 135 709 171 745 c 128,-1,3
 207 781 207 781 258 781 c 2,4,-1
 1121 781 l 1,5,-1
 1121 719 l 1,6,-1
 711 719 l 1,7,-1
 711 0 l 1,8,-1
 648 0 l 1,9,-1
 648 719 l 1,10,-1
 258 719 l 2,11,12
 232 719 232 719 213.5 701.5 c 128,-1,13
 195 684 195 684 195 658 c 2,14,-1
 195 0 l 1,15,-1
 135 0 l 1,0,-1
340 350 m 0,16,17
 340 383 340 383 364.5 407.5 c 128,-1,18
 389 432 389 432 422 432 c 256,19,20
 455 432 455 432 479.5 407.5 c 128,-1,21
 504 383 504 383 504 350 c 0,22,23
 504 316 504 316 479.5 292 c 128,-1,24
 455 268 455 268 422 268 c 256,25,26
 389 268 389 268 364.5 292 c 128,-1,27
 340 316 340 316 340 350 c 0,16,17
854 350 m 0,28,29
 854 383 854 383 878 407.5 c 128,-1,30
 902 432 902 432 936 432 c 0,31,32
 969 432 969 432 993.5 407.5 c 128,-1,33
 1018 383 1018 383 1018 350 c 0,34,35
 1018 316 1018 316 993.5 292 c 128,-1,36
 969 268 969 268 936 268 c 0,37,38
 902 268 902 268 878 292 c 128,-1,39
 854 316 854 316 854 350 c 0,28,29
EndSplineSet
EndChar

StartChar: tm_u
Encoding: 2953 2953 54
Width: 1299
GlyphClass: 2
Flags: W
LayerCount: 2
Fore
SplineSet
156 555 m 2,0,1
 156 529 156 529 174.5 511.5 c 128,-1,2
 193 494 193 494 219 494 c 2,3,-1
 342 494 l 2,4,5
 367 494 367 494 385.5 511.5 c 128,-1,6
 404 529 404 529 404 555 c 2,7,-1
 404 719 l 1,8,-1
 219 719 l 2,9,10
 193 719 193 719 174.5 701.5 c 128,-1,11
 156 684 156 684 156 658 c 2,12,-1
 156 555 l 2,0,1
96 555 m 2,13,-1
 96 658 l 2,14,15
 96 709 96 709 132 745 c 128,-1,16
 168 781 168 781 219 781 c 2,17,-1
 650 781 l 2,18,19
 701 781 701 781 737 745 c 128,-1,20
 773 709 773 709 773 658 c 2,21,-1
 773 350 l 2,22,23
 773 299 773 299 737 263 c 128,-1,24
 701 227 701 227 650 227 c 2,25,-1
 219 227 l 2,26,27
 193 227 193 227 174.5 208 c 128,-1,28
 156 189 156 189 156 164 c 2,29,-1
 156 123 l 2,30,31
 156 98 156 98 174.5 80 c 128,-1,32
 193 62 193 62 219 62 c 2,33,-1
 1287 62 l 1,34,-1
 1287 0 l 1,35,-1
 219 0 l 2,36,37
 168 0 168 0 132 36 c 128,-1,38
 96 72 96 72 96 123 c 2,39,-1
 96 164 l 2,40,41
 96 215 96 215 132 251 c 128,-1,42
 168 287 168 287 219 287 c 2,43,-1
 650 287 l 2,44,45
 676 287 676 287 694.5 305.5 c 128,-1,46
 713 324 713 324 713 350 c 2,47,-1
 713 658 l 2,48,49
 713 684 713 684 694.5 701.5 c 128,-1,50
 676 719 676 719 650 719 c 2,51,-1
 465 719 l 1,52,-1
 465 555 l 2,53,54
 465 504 465 504 429 468 c 128,-1,55
 393 432 393 432 342 432 c 2,56,-1
 219 432 l 2,57,58
 168 432 168 432 132 468 c 128,-1,59
 96 504 96 504 96 555 c 2,13,-1
EndSplineSet
EndChar

StartChar: tm_uu
Encoding: 2954 2954 55
Width: 1863
GlyphClass: 2
Flags: W
LayerCount: 2
Fore
SplineSet
156 555 m 2,0,1
 156 529 156 529 174.5 511.5 c 128,-1,2
 193 494 193 494 219 494 c 2,3,-1
 342 494 l 2,4,5
 367 494 367 494 385.5 511.5 c 128,-1,6
 404 529 404 529 404 555 c 2,7,-1
 404 719 l 1,8,-1
 219 719 l 2,9,10
 193 719 193 719 174.5 701.5 c 128,-1,11
 156 684 156 684 156 658 c 2,12,-1
 156 555 l 2,0,1
96 555 m 2,13,-1
 96 658 l 2,14,15
 96 709 96 709 132 745 c 128,-1,16
 168 781 168 781 219 781 c 2,17,-1
 650 781 l 2,18,19
 701 781 701 781 737 745 c 128,-1,20
 773 709 773 709 773 658 c 2,21,-1
 773 350 l 2,22,23
 773 299 773 299 737 263 c 128,-1,24
 701 227 701 227 650 227 c 2,25,-1
 219 227 l 2,26,27
 193 227 193 227 174.5 208 c 128,-1,28
 156 189 156 189 156 164 c 2,29,-1
 156 123 l 2,30,31
 156 98 156 98 174.5 80 c 128,-1,32
 193 62 193 62 219 62 c 2,33,-1
 1834 62 l 1,34,-1
 1834 0 l 1,35,-1
 219 0 l 2,36,37
 168 0 168 0 132 36 c 128,-1,38
 96 72 96 72 96 123 c 2,39,-1
 96 164 l 2,40,41
 96 215 96 215 132 251 c 128,-1,42
 168 287 168 287 219 287 c 2,43,-1
 650 287 l 2,44,45
 676 287 676 287 694.5 305.5 c 128,-1,46
 713 324 713 324 713 350 c 2,47,-1
 713 658 l 2,48,49
 713 684 713 684 694.5 701.5 c 128,-1,50
 676 719 676 719 650 719 c 2,51,-1
 465 719 l 1,52,-1
 465 555 l 2,53,54
 465 504 465 504 429 468 c 128,-1,55
 393 432 393 432 342 432 c 2,56,-1
 219 432 l 2,57,58
 168 432 168 432 132 468 c 128,-1,59
 96 504 96 504 96 555 c 2,13,-1
918 350 m 2,60,-1
 918 658 l 2,61,62
 918 709 918 709 954 745 c 128,-1,63
 990 781 990 781 1041 781 c 2,64,-1
 1328 781 l 2,65,66
 1350 781 1350 781 1372.5 755.5 c 128,-1,67
 1395 730 1395 730 1410 689 c 1,68,-1
 1410 781 l 1,69,-1
 1844 781 l 1,70,-1
 1844 719 l 1,71,-1
 1699 719 l 1,72,-1
 1699 205 l 1,73,-1
 1637 205 l 1,74,-1
 1637 719 l 1,75,-1
 1473 719 l 1,76,-1
 1473 205 l 1,77,-1
 1410 205 l 1,78,-1
 1410 637 l 2,79,80
 1410 664 1410 664 1382.5 691.5 c 128,-1,81
 1355 719 1355 719 1328 719 c 2,82,-1
 1041 719 l 2,83,84
 1016 719 1016 719 997.5 701.5 c 128,-1,85
 979 684 979 684 979 658 c 2,86,-1
 979 555 l 1,87,-1
 1123 555 l 2,88,89
 1184 555 1184 555 1226 518.5 c 128,-1,90
 1268 482 1268 482 1268 432 c 2,91,-1
 1268 328 l 2,92,93
 1268 277 1268 277 1226 241 c 128,-1,94
 1184 205 1184 205 1123 205 c 2,95,-1
 1041 205 l 2,96,97
 990 205 990 205 954 247 c 128,-1,98
 918 289 918 289 918 350 c 2,60,-1
979 350 m 2,99,100
 979 316 979 316 997.5 292 c 128,-1,101
 1016 268 1016 268 1041 268 c 2,102,-1
 1123 268 l 2,103,104
 1156 268 1156 268 1180.5 285.5 c 128,-1,105
 1205 303 1205 303 1205 328 c 2,106,-1
 1205 432 l 2,107,108
 1205 457 1205 457 1180.5 475.5 c 128,-1,109
 1156 494 1156 494 1123 494 c 2,110,-1
 979 494 l 1,111,-1
 979 350 l 2,99,100
EndSplineSet
EndChar

StartChar: tm_e
Encoding: 2958 2958 56
Width: 1086
GlyphClass: 2
Flags: W
LayerCount: 2
Fore
SplineSet
129 145 m 2,0,-1
 129 658 l 2,1,2
 129 709 129 709 165 745 c 128,-1,3
 201 781 201 781 254 781 c 2,4,-1
 1078 781 l 1,5,-1
 1078 719 l 1,6,-1
 910 719 l 1,7,-1
 910 0 l 1,8,-1
 850 0 l 1,9,-1
 850 719 l 1,10,-1
 254 719 l 2,11,12
 229 719 229 719 210 701.5 c 128,-1,13
 191 684 191 684 191 658 c 2,14,-1
 191 473 l 1,15,-1
 418 473 l 2,16,17
 477 473 477 473 519 436.5 c 128,-1,18
 561 400 561 400 561 350 c 2,19,-1
 561 123 l 2,20,21
 561 72 561 72 524.5 36 c 128,-1,22
 488 0 488 0 437 0 c 2,23,-1
 254 0 l 2,24,25
 201 0 201 0 165 42 c 128,-1,26
 129 84 129 84 129 145 c 2,0,-1
191 145 m 2,27,28
 191 111 191 111 210 86.5 c 128,-1,29
 229 62 229 62 254 62 c 2,30,-1
 437 62 l 2,31,32
 463 62 463 62 481.5 80 c 128,-1,33
 500 98 500 98 500 123 c 2,34,-1
 500 350 l 2,35,36
 500 383 500 383 475.5 407.5 c 128,-1,37
 451 432 451 432 418 432 c 2,38,-1
 191 432 l 1,39,-1
 191 145 l 2,27,28
EndSplineSet
EndChar

StartChar: tm_ee
Encoding: 2959 2959 57
Width: 1008
GlyphClass: 2
Flags: W
LayerCount: 2
Fore
SplineSet
129 145 m 2,0,-1
 129 658 l 2,1,2
 129 709 129 709 165 745 c 128,-1,3
 201 781 201 781 254 781 c 2,4,-1
 1000 781 l 1,5,-1
 1000 719 l 1,6,-1
 809 719 l 1,7,-1
 809 21 l 2,8,9
 809 6 809 6 794 -17.5 c 128,-1,10
 779 -41 779 -41 752 -68 c 2,11,-1
 615 -205 l 1,12,-1
 539 -205 l 1,13,-1
 668 -76 l 2,14,15
 705 -39 705 -39 725.5 -9 c 128,-1,16
 746 21 746 21 746 41 c 2,17,-1
 746 719 l 1,18,-1
 254 719 l 2,19,20
 229 719 229 719 210 701.5 c 128,-1,21
 191 684 191 684 191 658 c 2,22,-1
 191 473 l 1,23,-1
 418 473 l 2,24,25
 477 473 477 473 519 436.5 c 128,-1,26
 561 400 561 400 561 350 c 2,27,-1
 561 123 l 2,28,29
 561 72 561 72 524.5 36 c 128,-1,30
 488 0 488 0 437 0 c 2,31,-1
 254 0 l 2,32,33
 201 0 201 0 165 42 c 128,-1,34
 129 84 129 84 129 145 c 2,0,-1
191 145 m 2,35,36
 191 111 191 111 210 86.5 c 128,-1,37
 229 62 229 62 254 62 c 2,38,-1
 437 62 l 2,39,40
 463 62 463 62 481.5 80 c 128,-1,41
 500 98 500 98 500 123 c 2,42,-1
 500 350 l 2,43,44
 500 383 500 383 475.5 407.5 c 128,-1,45
 451 432 451 432 418 432 c 2,46,-1
 191 432 l 1,47,-1
 191 145 l 2,35,36
EndSplineSet
EndChar

StartChar: tm_ai
Encoding: 2960 2960 58
Width: 1441
GlyphClass: 2
Flags: W
LayerCount: 2
Fore
SplineSet
115 205 m 2,0,-1
 115 658 l 2,1,2
 115 709 115 709 151 745 c 128,-1,3
 187 781 187 781 238 781 c 2,4,-1
 607 781 l 2,5,6
 656 781 656 781 699 755.5 c 128,-1,7
 742 730 742 730 768 687 c 1,8,9
 779 729 779 729 823 755 c 128,-1,10
 867 781 867 781 924 781 c 2,11,-1
 1184 781 l 2,12,13
 1234 781 1234 781 1270.5 739 c 128,-1,14
 1307 697 1307 697 1307 637 c 2,15,-1
 1307 21 l 2,16,17
 1307 -31 1307 -31 1270.5 -67.5 c 128,-1,18
 1234 -104 1234 -104 1184 -104 c 2,19,-1
 238 -104 l 2,20,21
 213 -104 213 -104 194.5 -121.5 c 128,-1,22
 176 -139 176 -139 176 -164 c 2,23,-1
 176 -494 l 2,24,25
 176 -520 176 -520 194.5 -537.5 c 128,-1,26
 213 -555 213 -555 238 -555 c 2,27,-1
 607 -555 l 2,28,29
 633 -555 633 -555 651.5 -537.5 c 128,-1,30
 670 -520 670 -520 670 -494 c 2,31,-1
 670 -246 l 1,32,-1
 732 -246 l 1,33,-1
 732 -494 l 2,34,35
 732 -520 732 -520 756.5 -537.5 c 128,-1,36
 781 -555 781 -555 814 -555 c 2,37,-1
 1164 -555 l 2,38,39
 1197 -555 1197 -555 1221.5 -537.5 c 128,-1,40
 1246 -520 1246 -520 1246 -494 c 2,41,-1
 1246 -246 l 1,42,-1
 1307 -246 l 1,43,-1
 1307 -494 l 2,44,45
 1307 -545 1307 -545 1265 -581 c 128,-1,46
 1223 -617 1223 -617 1164 -617 c 2,47,-1
 814 -617 l 2,48,49
 785 -617 785 -617 755 -601.5 c 128,-1,50
 725 -586 725 -586 701 -557 c 1,51,52
 678 -586 678 -586 652.5 -601.5 c 128,-1,53
 627 -617 627 -617 607 -617 c 2,54,-1
 238 -617 l 2,55,56
 187 -617 187 -617 151 -581 c 128,-1,57
 115 -545 115 -545 115 -494 c 2,58,-1
 115 -164 l 2,59,60
 115 -113 115 -113 151 -77 c 128,-1,61
 187 -41 187 -41 238 -41 c 2,62,-1
 1184 -41 l 2,63,64
 1209 -41 1209 -41 1227.5 -22.5 c 128,-1,65
 1246 -4 1246 -4 1246 21 c 2,66,-1
 1246 637 l 2,67,68
 1246 670 1246 670 1227.5 694.5 c 128,-1,69
 1209 719 1209 719 1184 719 c 2,70,-1
 924 719 l 2,71,72
 869 719 869 719 831 682.5 c 128,-1,73
 793 646 793 646 793 596 c 2,74,-1
 793 82 l 1,75,-1
 732 82 l 1,76,-1
 732 596 l 2,77,78
 732 646 732 646 696 682.5 c 128,-1,79
 660 719 660 719 607 719 c 2,80,-1
 238 719 l 2,81,82
 213 719 213 719 194.5 701.5 c 128,-1,83
 176 684 176 684 176 658 c 2,84,-1
 176 576 l 1,85,-1
 402 576 l 2,86,87
 463 576 463 576 505 534 c 128,-1,88
 547 492 547 492 547 432 c 2,89,-1
 547 227 l 2,90,91
 547 166 547 166 505 124 c 128,-1,92
 463 82 463 82 402 82 c 2,93,-1
 238 82 l 2,94,95
 187 82 187 82 151 118 c 128,-1,96
 115 154 115 154 115 205 c 2,0,-1
176 205 m 2,97,98
 176 180 176 180 194.5 162.5 c 128,-1,99
 213 145 213 145 238 145 c 2,100,-1
 402 145 l 2,101,102
 436 145 436 145 460 169 c 128,-1,103
 484 193 484 193 484 227 c 2,104,-1
 484 432 l 2,105,106
 484 465 484 465 460 489.5 c 128,-1,107
 436 514 436 514 402 514 c 2,108,-1
 176 514 l 1,109,-1
 176 205 l 2,97,98
EndSplineSet
EndChar

StartChar: tm_o
Encoding: 2962 2962 59
Width: 1164
GlyphClass: 2
Flags: W
LayerCount: 2
Fore
SplineSet
129 145 m 2,0,-1
 129 658 l 2,1,2
 129 709 129 709 165 745 c 128,-1,3
 201 781 201 781 252 781 c 2,4,-1
 910 781 l 2,5,6
 961 781 961 781 997 745 c 128,-1,7
 1033 709 1033 709 1033 658 c 2,8,-1
 1033 123 l 2,9,10
 1033 72 1033 72 997 36 c 128,-1,11
 961 0 961 0 910 0 c 2,12,-1
 787 0 l 2,13,14
 777 0 777 0 760.5 9 c 128,-1,15
 744 18 744 18 725 35 c 1,16,-1
 725 -82 l 2,17,18
 725 -107 725 -107 743.5 -126 c 128,-1,19
 762 -145 762 -145 787 -145 c 2,20,-1
 1033 -145 l 1,21,-1
 1033 -205 l 1,22,-1
 951 -205 l 2,23,24
 918 -205 918 -205 893.5 -229.5 c 128,-1,25
 869 -254 869 -254 869 -287 c 2,26,-1
 869 -494 l 2,27,28
 869 -545 869 -545 833 -581 c 128,-1,29
 797 -617 797 -617 746 -617 c 2,30,-1
 252 -617 l 2,31,32
 201 -617 201 -617 165 -581 c 128,-1,33
 129 -545 129 -545 129 -494 c 2,34,-1
 129 -350 l 2,35,36
 129 -299 129 -299 165 -263 c 128,-1,37
 201 -227 201 -227 252 -227 c 2,38,-1
 334 -227 l 1,39,-1
 334 -287 l 1,40,-1
 252 -287 l 2,41,42
 227 -287 227 -287 208 -305.5 c 128,-1,43
 189 -324 189 -324 189 -350 c 2,44,-1
 189 -494 l 2,45,46
 189 -520 189 -520 208 -537.5 c 128,-1,47
 227 -555 227 -555 252 -555 c 2,48,-1
 746 -555 l 2,49,50
 771 -555 771 -555 789 -537.5 c 128,-1,51
 807 -520 807 -520 807 -494 c 2,52,-1
 807 -287 l 2,53,54
 807 -264 807 -264 829.5 -241.5 c 128,-1,55
 852 -219 852 -219 889 -205 c 1,56,-1
 787 -205 l 2,57,58
 736 -205 736 -205 700 -169 c 128,-1,59
 664 -133 664 -133 664 -82 c 2,60,-1
 664 328 l 2,61,62
 664 381 664 381 700 417 c 128,-1,63
 736 453 736 453 787 453 c 2,64,-1
 807 453 l 1,65,-1
 807 391 l 1,66,-1
 787 391 l 2,67,68
 762 391 762 391 743.5 372.5 c 128,-1,69
 725 354 725 354 725 328 c 2,70,-1
 725 123 l 2,71,72
 725 98 725 98 743.5 80 c 128,-1,73
 762 62 762 62 787 62 c 2,74,-1
 910 62 l 2,75,76
 936 62 936 62 953.5 80 c 128,-1,77
 971 98 971 98 971 123 c 2,78,-1
 971 658 l 2,79,80
 971 684 971 684 953.5 701.5 c 128,-1,81
 936 719 936 719 910 719 c 2,82,-1
 252 719 l 2,83,84
 227 719 227 719 208 701.5 c 128,-1,85
 189 684 189 684 189 658 c 2,86,-1
 189 473 l 1,87,-1
 416 473 l 2,88,89
 477 473 477 473 519 436.5 c 128,-1,90
 561 400 561 400 561 350 c 2,91,-1
 561 123 l 2,92,93
 561 72 561 72 524.5 36 c 128,-1,94
 488 0 488 0 437 0 c 2,95,-1
 252 0 l 2,96,97
 201 0 201 0 165 42 c 128,-1,98
 129 84 129 84 129 145 c 2,0,-1
189 145 m 2,99,100
 189 111 189 111 208 86.5 c 128,-1,101
 227 62 227 62 252 62 c 2,102,-1
 437 62 l 2,103,104
 463 62 463 62 480.5 80 c 128,-1,105
 498 98 498 98 498 123 c 2,106,-1
 498 350 l 2,107,108
 498 383 498 383 473.5 407.5 c 128,-1,109
 449 432 449 432 416 432 c 2,110,-1
 189 432 l 1,111,-1
 189 145 l 2,99,100
EndSplineSet
EndChar

StartChar: tm_oo
Encoding: 2963 2963 60
Width: 1164
GlyphClass: 2
Flags: W
LayerCount: 2
Fore
SplineSet
129 145 m 2,0,-1
 129 658 l 2,1,2
 129 709 129 709 165 745 c 128,-1,3
 201 781 201 781 252 781 c 2,4,-1
 910 781 l 2,5,6
 961 781 961 781 997 745 c 128,-1,7
 1033 709 1033 709 1033 658 c 2,8,-1
 1033 123 l 2,9,10
 1033 72 1033 72 997 36 c 128,-1,11
 961 0 961 0 910 0 c 2,12,-1
 787 0 l 2,13,14
 777 0 777 0 760.5 9 c 128,-1,15
 744 18 744 18 725 35 c 1,16,-1
 725 -82 l 2,17,18
 725 -107 725 -107 743.5 -126 c 128,-1,19
 762 -145 762 -145 787 -145 c 2,20,-1
 1033 -145 l 1,21,-1
 1033 -205 l 1,22,-1
 951 -205 l 2,23,24
 918 -205 918 -205 893.5 -229.5 c 128,-1,25
 869 -254 869 -254 869 -287 c 2,26,-1
 869 -494 l 2,27,28
 869 -545 869 -545 833 -581 c 128,-1,29
 797 -617 797 -617 746 -617 c 2,30,-1
 252 -617 l 2,31,32
 201 -617 201 -617 165 -581 c 128,-1,33
 129 -545 129 -545 129 -494 c 2,34,-1
 129 -350 l 2,35,36
 129 -299 129 -299 165 -263 c 128,-1,37
 201 -227 201 -227 252 -227 c 2,38,-1
 375 -227 l 2,39,40
 426 -227 426 -227 462 -263 c 128,-1,41
 498 -299 498 -299 498 -350 c 2,42,-1
 498 -555 l 1,43,-1
 746 -555 l 2,44,45
 771 -555 771 -555 789 -537.5 c 128,-1,46
 807 -520 807 -520 807 -494 c 2,47,-1
 807 -287 l 2,48,49
 807 -264 807 -264 829.5 -241.5 c 128,-1,50
 852 -219 852 -219 889 -205 c 1,51,-1
 787 -205 l 2,52,53
 734 -205 734 -205 698 -169 c 128,-1,54
 662 -133 662 -133 662 -82 c 2,55,-1
 662 328 l 2,56,57
 662 381 662 381 698 417 c 128,-1,58
 734 453 734 453 787 453 c 2,59,-1
 807 453 l 1,60,-1
 807 391 l 1,61,-1
 787 391 l 2,62,63
 762 391 762 391 743.5 372.5 c 128,-1,64
 725 354 725 354 725 328 c 2,65,-1
 725 123 l 2,66,67
 725 98 725 98 743.5 80 c 128,-1,68
 762 62 762 62 787 62 c 2,69,-1
 910 62 l 2,70,71
 936 62 936 62 953.5 80 c 128,-1,72
 971 98 971 98 971 123 c 2,73,-1
 971 658 l 2,74,75
 971 684 971 684 953.5 701.5 c 128,-1,76
 936 719 936 719 910 719 c 2,77,-1
 252 719 l 2,78,79
 227 719 227 719 208 701.5 c 128,-1,80
 189 684 189 684 189 658 c 2,81,-1
 189 473 l 1,82,-1
 416 473 l 2,83,84
 477 473 477 473 519 442.5 c 128,-1,85
 561 412 561 412 561 369 c 2,86,-1
 561 123 l 2,87,88
 561 72 561 72 524.5 36 c 128,-1,89
 488 0 488 0 437 0 c 2,90,-1
 252 0 l 2,91,92
 201 0 201 0 165 42 c 128,-1,93
 129 84 129 84 129 145 c 2,0,-1
189 145 m 2,94,95
 189 111 189 111 208 86.5 c 128,-1,96
 227 62 227 62 252 62 c 2,97,-1
 437 62 l 2,98,99
 463 62 463 62 480.5 80 c 128,-1,100
 498 98 498 98 498 123 c 2,101,-1
 498 369 l 2,102,103
 498 387 498 387 473.5 399.5 c 128,-1,104
 449 412 449 412 416 412 c 2,105,-1
 189 412 l 1,106,-1
 189 145 l 2,94,95
375 -287 m 2,107,-1
 252 -287 l 2,108,109
 227 -287 227 -287 208 -305.5 c 128,-1,110
 189 -324 189 -324 189 -350 c 2,111,-1
 189 -494 l 2,112,113
 189 -520 189 -520 208 -537.5 c 128,-1,114
 227 -555 227 -555 252 -555 c 2,115,-1
 437 -555 l 1,116,-1
 437 -350 l 2,117,118
 437 -324 437 -324 418.5 -305.5 c 128,-1,119
 400 -287 400 -287 375 -287 c 2,107,-1
EndSplineSet
EndChar

StartChar: tm_ka
Encoding: 2965 2965 62
Width: 1129
GlyphClass: 2
Flags: W
LayerCount: 2
Fore
SplineSet
70 145 m 2,0,-1
 70 320 l 2,1,2
 70 371 70 371 106.5 407 c 128,-1,3
 143 443 143 443 195 443 c 2,4,-1
 236 443 l 1,5,-1
 236 658 l 2,6,7
 236 709 236 709 272.5 745 c 128,-1,8
 309 781 309 781 359 781 c 2,9,-1
 914 781 l 1,10,-1
 914 719 l 1,11,-1
 646 719 l 1,12,-1
 646 443 l 1,13,-1
 936 443 l 2,14,15
 986 443 986 443 1022.5 407 c 128,-1,16
 1059 371 1059 371 1059 320 c 2,17,-1
 1059 123 l 2,18,19
 1059 72 1059 72 1022.5 36 c 128,-1,20
 986 0 986 0 936 0 c 2,21,-1
 811 0 l 1,22,-1
 811 62 l 1,23,-1
 936 62 l 2,24,25
 961 62 961 62 978.5 80 c 128,-1,26
 996 98 996 98 996 123 c 2,27,-1
 996 320 l 2,28,29
 996 346 996 346 978.5 364.5 c 128,-1,30
 961 383 961 383 936 383 c 2,31,-1
 646 383 l 1,32,-1
 646 123 l 2,33,34
 646 72 646 72 610 36 c 128,-1,35
 574 0 574 0 523 0 c 2,36,-1
 215 0 l 2,37,38
 154 0 154 0 112 42 c 128,-1,39
 70 84 70 84 70 145 c 2,0,-1
133 145 m 2,40,41
 133 111 133 111 157.5 86.5 c 128,-1,42
 182 62 182 62 215 62 c 2,43,-1
 523 62 l 2,44,45
 549 62 549 62 567.5 80 c 128,-1,46
 586 98 586 98 586 123 c 2,47,-1
 586 383 l 1,48,-1
 195 383 l 2,49,50
 170 383 170 383 151.5 364.5 c 128,-1,51
 133 346 133 346 133 320 c 2,52,-1
 133 145 l 2,40,41
297 443 m 1,53,-1
 586 443 l 1,54,-1
 586 719 l 1,55,-1
 359 719 l 2,56,57
 334 719 334 719 315.5 701.5 c 128,-1,58
 297 684 297 684 297 658 c 2,59,-1
 297 443 l 1,53,-1
EndSplineSet
EndChar

StartChar: tm_nga
Encoding: 2969 2969 63
Width: 1604
GlyphClass: 2
Flags: W
LayerCount: 2
Fore
SplineSet
135 0 m 1,0,-1
 135 658 l 2,1,2
 135 709 135 709 171 745 c 128,-1,3
 207 781 207 781 258 781 c 2,4,-1
 916 781 l 1,5,-1
 916 719 l 1,6,-1
 607 719 l 1,7,-1
 607 414 l 1,8,9
 631 434 631 434 651.5 443.5 c 128,-1,10
 672 453 672 453 689 453 c 2,11,-1
 895 453 l 2,12,13
 945 453 945 453 981.5 417 c 128,-1,14
 1018 381 1018 381 1018 328 c 2,15,-1
 1018 145 l 2,16,17
 1018 121 1018 121 1008 99.5 c 128,-1,18
 998 78 998 78 979 62 c 1,19,-1
 1348 62 l 2,20,21
 1373 62 1373 62 1390.5 80 c 128,-1,22
 1408 98 1408 98 1408 123 c 2,23,-1
 1408 781 l 1,24,-1
 1471 781 l 1,25,-1
 1471 123 l 2,26,27
 1471 72 1471 72 1434.5 36 c 128,-1,28
 1398 0 1398 0 1348 0 c 2,29,-1
 545 0 l 1,30,-1
 545 62 l 1,31,-1
 875 62 l 2,32,33
 908 62 908 62 932.5 86.5 c 128,-1,34
 957 111 957 111 957 145 c 2,35,-1
 957 328 l 2,36,37
 957 354 957 354 938.5 372.5 c 128,-1,38
 920 391 920 391 895 391 c 2,39,-1
 689 391 l 2,40,41
 656 391 656 391 631.5 372.5 c 128,-1,42
 607 354 607 354 607 328 c 2,43,-1
 607 211 l 1,44,-1
 545 211 l 1,45,-1
 545 719 l 1,46,-1
 258 719 l 2,47,48
 232 719 232 719 213.5 701.5 c 128,-1,49
 195 684 195 684 195 658 c 2,50,-1
 195 0 l 1,51,-1
 135 0 l 1,0,-1
EndSplineSet
EndChar

StartChar: tm_ca
Encoding: 2970 2970 64
Width: 928
GlyphClass: 2
Flags: W
LayerCount: 2
Fore
SplineSet
70 145 m 2,0,-1
 70 320 l 2,1,2
 70 371 70 371 106.5 407 c 128,-1,3
 143 443 143 443 195 443 c 2,4,-1
 236 443 l 1,5,-1
 236 658 l 2,6,7
 236 709 236 709 272.5 745 c 128,-1,8
 309 781 309 781 359 781 c 2,9,-1
 914 781 l 1,10,-1
 914 719 l 1,11,-1
 646 719 l 1,12,-1
 646 443 l 1,13,-1
 852 443 l 1,14,-1
 852 383 l 1,15,-1
 646 383 l 1,16,-1
 646 123 l 2,17,18
 646 72 646 72 610 36 c 128,-1,19
 574 0 574 0 523 0 c 2,20,-1
 215 0 l 2,21,22
 154 0 154 0 112 42 c 128,-1,23
 70 84 70 84 70 145 c 2,0,-1
133 145 m 2,24,25
 133 111 133 111 157.5 86.5 c 128,-1,26
 182 62 182 62 215 62 c 2,27,-1
 523 62 l 2,28,29
 549 62 549 62 567.5 80 c 128,-1,30
 586 98 586 98 586 123 c 2,31,-1
 586 383 l 1,32,-1
 195 383 l 2,33,34
 170 383 170 383 151.5 364.5 c 128,-1,35
 133 346 133 346 133 320 c 2,36,-1
 133 145 l 2,24,25
297 443 m 1,37,-1
 586 443 l 1,38,-1
 586 719 l 1,39,-1
 359 719 l 2,40,41
 334 719 334 719 315.5 701.5 c 128,-1,42
 297 684 297 684 297 658 c 2,43,-1
 297 443 l 1,37,-1
EndSplineSet
EndChar

StartChar: tm_ja
Encoding: 2972 2972 65
Width: 1441
GlyphClass: 2
Flags: W
LayerCount: 2
Fore
SplineSet
115 205 m 2,0,-1
 115 658 l 2,1,2
 115 709 115 709 151 745 c 128,-1,3
 187 781 187 781 238 781 c 2,4,-1
 637 781 l 2,5,6
 676 781 676 781 711 755.5 c 128,-1,7
 746 730 746 730 768 687 c 1,8,9
 783 730 783 730 818.5 755.5 c 128,-1,10
 854 781 854 781 895 781 c 2,11,-1
 1184 781 l 2,12,13
 1234 781 1234 781 1270.5 739 c 128,-1,14
 1307 697 1307 697 1307 637 c 2,15,-1
 1307 21 l 2,16,17
 1307 -31 1307 -31 1270.5 -67.5 c 128,-1,18
 1234 -104 1234 -104 1184 -104 c 2,19,-1
 238 -104 l 2,20,21
 213 -104 213 -104 194.5 -121.5 c 128,-1,22
 176 -139 176 -139 176 -164 c 2,23,-1
 176 -494 l 2,24,25
 176 -520 176 -520 194.5 -537.5 c 128,-1,26
 213 -555 213 -555 238 -555 c 2,27,-1
 279 -555 l 2,28,29
 295 -555 295 -555 316.5 -543 c 128,-1,30
 338 -531 338 -531 363 -510 c 2,31,-1
 652 -295 l 2,32,33
 680 -271 680 -271 711 -258.5 c 128,-1,34
 742 -246 742 -246 773 -246 c 2,35,-1
 1184 -246 l 2,36,37
 1234 -246 1234 -246 1270.5 -282 c 128,-1,38
 1307 -318 1307 -318 1307 -369 c 2,39,-1
 1307 -494 l 2,40,41
 1307 -545 1307 -545 1270.5 -581 c 128,-1,42
 1234 -617 1234 -617 1184 -617 c 2,43,-1
 1020 -617 l 2,44,45
 969 -617 969 -617 932.5 -581 c 128,-1,46
 896 -545 896 -545 896 -494 c 2,47,-1
 896 -391 l 1,48,-1
 957 -391 l 1,49,-1
 957 -494 l 2,50,51
 957 -520 957 -520 975.5 -537.5 c 128,-1,52
 994 -555 994 -555 1020 -555 c 2,53,-1
 1184 -555 l 2,54,55
 1209 -555 1209 -555 1227.5 -537.5 c 128,-1,56
 1246 -520 1246 -520 1246 -494 c 2,57,-1
 1246 -369 l 2,58,59
 1246 -344 1246 -344 1227.5 -326.5 c 128,-1,60
 1209 -309 1209 -309 1184 -309 c 2,61,-1
 773 -309 l 2,62,63
 744 -309 744 -309 714 -320.5 c 128,-1,64
 684 -332 684 -332 658 -354 c 2,65,-1
 369 -580 l 2,66,67
 348 -598 348 -598 324.5 -607.5 c 128,-1,68
 301 -617 301 -617 279 -617 c 2,69,-1
 197 -617 l 2,70,71
 164 -617 164 -617 139.5 -581 c 128,-1,72
 115 -545 115 -545 115 -494 c 2,73,-1
 115 -164 l 2,74,75
 115 -113 115 -113 151 -77 c 128,-1,76
 187 -41 187 -41 238 -41 c 2,77,-1
 1184 -41 l 2,78,79
 1209 -41 1209 -41 1227.5 -22.5 c 128,-1,80
 1246 -4 1246 -4 1246 21 c 2,81,-1
 1246 637 l 2,82,83
 1246 670 1246 670 1227.5 694.5 c 128,-1,84
 1209 719 1209 719 1184 719 c 2,85,-1
 895 719 l 2,86,87
 852 719 852 719 822.5 682.5 c 128,-1,88
 793 646 793 646 793 596 c 2,89,-1
 793 82 l 1,90,-1
 732 82 l 1,91,-1
 732 596 l 2,92,93
 732 646 732 646 701 682.5 c 128,-1,94
 670 719 670 719 627 719 c 2,95,-1
 238 719 l 2,96,97
 213 719 213 719 194.5 701.5 c 128,-1,98
 176 684 176 684 176 658 c 2,99,-1
 176 576 l 1,100,-1
 402 576 l 2,101,102
 463 576 463 576 505 534 c 128,-1,103
 547 492 547 492 547 432 c 2,104,-1
 547 227 l 2,105,106
 547 166 547 166 505 124 c 128,-1,107
 463 82 463 82 402 82 c 2,108,-1
 238 82 l 2,109,110
 187 82 187 82 151 118 c 128,-1,111
 115 154 115 154 115 205 c 2,0,-1
176 205 m 2,112,113
 176 180 176 180 194.5 162.5 c 128,-1,114
 213 145 213 145 238 145 c 2,115,-1
 402 145 l 2,116,117
 436 145 436 145 460 169 c 128,-1,118
 484 193 484 193 484 227 c 2,119,-1
 484 432 l 2,120,121
 484 465 484 465 460 489.5 c 128,-1,122
 436 514 436 514 402 514 c 2,123,-1
 176 514 l 1,124,-1
 176 205 l 2,112,113
EndSplineSet
EndChar

StartChar: tm_nya
Encoding: 2974 2974 66
Width: 1613
GlyphClass: 2
Flags: W
LayerCount: 2
Fore
SplineSet
443 145 m 2,0,-1
 443 658 l 2,1,2
 443 709 443 709 479.5 745 c 128,-1,3
 516 781 516 781 566 781 c 2,4,-1
 1430 781 l 1,5,-1
 1430 719 l 1,6,-1
 1121 719 l 1,7,-1
 1121 414 l 1,8,9
 1145 434 1145 434 1165.5 443.5 c 128,-1,10
 1186 453 1186 453 1203 453 c 2,11,-1
 1408 453 l 2,12,13
 1461 453 1461 453 1497 417 c 128,-1,14
 1533 381 1533 381 1533 328 c 2,15,-1
 1533 -164 l 2,16,17
 1533 -225 1533 -225 1497 -267 c 128,-1,18
 1461 -309 1461 -309 1408 -309 c 2,19,-1
 258 -309 l 2,20,21
 207 -309 207 -309 171 -272.5 c 128,-1,22
 135 -236 135 -236 135 -186 c 2,23,-1
 135 658 l 2,24,25
 135 709 135 709 171 745 c 128,-1,26
 207 781 207 781 258 781 c 2,27,-1
 299 781 l 1,28,-1
 299 719 l 1,29,-1
 258 719 l 2,30,31
 232 719 232 719 213.5 701.5 c 128,-1,32
 195 684 195 684 195 658 c 2,33,-1
 195 -186 l 2,34,35
 195 -211 195 -211 213.5 -228.5 c 128,-1,36
 232 -246 232 -246 258 -246 c 2,37,-1
 1408 -246 l 2,38,39
 1434 -246 1434 -246 1452.5 -221.5 c 128,-1,40
 1471 -197 1471 -197 1471 -164 c 2,41,-1
 1471 328 l 2,42,43
 1471 354 1471 354 1452.5 372.5 c 128,-1,44
 1434 391 1434 391 1408 391 c 2,45,-1
 1203 391 l 2,46,47
 1170 391 1170 391 1145.5 372.5 c 128,-1,48
 1121 354 1121 354 1121 328 c 2,49,-1
 1121 0 l 1,50,-1
 1059 0 l 1,51,-1
 1059 719 l 1,52,-1
 566 719 l 2,53,54
 541 719 541 719 522.5 701.5 c 128,-1,55
 504 684 504 684 504 658 c 2,56,-1
 504 473 l 1,57,-1
 730 473 l 2,58,59
 791 473 791 473 833 442.5 c 128,-1,60
 875 412 875 412 875 369 c 2,61,-1
 875 123 l 2,62,63
 875 72 875 72 839 36 c 128,-1,64
 803 0 803 0 752 0 c 2,65,-1
 566 0 l 2,66,67
 516 0 516 0 479.5 42 c 128,-1,68
 443 84 443 84 443 145 c 2,0,-1
504 145 m 2,69,70
 504 111 504 111 522.5 86.5 c 128,-1,71
 541 62 541 62 566 62 c 2,72,-1
 752 62 l 2,73,74
 777 62 777 62 794.5 80 c 128,-1,75
 812 98 812 98 812 123 c 2,76,-1
 812 369 l 2,77,78
 812 387 812 387 788 399.5 c 128,-1,79
 764 412 764 412 730 412 c 2,80,-1
 504 412 l 1,81,-1
 504 145 l 2,69,70
EndSplineSet
EndChar

StartChar: tm_tta
Encoding: 2975 2975 67
Width: 1459
GlyphClass: 2
Flags: W
LayerCount: 2
Fore
SplineSet
133 123 m 2,0,-1
 133 781 l 1,1,-1
 193 781 l 1,2,-1
 193 123 l 2,3,4
 193 98 193 98 211.5 80 c 128,-1,5
 230 62 230 62 256 62 c 2,6,-1
 1447 62 l 1,7,-1
 1447 0 l 1,8,-1
 256 0 l 2,9,10
 205 0 205 0 169 36 c 128,-1,11
 133 72 133 72 133 123 c 2,0,-1
EndSplineSet
EndChar

StartChar: tm_nna
Encoding: 2979 2979 68
Width: 2111
GlyphClass: 2
Flags: W
LayerCount: 2
Fore
SplineSet
129 145 m 2,0,-1
 129 658 l 2,1,2
 129 709 129 709 165 745 c 128,-1,3
 201 781 201 781 252 781 c 2,4,-1
 787 781 l 2,5,6
 801 781 801 781 826.5 770.5 c 128,-1,7
 852 760 852 760 889 738 c 1,8,9
 926 760 926 760 952.5 770.5 c 128,-1,10
 979 781 979 781 992 781 c 2,11,-1
 1301 781 l 2,12,13
 1314 781 1314 781 1339.5 770.5 c 128,-1,14
 1365 760 1365 760 1402 738 c 1,15,16
 1439 760 1439 760 1465.5 770.5 c 128,-1,17
 1492 781 1492 781 1506 781 c 2,18,-1
 2104 781 l 1,19,-1
 2104 719 l 1,20,-1
 1937 719 l 1,21,-1
 1937 0 l 1,22,-1
 1877 0 l 1,23,-1
 1877 719 l 1,24,-1
 1432 719 l 1,25,-1
 1564 602 l 2,26,27
 1576 592 1576 592 1582 574.5 c 128,-1,28
 1588 557 1588 557 1588 535 c 2,29,-1
 1588 123 l 2,30,31
 1588 72 1588 72 1552 36 c 128,-1,32
 1516 0 1516 0 1465 0 c 2,33,-1
 1342 0 l 2,34,35
 1291 0 1291 0 1255 36 c 128,-1,36
 1219 72 1219 72 1219 123 c 2,37,-1
 1219 535 l 2,38,39
 1219 559 1219 559 1230.5 582 c 128,-1,40
 1242 605 1242 605 1264 623 c 2,41,-1
 1377 719 l 1,42,-1
 918 719 l 1,43,-1
 1049 602 l 2,44,45
 1061 592 1061 592 1067.5 574.5 c 128,-1,46
 1074 557 1074 557 1074 535 c 2,47,-1
 1074 123 l 2,48,49
 1074 72 1074 72 1038 36 c 128,-1,50
 1002 0 1002 0 951 0 c 2,51,-1
 828 0 l 2,52,53
 777 0 777 0 741 36 c 128,-1,54
 705 72 705 72 705 123 c 2,55,-1
 705 535 l 2,56,57
 705 559 705 559 717 582 c 128,-1,58
 729 605 729 605 750 623 c 2,59,-1
 863 719 l 1,60,-1
 252 719 l 2,61,62
 227 719 227 719 208 701.5 c 128,-1,63
 189 684 189 684 189 658 c 2,64,-1
 189 473 l 1,65,-1
 416 473 l 2,66,67
 477 473 477 473 519 436.5 c 128,-1,68
 561 400 561 400 561 350 c 2,69,-1
 561 145 l 2,70,71
 561 84 561 84 519 42 c 128,-1,72
 477 0 477 0 416 0 c 2,73,-1
 252 0 l 2,74,75
 201 0 201 0 165 42 c 128,-1,76
 129 84 129 84 129 145 c 2,0,-1
189 145 m 2,77,78
 189 111 189 111 208 86.5 c 128,-1,79
 227 62 227 62 252 62 c 2,80,-1
 416 62 l 2,81,82
 449 62 449 62 473.5 86.5 c 128,-1,83
 498 111 498 111 498 145 c 2,84,-1
 498 350 l 2,85,86
 498 375 498 375 473.5 393.5 c 128,-1,87
 449 412 449 412 416 412 c 2,88,-1
 189 412 l 1,89,-1
 189 145 l 2,77,78
766 123 m 2,90,91
 766 98 766 98 784.5 80 c 128,-1,92
 803 62 803 62 828 62 c 2,93,-1
 951 62 l 2,94,95
 977 62 977 62 994.5 80 c 128,-1,96
 1012 98 1012 98 1012 123 c 2,97,-1
 1012 535 l 2,98,99
 1012 559 1012 559 976.5 593 c 128,-1,100
 941 627 941 627 879 662 c 1,101,102
 826 631 826 631 796 597.5 c 128,-1,103
 766 564 766 564 766 535 c 2,104,-1
 766 123 l 2,90,91
1279 123 m 2,105,106
 1279 98 1279 98 1297.5 80 c 128,-1,107
 1316 62 1316 62 1342 62 c 2,108,-1
 1465 62 l 2,109,110
 1490 62 1490 62 1508.5 80 c 128,-1,111
 1527 98 1527 98 1527 123 c 2,112,-1
 1527 535 l 2,113,114
 1527 559 1527 559 1491 592 c 128,-1,115
 1455 625 1455 625 1393 662 c 1,116,117
 1340 631 1340 631 1309.5 597.5 c 128,-1,118
 1279 564 1279 564 1279 535 c 2,119,-1
 1279 123 l 2,105,106
EndSplineSet
EndChar

StartChar: tm_ta
Encoding: 2980 2980 69
Width: 1057
GlyphClass: 2
Flags: W
LayerCount: 2
Fore
SplineSet
70 145 m 2,0,-1
 70 320 l 2,1,2
 70 371 70 371 106.5 407 c 128,-1,3
 143 443 143 443 195 443 c 2,4,-1
 236 443 l 1,5,-1
 236 658 l 2,6,7
 236 709 236 709 272.5 745 c 128,-1,8
 309 781 309 781 359 781 c 2,9,-1
 914 781 l 1,10,-1
 914 719 l 1,11,-1
 646 719 l 1,12,-1
 646 443 l 1,13,-1
 852 443 l 2,14,15
 904 443 904 443 940.5 407 c 128,-1,16
 977 371 977 371 977 320 c 2,17,-1
 977 -104 l 2,18,19
 977 -154 977 -154 940.5 -190.5 c 128,-1,20
 904 -227 904 -227 852 -227 c 2,21,-1
 121 -227 l 2,22,23
 96 -227 96 -227 78.5 -244.5 c 128,-1,24
 61 -262 61 -262 61 -287 c 2,25,-1
 61 -387 l 1,26,-1
 -2 -387 l 1,27,-1
 -2 -287 l 2,28,29
 -2 -236 -2 -236 34 -200 c 128,-1,30
 70 -164 70 -164 121 -164 c 2,31,-1
 852 -164 l 2,32,33
 877 -164 877 -164 895.5 -146.5 c 128,-1,34
 914 -129 914 -129 914 -104 c 2,35,-1
 914 320 l 2,36,37
 914 346 914 346 895.5 364.5 c 128,-1,38
 877 383 877 383 852 383 c 2,39,-1
 646 383 l 1,40,-1
 646 123 l 2,41,42
 646 72 646 72 610 36 c 128,-1,43
 574 0 574 0 523 0 c 2,44,-1
 215 0 l 2,45,46
 154 0 154 0 112 42 c 128,-1,47
 70 84 70 84 70 145 c 2,0,-1
133 145 m 2,48,49
 133 111 133 111 157.5 86.5 c 128,-1,50
 182 62 182 62 215 62 c 2,51,-1
 523 62 l 2,52,53
 549 62 549 62 567.5 80 c 128,-1,54
 586 98 586 98 586 123 c 2,55,-1
 586 383 l 1,56,-1
 195 383 l 2,57,58
 170 383 170 383 151.5 364.5 c 128,-1,59
 133 346 133 346 133 320 c 2,60,-1
 133 145 l 2,48,49
297 443 m 1,61,-1
 586 443 l 1,62,-1
 586 719 l 1,63,-1
 359 719 l 2,64,65
 334 719 334 719 315.5 701.5 c 128,-1,66
 297 684 297 684 297 658 c 2,67,-1
 297 443 l 1,61,-1
EndSplineSet
EndChar

StartChar: tm_na
Encoding: 2984 2984 70
Width: 1098
GlyphClass: 2
Flags: W
LayerCount: 2
Fore
SplineSet
135 0 m 1,0,-1
 135 658 l 2,1,2
 135 709 135 709 171 745 c 128,-1,3
 207 781 207 781 258 781 c 2,4,-1
 916 781 l 1,5,-1
 916 719 l 1,6,-1
 607 719 l 1,7,-1
 607 453 l 1,8,-1
 895 453 l 2,9,10
 945 453 945 453 981.5 417 c 128,-1,11
 1018 381 1018 381 1018 328 c 2,12,-1
 1018 -104 l 2,13,14
 1018 -154 1018 -154 981.5 -190.5 c 128,-1,15
 945 -227 945 -227 895 -227 c 2,16,-1
 141 -227 l 2,17,18
 115 -227 115 -227 96.5 -244.5 c 128,-1,19
 78 -262 78 -262 78 -287 c 2,20,-1
 78 -387 l 1,21,-1
 18 -387 l 1,22,-1
 18 -287 l 2,23,24
 18 -236 18 -236 54 -200 c 128,-1,25
 90 -164 90 -164 141 -164 c 2,26,-1
 895 -164 l 2,27,28
 920 -164 920 -164 938.5 -146.5 c 128,-1,29
 957 -129 957 -129 957 -104 c 2,30,-1
 957 328 l 2,31,32
 957 354 957 354 938.5 372.5 c 128,-1,33
 920 391 920 391 895 391 c 2,34,-1
 607 391 l 1,35,-1
 607 0 l 1,36,-1
 545 0 l 1,37,-1
 545 719 l 1,38,-1
 258 719 l 2,39,40
 232 719 232 719 213.5 701.5 c 128,-1,41
 195 684 195 684 195 658 c 2,42,-1
 195 0 l 1,43,-1
 135 0 l 1,0,-1
EndSplineSet
EndChar

StartChar: tm_nnna
Encoding: 2985 2985 71
Width: 1637
GlyphClass: 2
Flags: W
LayerCount: 2
Fore
SplineSet
129 145 m 2,0,-1
 129 658 l 2,1,2
 129 709 129 709 165 745 c 128,-1,3
 201 781 201 781 252 781 c 2,4,-1
 787 781 l 2,5,6
 801 781 801 781 826.5 770.5 c 128,-1,7
 852 760 852 760 889 738 c 1,8,9
 926 760 926 760 952.5 770.5 c 128,-1,10
 979 781 979 781 992 781 c 2,11,-1
 1629 781 l 1,12,-1
 1629 719 l 1,13,-1
 1424 719 l 1,14,-1
 1424 0 l 1,15,-1
 1361 0 l 1,16,-1
 1361 719 l 1,17,-1
 918 719 l 1,18,-1
 1049 602 l 2,19,20
 1061 592 1061 592 1067.5 574.5 c 128,-1,21
 1074 557 1074 557 1074 535 c 2,22,-1
 1074 123 l 2,23,24
 1074 72 1074 72 1038 36 c 128,-1,25
 1002 0 1002 0 951 0 c 2,26,-1
 828 0 l 2,27,28
 777 0 777 0 741 36 c 128,-1,29
 705 72 705 72 705 123 c 2,30,-1
 705 535 l 2,31,32
 705 559 705 559 717 582 c 128,-1,33
 729 605 729 605 750 623 c 2,34,-1
 863 719 l 1,35,-1
 252 719 l 2,36,37
 227 719 227 719 208 701.5 c 128,-1,38
 189 684 189 684 189 658 c 2,39,-1
 189 473 l 1,40,-1
 416 473 l 2,41,42
 477 473 477 473 519 436.5 c 128,-1,43
 561 400 561 400 561 350 c 2,44,-1
 561 123 l 2,45,46
 561 72 561 72 524.5 36 c 128,-1,47
 488 0 488 0 437 0 c 2,48,-1
 252 0 l 2,49,50
 201 0 201 0 165 42 c 128,-1,51
 129 84 129 84 129 145 c 2,0,-1
189 145 m 2,52,53
 189 111 189 111 208 86.5 c 128,-1,54
 227 62 227 62 252 62 c 2,55,-1
 437 62 l 2,56,57
 463 62 463 62 480.5 80 c 128,-1,58
 498 98 498 98 498 123 c 2,59,-1
 498 350 l 2,60,61
 498 375 498 375 473.5 393.5 c 128,-1,62
 449 412 449 412 416 412 c 2,63,-1
 189 412 l 1,64,-1
 189 145 l 2,52,53
766 123 m 2,65,66
 766 98 766 98 784.5 80 c 128,-1,67
 803 62 803 62 828 62 c 2,68,-1
 951 62 l 2,69,70
 977 62 977 62 994.5 80 c 128,-1,71
 1012 98 1012 98 1012 123 c 2,72,-1
 1012 535 l 2,73,74
 1012 559 1012 559 976.5 593 c 128,-1,75
 941 627 941 627 879 662 c 1,76,77
 826 631 826 631 796 597.5 c 128,-1,78
 766 564 766 564 766 535 c 2,79,-1
 766 123 l 2,65,66
EndSplineSet
EndChar

StartChar: tm_pa
Encoding: 2986 2986 72
Width: 1148
GlyphClass: 2
Flags: W
LayerCount: 2
Fore
SplineSet
133 123 m 2,0,-1
 133 781 l 1,1,-1
 193 781 l 1,2,-1
 193 123 l 2,3,4
 193 98 193 98 211.5 80 c 128,-1,5
 230 62 230 62 256 62 c 2,6,-1
 893 62 l 2,7,8
 918 62 918 62 936.5 80 c 128,-1,9
 955 98 955 98 955 123 c 2,10,-1
 955 781 l 1,11,-1
 1016 781 l 1,12,-1
 1016 123 l 2,13,14
 1016 72 1016 72 979.5 36 c 128,-1,15
 943 0 943 0 893 0 c 2,16,-1
 256 0 l 2,17,18
 205 0 205 0 169 36 c 128,-1,19
 133 72 133 72 133 123 c 2,0,-1
EndSplineSet
EndChar

StartChar: tm_ma
Encoding: 2990 2990 73
Width: 1145
GlyphClass: 2
Flags: W
LayerCount: 2
Fore
SplineSet
133 123 m 2,0,-1
 133 781 l 1,1,-1
 193 781 l 1,2,-1
 193 123 l 2,3,4
 193 98 193 98 211.5 80 c 128,-1,5
 230 62 230 62 256 62 c 2,6,-1
 543 62 l 1,7,-1
 543 658 l 2,8,9
 543 709 543 709 579 745 c 128,-1,10
 615 781 615 781 666 781 c 2,11,-1
 893 781 l 2,12,13
 943 781 943 781 979.5 745 c 128,-1,14
 1016 709 1016 709 1016 658 c 2,15,-1
 1016 145 l 2,16,17
 1016 84 1016 84 974 42 c 128,-1,18
 932 0 932 0 873 0 c 2,19,-1
 256 0 l 2,20,21
 205 0 205 0 169 36 c 128,-1,22
 133 72 133 72 133 123 c 2,0,-1
605 62 m 1,23,-1
 873 62 l 2,24,25
 906 62 906 62 930.5 86.5 c 128,-1,26
 955 111 955 111 955 145 c 2,27,-1
 955 658 l 2,28,29
 955 684 955 684 936.5 701.5 c 128,-1,30
 918 719 918 719 893 719 c 2,31,-1
 666 719 l 2,32,33
 641 719 641 719 623 701.5 c 128,-1,34
 605 684 605 684 605 658 c 2,35,-1
 605 62 l 1,23,-1
EndSplineSet
EndChar

StartChar: tm_ya
Encoding: 2991 2991 74
Width: 1355
GlyphClass: 2
Flags: W
LayerCount: 2
Fore
SplineSet
133 123 m 2,0,-1
 133 781 l 1,1,-1
 193 781 l 1,2,-1
 193 123 l 2,3,4
 193 98 193 98 211.5 80 c 128,-1,5
 230 62 230 62 256 62 c 2,6,-1
 338 62 l 2,7,8
 371 62 371 62 400.5 102.5 c 128,-1,9
 430 143 430 143 441 203 c 1,10,-1
 441 781 l 1,11,-1
 502 781 l 1,12,-1
 502 123 l 2,13,14
 502 98 502 98 520.5 80 c 128,-1,15
 539 62 539 62 564 62 c 2,16,-1
 1100 62 l 2,17,18
 1125 62 1125 62 1142.5 80 c 128,-1,19
 1160 98 1160 98 1160 123 c 2,20,-1
 1160 781 l 1,21,-1
 1223 781 l 1,22,-1
 1223 123 l 2,23,24
 1223 72 1223 72 1186.5 36 c 128,-1,25
 1150 0 1150 0 1100 0 c 2,26,-1
 564 0 l 2,27,28
 527 0 527 0 497 20.5 c 128,-1,29
 467 41 467 41 455 76 c 1,30,31
 443 41 443 41 411 20.5 c 128,-1,32
 379 0 379 0 338 0 c 2,33,-1
 256 0 l 2,34,35
 205 0 205 0 169 36 c 128,-1,36
 133 72 133 72 133 123 c 2,0,-1
EndSplineSet
EndChar

StartChar: tm_ra
Encoding: 2992 2992 75
Width: 826
GlyphClass: 2
Flags: W
LayerCount: 2
Fore
SplineSet
135 0 m 1,0,-1
 135 658 l 2,1,2
 135 709 135 709 171 745 c 128,-1,3
 207 781 207 781 258 781 c 2,4,-1
 818 781 l 1,5,-1
 818 719 l 1,6,-1
 607 719 l 1,7,-1
 607 21 l 2,8,9
 607 6 607 6 592.5 -17.5 c 128,-1,10
 578 -41 578 -41 551 -68 c 2,11,-1
 414 -205 l 1,12,-1
 338 -205 l 1,13,-1
 467 -76 l 2,14,15
 504 -39 504 -39 524.5 -9 c 128,-1,16
 545 21 545 21 545 41 c 2,17,-1
 545 719 l 1,18,-1
 258 719 l 2,19,20
 232 719 232 719 213.5 701.5 c 128,-1,21
 195 684 195 684 195 658 c 2,22,-1
 195 0 l 1,23,-1
 135 0 l 1,0,-1
EndSplineSet
EndChar

StartChar: tm_rra
Encoding: 2993 2993 76
Width: 1152
GlyphClass: 2
Flags: W
LayerCount: 2
Fore
SplineSet
135 0 m 1,0,-1
 135 658 l 2,1,2
 135 709 135 709 171 745 c 128,-1,3
 207 781 207 781 258 781 c 2,4,-1
 484 781 l 2,5,6
 514 781 514 781 538 759.5 c 128,-1,7
 562 738 562 738 576 703 c 1,8,9
 590 738 590 738 614.5 759.5 c 128,-1,10
 639 781 639 781 668 781 c 2,11,-1
 895 781 l 2,12,13
 945 781 945 781 981.5 745 c 128,-1,14
 1018 709 1018 709 1018 658 c 2,15,-1
 1018 -82 l 2,16,17
 1018 -143 1018 -143 976 -185 c 128,-1,18
 934 -227 934 -227 875 -227 c 2,19,-1
 160 -227 l 2,20,21
 127 -227 127 -227 102.5 -251 c 128,-1,22
 78 -275 78 -275 78 -309 c 2,23,-1
 78 -406 l 1,24,-1
 18 -406 l 1,25,-1
 18 -309 l 2,26,27
 18 -248 18 -248 60 -206 c 128,-1,28
 102 -164 102 -164 160 -164 c 2,29,-1
 875 -164 l 2,30,31
 908 -164 908 -164 932.5 -139.5 c 128,-1,32
 957 -115 957 -115 957 -82 c 2,33,-1
 957 658 l 2,34,35
 957 684 957 684 938.5 701.5 c 128,-1,36
 920 719 920 719 895 719 c 2,37,-1
 668 719 l 2,38,39
 643 719 643 719 625 701.5 c 128,-1,40
 607 684 607 684 607 658 c 2,41,-1
 607 0 l 1,42,-1
 545 0 l 1,43,-1
 545 658 l 2,44,45
 545 684 545 684 527.5 701.5 c 128,-1,46
 510 719 510 719 484 719 c 2,47,-1
 258 719 l 2,48,49
 232 719 232 719 213.5 701.5 c 128,-1,50
 195 684 195 684 195 658 c 2,51,-1
 195 0 l 1,52,-1
 135 0 l 1,0,-1
EndSplineSet
EndChar

StartChar: tm_la
Encoding: 2994 2994 77
Width: 1453
GlyphClass: 2
Flags: W
LayerCount: 2
Fore
SplineSet
129 145 m 2,0,-1
 129 658 l 2,1,2
 129 709 129 709 165 745 c 128,-1,3
 201 781 201 781 254 781 c 2,4,-1
 686 781 l 2,5,6
 736 781 736 781 772.5 745 c 128,-1,7
 809 709 809 709 809 658 c 2,8,-1
 809 123 l 2,9,10
 809 98 809 98 826.5 80 c 128,-1,11
 844 62 844 62 869 62 c 2,12,-1
 1199 62 l 2,13,14
 1225 62 1225 62 1242.5 80 c 128,-1,15
 1260 98 1260 98 1260 123 c 2,16,-1
 1260 658 l 2,17,18
 1260 684 1260 684 1242.5 701.5 c 128,-1,19
 1225 719 1225 719 1199 719 c 2,20,-1
 994 719 l 1,21,-1
 994 781 l 1,22,-1
 1199 781 l 2,23,24
 1250 781 1250 781 1286 745 c 128,-1,25
 1322 709 1322 709 1322 658 c 2,26,-1
 1322 123 l 2,27,28
 1322 72 1322 72 1286 36 c 128,-1,29
 1250 0 1250 0 1199 0 c 2,30,-1
 869 0 l 2,31,32
 818 0 818 0 782 36 c 128,-1,33
 746 72 746 72 746 123 c 2,34,-1
 746 658 l 2,35,36
 746 684 746 684 728.5 701.5 c 128,-1,37
 711 719 711 719 686 719 c 2,38,-1
 254 719 l 2,39,40
 229 719 229 719 210 701.5 c 128,-1,41
 191 684 191 684 191 658 c 2,42,-1
 191 473 l 1,43,-1
 418 473 l 2,44,45
 477 473 477 473 519 436.5 c 128,-1,46
 561 400 561 400 561 350 c 2,47,-1
 561 123 l 2,48,49
 561 72 561 72 524.5 36 c 128,-1,50
 488 0 488 0 437 0 c 2,51,-1
 254 0 l 2,52,53
 201 0 201 0 165 42 c 128,-1,54
 129 84 129 84 129 145 c 2,0,-1
191 145 m 2,55,56
 191 111 191 111 210 86.5 c 128,-1,57
 229 62 229 62 254 62 c 2,58,-1
 437 62 l 2,59,60
 463 62 463 62 481.5 80 c 128,-1,61
 500 98 500 98 500 123 c 2,62,-1
 500 350 l 2,63,64
 500 375 500 375 475.5 393.5 c 128,-1,65
 451 412 451 412 418 412 c 2,66,-1
 191 412 l 1,67,-1
 191 145 l 2,55,56
EndSplineSet
EndChar

StartChar: tm_lla
Encoding: 2995 2995 78
Width: 1418
GlyphClass: 2
Flags: W
LayerCount: 2
Fore
SplineSet
129 145 m 2,0,-1
 129 658 l 2,1,2
 129 709 129 709 165 745 c 128,-1,3
 201 781 201 781 254 781 c 2,4,-1
 623 781 l 2,5,6
 662 781 662 781 695.5 760.5 c 128,-1,7
 729 740 729 740 746 707 c 1,8,-1
 746 781 l 1,9,-1
 1410 781 l 1,10,-1
 1410 719 l 1,11,-1
 1219 719 l 1,12,-1
 1219 0 l 1,13,-1
 1158 0 l 1,14,-1
 1158 719 l 1,15,-1
 809 719 l 1,16,-1
 809 0 l 1,17,-1
 746 0 l 1,18,-1
 746 596 l 2,19,20
 746 637 746 637 705 678 c 128,-1,21
 664 719 664 719 623 719 c 2,22,-1
 254 719 l 2,23,24
 229 719 229 719 210 701.5 c 128,-1,25
 191 684 191 684 191 658 c 2,26,-1
 191 473 l 1,27,-1
 418 473 l 2,28,29
 477 473 477 473 519 436.5 c 128,-1,30
 561 400 561 400 561 350 c 2,31,-1
 561 123 l 2,32,33
 561 72 561 72 524.5 36 c 128,-1,34
 488 0 488 0 437 0 c 2,35,-1
 254 0 l 2,36,37
 201 0 201 0 165 42 c 128,-1,38
 129 84 129 84 129 145 c 2,0,-1
191 145 m 2,39,40
 191 111 191 111 210 86.5 c 128,-1,41
 229 62 229 62 254 62 c 2,42,-1
 437 62 l 2,43,44
 463 62 463 62 481.5 80 c 128,-1,45
 500 98 500 98 500 123 c 2,46,-1
 500 350 l 2,47,48
 500 375 500 375 475.5 393.5 c 128,-1,49
 451 412 451 412 418 412 c 2,50,-1
 191 412 l 1,51,-1
 191 145 l 2,39,40
EndSplineSet
EndChar

StartChar: tm_llla
Encoding: 2996 2996 79
Width: 1146
GlyphClass: 2
Flags: W
LayerCount: 2
Fore
SplineSet
133 123 m 2,0,-1
 133 781 l 1,1,-1
 195 781 l 1,2,-1
 195 123 l 2,3,4
 195 98 195 98 213.5 80 c 128,-1,5
 232 62 232 62 258 62 c 2,6,-1
 545 62 l 1,7,-1
 545 658 l 2,8,9
 545 709 545 709 581 745 c 128,-1,10
 617 781 617 781 668 781 c 2,11,-1
 895 781 l 2,12,13
 945 781 945 781 981.5 745 c 128,-1,14
 1018 709 1018 709 1018 658 c 2,15,-1
 1018 145 l 2,16,17
 1018 84 1018 84 976 42 c 128,-1,18
 934 0 934 0 873 0 c 2,19,-1
 607 0 l 1,20,-1
 607 -82 l 2,21,22
 607 -107 607 -107 625 -126 c 128,-1,23
 643 -145 643 -145 668 -145 c 2,24,-1
 914 -145 l 1,25,-1
 914 -205 l 1,26,-1
 832 -205 l 2,27,28
 799 -205 799 -205 774.5 -229.5 c 128,-1,29
 750 -254 750 -254 750 -287 c 2,30,-1
 750 -494 l 2,31,32
 750 -545 750 -545 714 -581 c 128,-1,33
 678 -617 678 -617 627 -617 c 2,34,-1
 133 -617 l 2,35,36
 82 -617 82 -617 46 -581 c 128,-1,37
 10 -545 10 -545 10 -494 c 2,38,-1
 10 -350 l 2,39,40
 10 -299 10 -299 46 -263 c 128,-1,41
 82 -227 82 -227 133 -227 c 2,42,-1
 217 -227 l 1,43,-1
 217 -287 l 1,44,-1
 133 -287 l 2,45,46
 107 -287 107 -287 89.5 -305.5 c 128,-1,47
 72 -324 72 -324 72 -350 c 2,48,-1
 72 -494 l 2,49,50
 72 -520 72 -520 89.5 -537.5 c 128,-1,51
 107 -555 107 -555 133 -555 c 2,52,-1
 627 -555 l 2,53,54
 652 -555 652 -555 670.5 -537.5 c 128,-1,55
 689 -520 689 -520 689 -494 c 2,56,-1
 689 -287 l 2,57,58
 689 -264 689 -264 711.5 -241.5 c 128,-1,59
 734 -219 734 -219 771 -205 c 1,60,-1
 668 -205 l 2,61,62
 617 -205 617 -205 581 -169 c 128,-1,63
 545 -133 545 -133 545 -82 c 2,64,-1
 545 0 l 1,65,-1
 258 0 l 2,66,67
 205 0 205 0 169 36 c 128,-1,68
 133 72 133 72 133 123 c 2,0,-1
607 62 m 1,69,-1
 873 62 l 2,70,71
 906 62 906 62 930.5 86.5 c 128,-1,72
 955 111 955 111 955 145 c 2,73,-1
 955 658 l 2,74,75
 955 684 955 684 937.5 701.5 c 128,-1,76
 920 719 920 719 895 719 c 2,77,-1
 668 719 l 2,78,79
 643 719 643 719 625 701.5 c 128,-1,80
 607 684 607 684 607 658 c 2,81,-1
 607 62 l 1,69,-1
EndSplineSet
EndChar

StartChar: tm_va
Encoding: 2997 2997 80
Width: 1457
GlyphClass: 2
Flags: W
LayerCount: 2
Fore
SplineSet
131 123 m 2,0,-1
 131 658 l 2,1,2
 131 709 131 709 167 745 c 128,-1,3
 203 781 203 781 256 781 c 2,4,-1
 687 781 l 2,5,6
 738 781 738 781 774.5 745 c 128,-1,7
 811 709 811 709 811 658 c 2,8,-1
 811 145 l 2,9,10
 811 121 811 121 800 99.5 c 128,-1,11
 789 78 789 78 770 62 c 1,12,-1
 1201 62 l 2,13,14
 1227 62 1227 62 1244.5 80 c 128,-1,15
 1262 98 1262 98 1262 123 c 2,16,-1
 1262 781 l 1,17,-1
 1324 781 l 1,18,-1
 1324 123 l 2,19,20
 1324 72 1324 72 1288 36 c 128,-1,21
 1252 0 1252 0 1201 0 c 2,22,-1
 687 0 l 1,23,-1
 687 66 l 1,24,25
 713 66 713 66 730.5 88.5 c 128,-1,26
 748 111 748 111 748 145 c 2,27,-1
 748 658 l 2,28,29
 748 684 748 684 730.5 701.5 c 128,-1,30
 713 719 713 719 687 719 c 2,31,-1
 256 719 l 2,32,33
 230 719 230 719 211.5 701.5 c 128,-1,34
 193 684 193 684 193 658 c 2,35,-1
 193 473 l 1,36,-1
 420 473 l 2,37,38
 479 473 479 473 520.5 436.5 c 128,-1,39
 562 400 562 400 562 350 c 2,40,-1
 562 123 l 2,41,42
 562 72 562 72 526 36 c 128,-1,43
 490 0 490 0 439 0 c 2,44,-1
 256 0 l 2,45,46
 203 0 203 0 167 36 c 128,-1,47
 131 72 131 72 131 123 c 2,0,-1
193 123 m 2,48,49
 193 98 193 98 211.5 80 c 128,-1,50
 230 62 230 62 256 62 c 2,51,-1
 439 62 l 2,52,53
 465 62 465 62 483.5 80 c 128,-1,54
 502 98 502 98 502 123 c 2,55,-1
 502 350 l 2,56,57
 502 375 502 375 477.5 393.5 c 128,-1,58
 453 412 453 412 420 412 c 2,59,-1
 193 412 l 1,60,-1
 193 123 l 2,48,49
EndSplineSet
EndChar

StartChar: tm_ssa
Encoding: 2999 2999 81
Width: 1854
GlyphClass: 2
Flags: W
LayerCount: 2
Fore
SplineSet
131 123 m 2,0,-1
 131 658 l 2,1,2
 131 709 131 709 167 745 c 128,-1,3
 203 781 203 781 254 781 c 2,4,-1
 686 781 l 2,5,6
 736 781 736 781 772.5 745 c 128,-1,7
 809 709 809 709 809 658 c 2,8,-1
 809 145 l 2,9,10
 809 119 809 119 800 97.5 c 128,-1,11
 791 76 791 76 773 62 c 1,12,-1
 1404 62 l 1,13,-1
 1404 309 l 1,14,-1
 1139 309 l 2,15,16
 1078 309 1078 309 1036 345 c 128,-1,17
 994 381 994 381 994 432 c 2,18,-1
 994 658 l 2,19,20
 994 709 994 709 1030 745 c 128,-1,21
 1066 781 1066 781 1117 781 c 2,22,-1
 1344 781 l 2,23,24
 1395 781 1395 781 1431 745 c 128,-1,25
 1467 709 1467 709 1467 658 c 2,26,-1
 1467 369 l 1,27,-1
 1672 369 l 2,28,29
 1723 369 1723 369 1759 333 c 128,-1,30
 1795 297 1795 297 1795 246 c 2,31,-1
 1795 123 l 2,32,33
 1795 72 1795 72 1759 36 c 128,-1,34
 1723 0 1723 0 1672 0 c 2,35,-1
 1467 0 l 1,36,-1
 1467 -205 l 1,37,-1
 1404 -205 l 1,38,-1
 1404 0 l 1,39,-1
 686 0 l 1,40,-1
 686 66 l 1,41,42
 711 66 711 66 729.5 88.5 c 128,-1,43
 748 111 748 111 748 145 c 2,44,-1
 748 658 l 2,45,46
 748 684 748 684 729.5 701.5 c 128,-1,47
 711 719 711 719 686 719 c 2,48,-1
 254 719 l 2,49,50
 229 719 229 719 210 701.5 c 128,-1,51
 191 684 191 684 191 658 c 2,52,-1
 191 473 l 1,53,-1
 418 473 l 2,54,55
 479 473 479 473 520.5 436.5 c 128,-1,56
 562 400 562 400 562 350 c 2,57,-1
 562 123 l 2,58,59
 562 72 562 72 526 36 c 128,-1,60
 490 0 490 0 439 0 c 2,61,-1
 254 0 l 2,62,63
 203 0 203 0 167 36 c 128,-1,64
 131 72 131 72 131 123 c 2,0,-1
191 123 m 2,65,66
 191 98 191 98 210 80 c 128,-1,67
 229 62 229 62 254 62 c 2,68,-1
 439 62 l 2,69,70
 465 62 465 62 482.5 80 c 128,-1,71
 500 98 500 98 500 123 c 2,72,-1
 500 350 l 2,73,74
 500 375 500 375 475.5 393.5 c 128,-1,75
 451 412 451 412 418 412 c 2,76,-1
 191 412 l 1,77,-1
 191 123 l 2,65,66
1055 432 m 2,78,79
 1055 406 1055 406 1079.5 387.5 c 128,-1,80
 1104 369 1104 369 1139 369 c 2,81,-1
 1404 369 l 1,82,-1
 1404 658 l 2,83,84
 1404 684 1404 684 1386.5 701.5 c 128,-1,85
 1369 719 1369 719 1344 719 c 2,86,-1
 1117 719 l 2,87,88
 1092 719 1092 719 1073.5 701.5 c 128,-1,89
 1055 684 1055 684 1055 658 c 2,90,-1
 1055 432 l 2,78,79
1467 62 m 1,91,-1
 1672 62 l 2,92,93
 1697 62 1697 62 1715.5 80 c 128,-1,94
 1734 98 1734 98 1734 123 c 2,95,-1
 1734 246 l 2,96,97
 1734 271 1734 271 1715.5 290 c 128,-1,98
 1697 309 1697 309 1672 309 c 2,99,-1
 1467 309 l 1,100,-1
 1467 62 l 1,91,-1
EndSplineSet
EndChar

StartChar: tm_sa
Encoding: 3000 3000 82
Width: 1803
GlyphClass: 2
Flags: W
LayerCount: 2
Fore
SplineSet
131 123 m 2,0,-1
 131 658 l 2,1,2
 131 709 131 709 167 745 c 128,-1,3
 203 781 203 781 254 781 c 2,4,-1
 623 781 l 2,5,6
 672 781 672 781 715 753 c 128,-1,7
 758 725 758 725 781 678 c 1,8,9
 793 721 793 721 832 749 c 128,-1,10
 871 777 871 777 922 781 c 1,11,-1
 1098 781 l 2,12,13
 1148 781 1148 781 1184.5 745 c 128,-1,14
 1221 709 1221 709 1221 658 c 2,15,-1
 1221 123 l 2,16,17
 1221 98 1221 98 1238.5 80 c 128,-1,18
 1256 62 1256 62 1281 62 c 2,19,-1
 1549 62 l 2,20,21
 1574 62 1574 62 1592.5 80 c 128,-1,22
 1611 98 1611 98 1611 123 c 2,23,-1
 1611 658 l 2,24,25
 1611 684 1611 684 1592.5 701.5 c 128,-1,26
 1574 719 1574 719 1549 719 c 2,27,-1
 1508 719 l 1,28,-1
 1508 781 l 1,29,-1
 1549 781 l 2,30,31
 1600 781 1600 781 1636 745 c 128,-1,32
 1672 709 1672 709 1672 658 c 2,33,-1
 1672 123 l 2,34,35
 1672 72 1672 72 1636 36 c 128,-1,36
 1600 0 1600 0 1549 0 c 2,37,-1
 1281 0 l 2,38,39
 1230 0 1230 0 1194 36 c 128,-1,40
 1158 72 1158 72 1158 123 c 2,41,-1
 1158 658 l 2,42,43
 1158 684 1158 684 1140.5 701.5 c 128,-1,44
 1123 719 1123 719 1098 719 c 2,45,-1
 920 719 l 2,46,47
 873 719 873 719 841 682.5 c 128,-1,48
 809 646 809 646 809 596 c 2,49,-1
 809 0 l 1,50,-1
 748 0 l 1,51,-1
 748 596 l 2,52,53
 748 637 748 637 706 678 c 128,-1,54
 664 719 664 719 623 719 c 2,55,-1
 254 719 l 2,56,57
 229 719 229 719 210 701.5 c 128,-1,58
 191 684 191 684 191 658 c 2,59,-1
 191 473 l 1,60,-1
 418 473 l 2,61,62
 479 473 479 473 520.5 442.5 c 128,-1,63
 562 412 562 412 562 369 c 2,64,-1
 562 123 l 2,65,66
 562 72 562 72 526 36 c 128,-1,67
 490 0 490 0 439 0 c 2,68,-1
 254 0 l 2,69,70
 203 0 203 0 167 36 c 128,-1,71
 131 72 131 72 131 123 c 2,0,-1
191 123 m 2,72,73
 191 98 191 98 210 80 c 128,-1,74
 229 62 229 62 254 62 c 2,75,-1
 439 62 l 2,76,77
 465 62 465 62 482.5 80 c 128,-1,78
 500 98 500 98 500 123 c 2,79,-1
 500 369 l 2,80,81
 500 387 500 387 475.5 399.5 c 128,-1,82
 451 412 451 412 418 412 c 2,83,-1
 191 412 l 1,84,-1
 191 123 l 2,72,73
EndSplineSet
EndChar

StartChar: tm_ha
Encoding: 3001 3001 83
Width: 2055
GlyphClass: 2
Flags: W
LayerCount: 2
Fore
SplineSet
131 123 m 2,0,-1
 131 658 l 2,1,2
 131 709 131 709 167 745 c 128,-1,3
 203 781 203 781 254 781 c 2,4,-1
 686 781 l 2,5,6
 736 781 736 781 772.5 745 c 128,-1,7
 809 709 809 709 809 658 c 2,8,-1
 809 145 l 2,9,10
 809 121 809 121 799 99.5 c 128,-1,11
 789 78 789 78 770 62 c 1,12,-1
 1035 62 l 1,13,-1
 1035 658 l 2,14,15
 1035 709 1035 709 1071 745 c 128,-1,16
 1107 781 1107 781 1158 781 c 2,17,-1
 1385 781 l 2,18,19
 1416 781 1416 781 1441.5 762.5 c 128,-1,20
 1467 744 1467 744 1479 713 c 1,21,22
 1490 744 1490 744 1515.5 762.5 c 128,-1,23
 1541 781 1541 781 1570 781 c 2,24,-1
 1795 781 l 2,25,26
 1848 781 1848 781 1884 745 c 128,-1,27
 1920 709 1920 709 1920 658 c 2,28,-1
 1920 -82 l 2,29,30
 1920 -143 1920 -143 1878 -185 c 128,-1,31
 1836 -227 1836 -227 1775 -227 c 2,32,-1
 195 -227 l 2,33,34
 162 -227 162 -227 137.5 -251 c 128,-1,35
 113 -275 113 -275 113 -309 c 2,36,-1
 113 -328 l 1,37,-1
 53 -328 l 1,38,-1
 53 -309 l 2,39,40
 53 -248 53 -248 95 -206 c 128,-1,41
 137 -164 137 -164 195 -164 c 2,42,-1
 1775 -164 l 2,43,44
 1809 -164 1809 -164 1833 -139.5 c 128,-1,45
 1857 -115 1857 -115 1857 -82 c 2,46,-1
 1857 658 l 2,47,48
 1857 684 1857 684 1838.5 701.5 c 128,-1,49
 1820 719 1820 719 1795 719 c 2,50,-1
 1570 719 l 2,51,52
 1545 719 1545 719 1526.5 701.5 c 128,-1,53
 1508 684 1508 684 1508 658 c 2,54,-1
 1508 0 l 1,55,-1
 1445 0 l 1,56,-1
 1445 658 l 2,57,58
 1445 684 1445 684 1427.5 701.5 c 128,-1,59
 1410 719 1410 719 1385 719 c 2,60,-1
 1158 719 l 2,61,62
 1133 719 1133 719 1115.5 701.5 c 128,-1,63
 1098 684 1098 684 1098 658 c 2,64,-1
 1098 0 l 1,65,-1
 686 0 l 1,66,-1
 686 66 l 1,67,68
 711 66 711 66 729.5 88.5 c 128,-1,69
 748 111 748 111 748 145 c 2,70,-1
 748 658 l 2,71,72
 748 684 748 684 729.5 701.5 c 128,-1,73
 711 719 711 719 686 719 c 2,74,-1
 254 719 l 2,75,76
 229 719 229 719 210 701.5 c 128,-1,77
 191 684 191 684 191 658 c 2,78,-1
 191 473 l 1,79,-1
 418 473 l 2,80,81
 479 473 479 473 520.5 436.5 c 128,-1,82
 562 400 562 400 562 350 c 2,83,-1
 562 123 l 2,84,85
 562 72 562 72 526 36 c 128,-1,86
 490 0 490 0 439 0 c 2,87,-1
 254 0 l 2,88,89
 203 0 203 0 167 36 c 128,-1,90
 131 72 131 72 131 123 c 2,0,-1
191 123 m 2,91,92
 191 98 191 98 210 80 c 128,-1,93
 229 62 229 62 254 62 c 2,94,-1
 439 62 l 2,95,96
 465 62 465 62 482.5 80 c 128,-1,97
 500 98 500 98 500 123 c 2,98,-1
 500 350 l 2,99,100
 500 375 500 375 475.5 393.5 c 128,-1,101
 451 412 451 412 418 412 c 2,102,-1
 191 412 l 1,103,-1
 191 123 l 2,91,92
EndSplineSet
EndChar

StartChar: tm_aakaar
Encoding: 3006 3006 84
Width: 820
GlyphClass: 2
Flags: W
LayerCount: 2
Fore
SplineSet
135 0 m 1,0,-1
 135 658 l 2,1,2
 135 709 135 709 171 745 c 128,-1,3
 207 781 207 781 258 781 c 2,4,-1
 812 781 l 1,5,-1
 812 719 l 1,6,-1
 607 719 l 1,7,-1
 607 0 l 1,8,-1
 545 0 l 1,9,-1
 545 719 l 1,10,-1
 258 719 l 2,11,12
 232 719 232 719 213.5 701.5 c 128,-1,13
 195 684 195 684 195 658 c 2,14,-1
 195 0 l 1,15,-1
 135 0 l 1,0,-1
EndSplineSet
EndChar

StartChar: tm_ikaar
Encoding: 3007 3007 85
Width: 1016
GlyphClass: 2
Flags: W
LayerCount: 2
Fore
SplineSet
137 1275 m 2,0,1
 137 1326 137 1326 173 1362 c 128,-1,2
 209 1398 209 1398 260 1398 c 2,3,-1
 756 1398 l 2,4,5
 807 1398 807 1398 843 1362 c 128,-1,6
 879 1326 879 1326 879 1275 c 2,7,-1
 879 0 l 1,8,-1
 818 0 l 1,9,-1
 818 1275 l 2,10,11
 818 1301 818 1301 799.5 1318.5 c 128,-1,12
 781 1336 781 1336 756 1336 c 2,13,-1
 260 1336 l 2,14,15
 234 1336 234 1336 216.5 1318.5 c 128,-1,16
 199 1301 199 1301 199 1275 c 2,17,-1
 199 885 l 2,18,19
 199 850 199 850 218.5 821.5 c 128,-1,20
 238 793 238 793 271 781 c 1,21,-1
 193 781 l 1,22,23
 166 805 166 805 151.5 831 c 128,-1,24
 137 857 137 857 137 885 c 2,25,-1
 137 1275 l 2,0,1
EndSplineSet
EndChar

StartChar: tm_iikaar
Encoding: 3008 3008 86
Width: 871
GlyphClass: 4
Flags: W
LayerCount: 2
Fore
SplineSet
137 1285 m 2,0,1
 137 1332 137 1332 170 1365 c 128,-1,2
 203 1398 203 1398 250 1398 c 2,3,-1
 609 1398 l 2,4,5
 662 1398 662 1398 698 1362 c 128,-1,6
 734 1326 734 1326 734 1275 c 2,7,-1
 734 1131 l 2,8,9
 734 1080 734 1080 698 1044 c 128,-1,10
 662 1008 662 1008 609 1008 c 2,11,-1
 508 1008 l 2,12,13
 457 1008 457 1008 421 1044 c 128,-1,14
 385 1080 385 1080 385 1131 c 2,15,-1
 385 1336 l 1,16,-1
 250 1336 l 2,17,18
 229 1336 229 1336 214 1321.5 c 128,-1,19
 199 1307 199 1307 199 1285 c 2,20,-1
 199 885 l 2,21,22
 199 846 199 846 221.5 816.5 c 128,-1,23
 244 787 244 787 277 781 c 1,24,-1
 193 781 l 1,25,26
 166 805 166 805 151.5 831 c 128,-1,27
 137 857 137 857 137 885 c 2,28,-1
 137 1285 l 2,0,1
445 1336 m 1,29,-1
 445 1131 l 2,30,31
 445 1105 445 1105 463.5 1086.5 c 128,-1,32
 482 1068 482 1068 508 1068 c 2,33,-1
 609 1068 l 2,34,35
 635 1068 635 1068 653.5 1086.5 c 128,-1,36
 672 1105 672 1105 672 1131 c 2,37,-1
 672 1275 l 2,38,39
 672 1301 672 1301 653.5 1318.5 c 128,-1,40
 635 1336 635 1336 609 1336 c 2,41,-1
 445 1336 l 1,29,-1
EndSplineSet
EndChar

StartChar: tm_ukaar
Encoding: 3009 3009 87
Width: 783
GlyphClass: 4
Flags: W
LayerCount: 2
Fore
SplineSet
-324 719 m 1,0,-1
 -324 781 l 1,1,-1
 582 781 l 2,2,3
 633 781 633 781 669 745 c 128,-1,4
 705 709 705 709 705 658 c 2,5,-1
 705 412 l 2,6,7
 705 359 705 359 669 323 c 128,-1,8
 633 287 633 287 582 287 c 2,9,-1
 418 287 l 2,10,11
 357 287 357 287 315 329 c 128,-1,12
 273 371 273 371 273 432 c 2,13,-1
 273 719 l 1,14,-1
 -324 719 l 1,0,-1
336 719 m 1,15,-1
 336 432 l 2,16,17
 336 398 336 398 360.5 374 c 128,-1,18
 385 350 385 350 418 350 c 2,19,-1
 582 350 l 2,20,21
 607 350 607 350 626 368.5 c 128,-1,22
 645 387 645 387 645 412 c 2,23,-1
 645 658 l 2,24,25
 645 684 645 684 626 701.5 c 128,-1,26
 607 719 607 719 582 719 c 2,27,-1
 336 719 l 1,15,-1
EndSplineSet
EndChar

StartChar: tm_uukaar
Encoding: 3010 3010 88
Width: 1195
GlyphClass: 4
Flags: W
LayerCount: 2
Fore
SplineSet
-324 719 m 1,0,-1
 -324 781 l 1,1,-1
 281 781 l 1,2,-1
 281 1068 l 2,3,4
 281 1121 281 1121 317.5 1157 c 128,-1,5
 354 1193 354 1193 404 1193 c 2,6,-1
 939 1193 l 2,7,8
 990 1193 990 1193 1026 1157 c 128,-1,9
 1062 1121 1062 1121 1062 1068 c 2,10,-1
 1062 123 l 2,11,12
 1062 72 1062 72 1026 36 c 128,-1,13
 990 0 990 0 939 0 c 2,14,-1
 281 0 l 1,15,-1
 281 62 l 1,16,-1
 939 62 l 2,17,18
 965 62 965 62 983.5 80 c 128,-1,19
 1002 98 1002 98 1002 123 c 2,20,-1
 1002 1068 l 2,21,22
 1002 1094 1002 1094 983.5 1112.5 c 128,-1,23
 965 1131 965 1131 939 1131 c 2,24,-1
 404 1131 l 2,25,26
 379 1131 379 1131 361.5 1112.5 c 128,-1,27
 344 1094 344 1094 344 1068 c 2,28,-1
 344 781 l 1,29,-1
 529 781 l 2,30,31
 580 781 580 781 616 745 c 128,-1,32
 652 709 652 709 652 658 c 2,33,-1
 652 453 l 2,34,35
 652 400 652 400 616 364 c 128,-1,36
 580 328 580 328 529 328 c 2,37,-1
 404 328 l 2,38,39
 354 328 354 328 317.5 364 c 128,-1,40
 281 400 281 400 281 453 c 2,41,-1
 281 719 l 1,42,-1
 -324 719 l 1,0,-1
344 453 m 2,43,44
 344 428 344 428 361.5 409.5 c 128,-1,45
 379 391 379 391 404 391 c 2,46,-1
 529 391 l 2,47,48
 555 391 555 391 572.5 409.5 c 128,-1,49
 590 428 590 428 590 453 c 2,50,-1
 590 658 l 2,51,52
 590 684 590 684 572.5 701.5 c 128,-1,53
 555 719 555 719 529 719 c 2,54,-1
 344 719 l 1,55,-1
 344 453 l 2,43,44
EndSplineSet
EndChar

StartChar: tm_ekaar
Encoding: 3014 3014 89
Width: 1113
GlyphClass: 2
Flags: W
LayerCount: 2
Fore
SplineSet
133 123 m 2,0,-1
 133 1119 l 2,1,2
 133 1170 133 1170 169 1206 c 128,-1,3
 205 1242 205 1242 256 1242 c 2,4,-1
 852 1242 l 2,5,6
 904 1242 904 1242 940.5 1206 c 128,-1,7
 977 1170 977 1170 977 1119 c 2,8,-1
 977 0 l 1,9,-1
 914 0 l 1,10,-1
 914 1119 l 2,11,12
 914 1145 914 1145 895.5 1162.5 c 128,-1,13
 877 1180 877 1180 852 1180 c 2,14,-1
 256 1180 l 2,15,16
 230 1180 230 1180 212.5 1162.5 c 128,-1,17
 195 1145 195 1145 195 1119 c 2,18,-1
 195 123 l 2,19,20
 195 98 195 98 212.5 80 c 128,-1,21
 230 62 230 62 256 62 c 2,22,-1
 338 62 l 1,23,-1
 338 350 l 2,24,25
 338 400 338 400 374 436.5 c 128,-1,26
 410 473 410 473 461 473 c 2,27,-1
 586 473 l 2,28,29
 637 473 637 473 673 436.5 c 128,-1,30
 709 400 709 400 709 350 c 2,31,-1
 709 123 l 2,32,33
 709 72 709 72 673 36 c 128,-1,34
 637 0 637 0 586 0 c 2,35,-1
 256 0 l 2,36,37
 205 0 205 0 169 36 c 128,-1,38
 133 72 133 72 133 123 c 2,0,-1
400 62 m 1,39,-1
 586 62 l 2,40,41
 611 62 611 62 628.5 80 c 128,-1,42
 646 98 646 98 646 123 c 2,43,-1
 646 350 l 2,44,45
 646 375 646 375 628.5 393.5 c 128,-1,46
 611 412 611 412 586 412 c 2,47,-1
 461 412 l 2,48,49
 436 412 436 412 418 393.5 c 128,-1,50
 400 375 400 375 400 350 c 2,51,-1
 400 62 l 1,39,-1
EndSplineSet
EndChar

StartChar: tm_eekaar
Encoding: 3015 3015 90
Width: 785
GlyphClass: 2
Flags: W
LayerCount: 2
Fore
SplineSet
133 123 m 2,0,-1
 133 1119 l 2,1,2
 133 1170 133 1170 169 1206 c 128,-1,3
 205 1242 205 1242 258 1242 c 2,4,-1
 586 1242 l 2,5,6
 637 1242 637 1242 673 1206 c 128,-1,7
 709 1170 709 1170 709 1119 c 2,8,-1
 709 893 l 2,9,10
 709 842 709 842 673 806 c 128,-1,11
 637 770 637 770 586 770 c 2,12,-1
 463 770 l 2,13,14
 412 770 412 770 376 806 c 128,-1,15
 340 842 340 842 340 893 c 2,16,-1
 340 1180 l 1,17,-1
 258 1180 l 2,18,19
 232 1180 232 1180 213.5 1162.5 c 128,-1,20
 195 1145 195 1145 195 1119 c 2,21,-1
 195 123 l 2,22,23
 195 98 195 98 213.5 80 c 128,-1,24
 232 62 232 62 258 62 c 2,25,-1
 340 62 l 1,26,-1
 340 350 l 2,27,28
 340 400 340 400 376 436.5 c 128,-1,29
 412 473 412 473 463 473 c 2,30,-1
 586 473 l 2,31,32
 637 473 637 473 673 436.5 c 128,-1,33
 709 400 709 400 709 350 c 2,34,-1
 709 123 l 2,35,36
 709 72 709 72 673 36 c 128,-1,37
 637 0 637 0 586 0 c 2,38,-1
 258 0 l 2,39,40
 205 0 205 0 169 36 c 128,-1,41
 133 72 133 72 133 123 c 2,0,-1
400 62 m 1,42,-1
 586 62 l 2,43,44
 611 62 611 62 629.5 80 c 128,-1,45
 648 98 648 98 648 123 c 2,46,-1
 648 350 l 2,47,48
 648 375 648 375 629.5 393.5 c 128,-1,49
 611 412 611 412 586 412 c 2,50,-1
 463 412 l 2,51,52
 437 412 437 412 418.5 393.5 c 128,-1,53
 400 375 400 375 400 350 c 2,54,-1
 400 62 l 1,42,-1
400 1180 m 1,55,-1
 400 893 l 2,56,57
 400 867 400 867 418.5 848.5 c 128,-1,58
 437 830 437 830 463 830 c 2,59,-1
 586 830 l 2,60,61
 611 830 611 830 629.5 848.5 c 128,-1,62
 648 867 648 867 648 893 c 2,63,-1
 648 1119 l 2,64,65
 648 1145 648 1145 629.5 1162.5 c 128,-1,66
 611 1180 611 1180 586 1180 c 2,67,-1
 400 1180 l 1,55,-1
EndSplineSet
EndChar

StartChar: tm_aikaar
Encoding: 3016 3016 91
Width: 1559
GlyphClass: 2
Flags: W
LayerCount: 2
Fore
SplineSet
129 145 m 2,0,-1
 129 658 l 2,1,2
 129 709 129 709 165 745 c 128,-1,3
 201 781 201 781 254 781 c 2,4,-1
 787 781 l 2,5,6
 801 781 801 781 827.5 770.5 c 128,-1,7
 854 760 854 760 891 738 c 1,8,9
 928 760 928 760 954 770.5 c 128,-1,10
 980 781 980 781 994 781 c 2,11,-1
 1301 781 l 2,12,13
 1354 781 1354 781 1390 739 c 128,-1,14
 1426 697 1426 697 1426 637 c 2,15,-1
 1426 82 l 2,16,17
 1426 49 1426 49 1401.5 24.5 c 128,-1,18
 1377 0 1377 0 1342 0 c 2,19,-1
 1260 0 l 1,20,-1
 1260 62 l 1,21,-1
 1301 62 l 2,22,23
 1326 62 1326 62 1344.5 80 c 128,-1,24
 1363 98 1363 98 1363 123 c 2,25,-1
 1363 637 l 2,26,27
 1363 670 1363 670 1344.5 694.5 c 128,-1,28
 1326 719 1326 719 1301 719 c 2,29,-1
 920 719 l 1,30,-1
 1051 602 l 2,31,32
 1062 592 1062 592 1069 574.5 c 128,-1,33
 1076 557 1076 557 1076 535 c 2,34,-1
 1076 123 l 2,35,36
 1076 72 1076 72 1040 36 c 128,-1,37
 1004 0 1004 0 951 0 c 2,38,-1
 828 0 l 2,39,40
 777 0 777 0 741 36 c 128,-1,41
 705 72 705 72 705 123 c 2,42,-1
 705 535 l 2,43,44
 705 559 705 559 717 582 c 128,-1,45
 729 605 729 605 750 623 c 2,46,-1
 863 719 l 1,47,-1
 254 719 l 2,48,49
 229 719 229 719 210 701.5 c 128,-1,50
 191 684 191 684 191 658 c 2,51,-1
 191 473 l 1,52,-1
 418 473 l 2,53,54
 477 473 477 473 519 442.5 c 128,-1,55
 561 412 561 412 561 369 c 2,56,-1
 561 123 l 2,57,58
 561 72 561 72 524.5 36 c 128,-1,59
 488 0 488 0 437 0 c 2,60,-1
 254 0 l 2,61,62
 201 0 201 0 165 42 c 128,-1,63
 129 84 129 84 129 145 c 2,0,-1
191 145 m 2,64,65
 191 111 191 111 210 86.5 c 128,-1,66
 229 62 229 62 254 62 c 2,67,-1
 437 62 l 2,68,69
 463 62 463 62 481.5 80 c 128,-1,70
 500 98 500 98 500 123 c 2,71,-1
 500 369 l 2,72,73
 500 395 500 395 475.5 413.5 c 128,-1,74
 451 432 451 432 418 432 c 2,75,-1
 191 432 l 1,76,-1
 191 145 l 2,64,65
768 123 m 2,77,78
 768 98 768 98 785.5 80 c 128,-1,79
 803 62 803 62 828 62 c 2,80,-1
 951 62 l 2,81,82
 977 62 977 62 995.5 80 c 128,-1,83
 1014 98 1014 98 1014 123 c 2,84,-1
 1014 535 l 2,85,86
 1014 559 1014 559 978.5 593 c 128,-1,87
 943 627 943 627 881 662 c 1,88,89
 828 631 828 631 798 597.5 c 128,-1,90
 768 564 768 564 768 535 c 2,91,-1
 768 123 l 2,77,78
EndSplineSet
EndChar

StartChar: tm_halant
Encoding: 3021 3021 95
Width: 365
GlyphClass: 4
Flags: W
LayerCount: 2
Fore
SplineSet
100 1047 m 0,0,1
 100 1080 100 1080 124 1104.5 c 128,-1,2
 148 1129 148 1129 184 1129 c 0,3,4
 217 1129 217 1129 241.5 1104.5 c 128,-1,5
 266 1080 266 1080 266 1047 c 0,6,7
 266 1012 266 1012 241.5 987.5 c 128,-1,8
 217 963 217 963 184 963 c 0,9,10
 148 963 148 963 124 987.5 c 128,-1,11
 100 1012 100 1012 100 1047 c 0,0,1
EndSplineSet
EndChar

StartChar: tm_two
Encoding: 3048 3048 98
Width: 1425
GlyphClass: 2
Flags: W
LayerCount: 2
Fore
SplineSet
1244 70 m 1,0,-1
 1226 0 l 1,1,-1
 586 0 l 2,2,3
 429 0 429 0 429 106 c 0,4,5
 429 153 429 153 478 181.5 c 128,-1,6
 527 210 527 210 586 210 c 2,7,-1
 779 210 l 2,8,9
 867 210 867 210 928 271.5 c 128,-1,10
 989 333 989 333 989 420 c 0,11,12
 989 500 989 500 945 560.5 c 128,-1,13
 901 621 901 621 831 621 c 0,14,15
 793 621 793 621 744 595 c 1,16,17
 814 555 814 555 814 437 c 0,18,19
 814 382 814 382 772.5 344.5 c 128,-1,20
 731 307 731 307 675 307 c 0,21,22
 618 307 618 307 580 351 c 128,-1,23
 542 395 542 395 542 455 c 0,24,25
 542 565 542 565 646.5 632.5 c 128,-1,26
 751 700 751 700 884 700 c 0,27,28
 987 700 987 700 1058 629 c 128,-1,29
 1129 558 1129 558 1129 455 c 0,30,31
 1129 321 1129 321 1025.5 230.5 c 128,-1,32
 922 140 922 140 779 140 c 2,33,-1
 595 140 l 2,34,35
 551 140 551 140 551 106 c 0,36,37
 551 70 551 70 604 70 c 2,38,-1
 1244 70 l 1,0,-1
675 560 m 1,39,40
 621 516 621 516 621 473 c 0,41,42
 621 386 621 386 666 386 c 0,43,44
 709 386 709 386 709 473 c 0,45,46
 709 518 709 518 675 560 c 1,39,40
EndSplineSet
EndChar

StartChar: tm_three
Encoding: 3049 3049 99
Width: 1424
GlyphClass: 2
Flags: W
LayerCount: 2
Fore
SplineSet
1270 70 m 1,0,-1
 1252 0 l 1,1,-1
 640 0 l 1,2,-1
 657 70 l 1,3,-1
 780 70 l 2,4,5
 874 70 874 70 941 130.5 c 128,-1,6
 1008 191 1008 191 1008 280 c 0,7,8
 1008 317 1008 317 982.5 342.5 c 128,-1,9
 957 368 957 368 920 368 c 0,10,11
 890 368 890 368 865 341 c 128,-1,12
 840 314 840 314 833 280 c 2,13,-1
 815 193 l 1,14,-1
 675 193 l 1,15,-1
 764 630 l 1,16,-1
 571 630 l 1,17,-1
 444 0 l 1,18,-1
 378 0 l 1,19,-1
 517 700 l 1,20,-1
 1095 700 l 1,21,-1
 1077 630 l 1,22,-1
 902 630 l 1,23,-1
 859 403 l 1,24,25
 918 455 918 455 990 455 c 0,26,27
 1057 455 1057 455 1102.5 403.5 c 128,-1,28
 1148 352 1148 352 1148 280 c 0,29,30
 1148 209 1148 209 1090 151 c 128,-1,31
 1032 93 1032 93 947 70 c 1,32,-1
 1270 70 l 1,0,-1
EndSplineSet
EndChar

StartChar: tm_four
Encoding: 3050 3050 100
Width: 928
GlyphClass: 2
Flags: W
LayerCount: 2
Fore
SplineSet
70 145 m 2,0,-1
 70 320 l 2,1,2
 70 371 70 371 106.5 407 c 128,-1,3
 143 443 143 443 195 443 c 2,4,-1
 236 443 l 1,5,-1
 236 658 l 2,6,7
 236 709 236 709 272.5 745 c 128,-1,8
 309 781 309 781 359 781 c 2,9,-1
 914 781 l 1,10,-1
 914 719 l 1,11,-1
 646 719 l 1,12,-1
 646 443 l 1,13,-1
 852 443 l 1,14,-1
 852 383 l 1,15,-1
 646 383 l 1,16,-1
 646 123 l 2,17,18
 646 72 646 72 610 36 c 128,-1,19
 574 0 574 0 523 0 c 2,20,-1
 215 0 l 2,21,22
 154 0 154 0 112 42 c 128,-1,23
 70 84 70 84 70 145 c 2,0,-1
133 145 m 2,24,25
 133 111 133 111 157.5 86.5 c 128,-1,26
 182 62 182 62 215 62 c 2,27,-1
 523 62 l 2,28,29
 549 62 549 62 567.5 80 c 128,-1,30
 586 98 586 98 586 123 c 2,31,-1
 586 383 l 1,32,-1
 195 383 l 2,33,34
 170 383 170 383 151.5 364.5 c 128,-1,35
 133 346 133 346 133 320 c 2,36,-1
 133 145 l 2,24,25
297 443 m 1,37,-1
 586 443 l 1,38,-1
 586 719 l 1,39,-1
 359 719 l 2,40,41
 334 719 334 719 315.5 701.5 c 128,-1,42
 297 684 297 684 297 658 c 2,43,-1
 297 443 l 1,37,-1
EndSplineSet
EndChar

StartChar: tm_five
Encoding: 3051 3051 101
Width: 1424
GlyphClass: 2
Flags: W
LayerCount: 2
Fore
SplineSet
1412 517 m 1,0,-1
 1359 526 l 1,1,2
 1369 563 1369 563 1369 598 c 0,3,4
 1369 723 1369 723 1253.5 825.5 c 128,-1,5
 1138 928 1138 928 965 928 c 0,6,7
 728 928 728 928 575.5 716 c 128,-1,8
 423 504 423 504 423 228 c 0,9,10
 423 -43 423 -43 515 -179.5 c 128,-1,11
 607 -316 607 -316 790 -316 c 0,12,13
 979 -316 979 -316 1103.5 -163.5 c 128,-1,14
 1228 -11 1228 -11 1228 193 c 0,15,16
 1228 257 1228 257 1200 304.5 c 128,-1,17
 1172 352 1172 352 1126 352 c 0,18,19
 1099 352 1099 352 1072.5 336.5 c 128,-1,20
 1046 321 1046 321 1039 298 c 2,21,-1
 980 0 l 1,22,-1
 840 0 l 1,23,-1
 965 630 l 1,24,-1
 759 630 l 1,25,-1
 634 0 l 1,26,-1
 566 0 l 1,27,-1
 706 700 l 1,28,-1
 1237 700 l 1,29,-1
 1219 630 l 1,30,-1
 1105 630 l 1,31,-1
 1057 386 l 1,32,33
 1101 437 1101 437 1171 437 c 0,34,35
 1261 437 1261 437 1314.5 368.5 c 128,-1,36
 1368 300 1368 300 1368 193 c 0,37,38
 1368 -47 1368 -47 1202.5 -216 c 128,-1,39
 1037 -385 1037 -385 799 -385 c 0,40,41
 589 -385 589 -385 471.5 -223 c 128,-1,42
 354 -61 354 -61 354 193 c 0,43,44
 354 513 354 513 519 764 c 128,-1,45
 684 1015 684 1015 948 1015 c 0,46,47
 1152 1015 1152 1015 1288.5 889.5 c 128,-1,48
 1425 764 1425 764 1425 613 c 0,49,50
 1425 566 1425 566 1412 517 c 1,0,-1
EndSplineSet
EndChar

StartChar: tm_six
Encoding: 3052 3052 102
Width: 1424
GlyphClass: 2
Flags: W
LayerCount: 2
Fore
SplineSet
784 316 m 1,0,-1
 513 316 l 2,1,2
 469 316 469 316 438 291 c 128,-1,3
 407 266 407 266 407 228 c 0,4,5
 407 158 407 158 477 114 c 128,-1,6
 547 70 547 70 635 70 c 0,7,8
 680 70 680 70 713 99.5 c 128,-1,9
 746 129 746 129 756 175 c 2,10,-1
 784 316 l 1,0,-1
846 630 m 1,11,-1
 653 630 l 1,12,-1
 603 386 l 1,13,-1
 798 386 l 1,14,-1
 846 630 l 1,11,-1
910 245 m 2,15,16
 884 125 884 125 808 62.5 c 128,-1,17
 732 0 732 0 635 0 c 0,18,19
 518 0 518 0 428 64 c 128,-1,20
 338 128 338 128 338 228 c 0,21,22
 338 294 338 294 389.5 340 c 128,-1,23
 441 386 441 386 513 386 c 2,24,-1
 537 386 l 1,25,-1
 600 700 l 1,26,-1
 1229 700 l 1,27,-1
 1213 630 l 1,28,-1
 988 630 l 1,29,-1
 938 386 l 1,30,-1
 1422 386 l 1,31,-1
 1410 316 l 1,32,-1
 1353 316 l 1,33,-1
 1291 0 l 1,34,-1
 1151 0 l 1,35,-1
 1213 316 l 1,36,-1
 1116 316 l 1,37,-1
 1055 0 l 1,38,-1
 967 0 l 1,39,-1
 1028 316 l 1,40,-1
 924 316 l 1,41,-1
 910 245 l 2,15,16
EndSplineSet
EndChar

StartChar: tm_seven
Encoding: 3053 3053 103
Width: 1425
GlyphClass: 2
Flags: W
LayerCount: 2
Fore
SplineSet
643 88 m 1,0,1
 706 88 706 88 753 128 c 128,-1,2
 800 168 800 168 800 228 c 0,3,4
 800 269 800 269 781 301 c 128,-1,5
 762 333 762 333 729 333 c 0,6,7
 684 333 684 333 654.5 296.5 c 128,-1,8
 625 260 625 260 625 210 c 0,9,10
 625 135 625 135 643 88 c 1,0,1
1042 0 m 1,11,-1
 1167 630 l 1,12,-1
 852 630 l 2,13,14
 704 630 704 630 594.5 540.5 c 128,-1,15
 485 451 485 451 485 316 c 0,16,17
 485 247 485 247 507 194.5 c 128,-1,18
 529 142 529 142 572 106 c 1,19,20
 555 135 555 135 555 228 c 256,21,22
 555 321 555 321 614.5 388 c 128,-1,23
 674 455 674 455 765 455 c 0,24,25
 837 455 837 455 884 398 c 128,-1,26
 931 341 931 341 931 263 c 0,27,28
 931 155 931 155 863 77.5 c 128,-1,29
 795 0 795 0 695 0 c 0,30,31
 576 0 576 0 495.5 94 c 128,-1,32
 415 188 415 188 415 316 c 0,33,34
 415 481 415 481 545.5 590.5 c 128,-1,35
 676 700 676 700 852 700 c 2,36,-1
 1430 700 l 1,37,-1
 1412 630 l 1,38,-1
 1307 630 l 1,39,-1
 1181 0 l 1,40,-1
 1042 0 l 1,11,-1
EndSplineSet
EndChar

StartChar: tm_eight
Encoding: 3054 3054 104
Width: 1427
GlyphClass: 2
Flags: W
LayerCount: 2
Fore
SplineSet
849 629 m 1,0,1
 745 611 745 611 670 548.5 c 128,-1,2
 595 486 595 486 595 402 c 0,3,4
 595 338 595 338 638.5 291 c 128,-1,5
 682 244 682 244 744 244 c 0,6,7
 817 244 817 244 864 307.5 c 128,-1,8
 911 371 911 371 911 454 c 0,9,10
 911 580 911 580 849 629 c 1,0,1
1024 140 m 1,11,-1
 411 140 l 2,12,13
 381 140 381 140 357 125 c 128,-1,14
 333 110 333 110 333 87 c 0,15,16
 333 43 333 43 412 -13.5 c 128,-1,17
 491 -70 491 -70 639 -70 c 0,18,19
 743 -70 743 -70 839.5 -18 c 128,-1,20
 936 34 936 34 1024 140 c 1,11,-1
1414 -245 m 1,21,-1
 1269 -245 l 1,22,-1
 1348 140 l 1,23,-1
 1164 140 l 1,24,25
 1051 4 1051 4 915 -63.5 c 128,-1,26
 779 -131 779 -131 621 -131 c 0,27,28
 421 -131 421 -131 311.5 -52.5 c 128,-1,29
 202 26 202 26 202 123 c 0,30,31
 202 160 202 160 233 184.5 c 128,-1,32
 264 209 264 209 307 209 c 2,33,-1
 666 209 l 1,34,35
 604 231 604 231 565 284.5 c 128,-1,36
 526 338 526 338 526 402 c 0,37,38
 526 534 526 534 652 617 c 128,-1,39
 778 700 778 700 937 700 c 0,40,41
 1069 700 1069 700 1169 620.5 c 128,-1,42
 1269 541 1269 541 1269 420 c 0,43,44
 1269 306 1269 306 1213 209 c 1,45,-1
 1364 209 l 1,46,-1
 1463 700 l 1,47,-1
 1603 700 l 1,48,-1
 1414 -245 l 1,21,-1
989 620 m 1,49,50
 1042 530 1042 530 1042 411 c 0,51,52
 1042 267 1042 267 919 209 c 1,53,-1
 1077 209 l 1,54,55
 1146 308 1146 308 1146 402 c 0,56,57
 1146 486 1146 486 1103 553 c 128,-1,58
 1060 620 1060 620 989 620 c 1,49,50
EndSplineSet
EndChar

StartChar: tm_nine
Encoding: 3055 3055 105
Width: 1427
GlyphClass: 2
Flags: W
LayerCount: 2
Fore
SplineSet
692 316 m 1,0,-1
 422 316 l 2,1,2
 379 316 379 316 348 291 c 128,-1,3
 317 266 317 266 317 228 c 0,4,5
 317 158 317 158 387 114 c 128,-1,6
 457 70 457 70 544 70 c 0,7,8
 589 70 589 70 622 99.5 c 128,-1,9
 655 129 655 129 665 175 c 2,10,-1
 692 316 l 1,0,-1
756 630 m 1,11,-1
 562 630 l 1,12,-1
 513 386 l 1,13,-1
 707 386 l 1,14,-1
 756 630 l 1,11,-1
1157 175 m 0,15,16
 1157 259 1157 259 1052 298 c 1,17,18
 982 240 982 240 982 158 c 0,19,20
 982 121 982 121 1007.5 95.5 c 128,-1,21
 1033 70 1033 70 1068 70 c 0,22,23
 1107 70 1107 70 1132 101.5 c 128,-1,24
 1157 133 1157 133 1157 175 c 0,15,16
1297 0 m 1,25,26
 1375 93 1375 93 1375 193 c 0,27,28
 1375 263 1375 263 1332.5 315.5 c 128,-1,29
 1290 368 1290 368 1226 368 c 0,30,31
 1163 368 1163 368 1113 342 c 1,32,33
 1167 322 1167 322 1201 276.5 c 128,-1,34
 1235 231 1235 231 1235 175 c 0,35,36
 1235 104 1235 104 1187 52 c 128,-1,37
 1139 0 1139 0 1068 0 c 0,38,39
 1005 0 1005 0 958.5 46.5 c 128,-1,40
 912 93 912 93 912 158 c 0,41,42
 912 257 912 257 982 316 c 1,43,-1
 833 316 l 1,44,-1
 819 245 l 2,45,46
 795 125 795 125 718.5 62.5 c 128,-1,47
 642 0 642 0 544 0 c 0,48,49
 428 0 428 0 337 64 c 128,-1,50
 246 128 246 128 246 228 c 0,51,52
 246 294 246 294 299 340 c 128,-1,53
 352 386 352 386 422 386 c 2,54,-1
 446 386 l 1,55,-1
 508 700 l 1,56,-1
 1122 700 l 1,57,-1
 1104 630 l 1,58,-1
 896 630 l 1,59,-1
 847 386 l 1,60,-1
 947 386 l 2,61,62
 1014 386 1014 386 1052 368 c 1,63,64
 1111 420 1111 420 1226 420 c 0,65,66
 1327 420 1327 420 1399.5 354.5 c 128,-1,67
 1472 289 1472 289 1472 193 c 0,68,69
 1472 109 1472 109 1410 0 c 1,70,-1
 1297 0 l 1,25,26
EndSplineSet
EndChar

StartChar: tm_ten
Encoding: 3056 3056 106
Width: 1139
GlyphClass: 2
Flags: W
LayerCount: 2
Fore
SplineSet
123 705 m 1,0,-1
 184 705 l 1,1,-1
 184 111 l 2,2,3
 184 88 184 88 202.5 71.5 c 128,-1,4
 221 55 221 55 246 55 c 2,5,-1
 473 55 l 2,6,7
 498 55 498 55 515.5 71.5 c 128,-1,8
 533 88 533 88 533 111 c 2,9,-1
 533 705 l 1,10,-1
 596 705 l 1,11,-1
 596 111 l 2,12,13
 596 88 596 88 613.5 71.5 c 128,-1,14
 631 55 631 55 656 55 c 2,15,-1
 883 55 l 2,16,17
 908 55 908 55 926.5 71.5 c 128,-1,18
 945 88 945 88 945 111 c 2,19,-1
 945 779 l 2,20,21
 945 811 945 811 920.5 832.5 c 128,-1,22
 896 854 896 854 863 854 c 2,23,-1
 344 854 l 1,24,-1
 344 908 l 1,25,-1
 863 908 l 2,26,27
 922 908 922 908 964 870 c 128,-1,28
 1006 832 1006 832 1006 779 c 2,29,-1
 1006 111 l 2,30,31
 1006 64 1006 64 970 32 c 128,-1,32
 934 0 934 0 883 0 c 2,33,-1
 656 0 l 2,34,35
 627 0 627 0 602.5 19.5 c 128,-1,36
 578 39 578 39 564 70 c 1,37,38
 551 39 551 39 526.5 19.5 c 128,-1,39
 502 0 502 0 473 0 c 2,40,-1
 246 0 l 2,41,42
 195 0 195 0 159 32 c 128,-1,43
 123 64 123 64 123 111 c 2,44,-1
 123 705 l 1,0,-1
EndSplineSet
EndChar

StartChar: tm_hundred
Encoding: 3057 3057 107
Width: 1229
GlyphClass: 2
Flags: W
LayerCount: 2
Fore
SplineSet
135 0 m 1,0,-1
 135 658 l 2,1,2
 135 709 135 709 171 745 c 128,-1,3
 207 781 207 781 258 781 c 2,4,-1
 484 781 l 2,5,6
 514 781 514 781 538 759.5 c 128,-1,7
 562 738 562 738 576 703 c 1,8,9
 590 738 590 738 614.5 759.5 c 128,-1,10
 639 781 639 781 668 781 c 2,11,-1
 1221 781 l 1,12,-1
 1221 719 l 1,13,-1
 1016 719 l 1,14,-1
 1016 0 l 1,15,-1
 953 0 l 1,16,-1
 953 719 l 1,17,-1
 666 719 l 2,18,19
 643 719 643 719 625 701.5 c 128,-1,20
 607 684 607 684 607 658 c 2,21,-1
 607 0 l 1,22,-1
 545 0 l 1,23,-1
 545 658 l 2,24,25
 545 684 545 684 527.5 701.5 c 128,-1,26
 510 719 510 719 484 719 c 2,27,-1
 258 719 l 2,28,29
 232 719 232 719 213.5 701.5 c 128,-1,30
 195 684 195 684 195 658 c 2,31,-1
 195 0 l 1,32,-1
 135 0 l 1,0,-1
EndSplineSet
EndChar

StartChar: tm_thousand
Encoding: 3058 3058 108
Width: 1207
GlyphClass: 2
Flags: W
LayerCount: 2
Fore
SplineSet
74 145 m 2,0,-1
 74 350 l 2,1,2
 74 400 74 400 110 436.5 c 128,-1,3
 146 473 146 473 197 473 c 2,4,-1
 238 473 l 1,5,-1
 238 658 l 2,6,7
 238 709 238 709 274.5 745 c 128,-1,8
 311 781 311 781 361 781 c 2,9,-1
 916 781 l 1,10,-1
 916 719 l 1,11,-1
 648 719 l 1,12,-1
 648 473 l 1,13,-1
 1061 473 l 1,14,-1
 1061 412 l 1,15,-1
 875 412 l 1,16,-1
 875 215 l 1,17,18
 893 230 893 230 909.5 238 c 128,-1,19
 926 246 926 246 937 246 c 2,20,-1
 1039 246 l 2,21,22
 1092 246 1092 246 1128 210 c 128,-1,23
 1164 174 1164 174 1164 123 c 2,24,-1
 1164 -104 l 2,25,26
 1164 -154 1164 -154 1128 -190.5 c 128,-1,27
 1092 -227 1092 -227 1041 -227 c 2,28,-1
 287 -227 l 2,29,30
 262 -227 262 -227 243.5 -244.5 c 128,-1,31
 225 -262 225 -262 225 -287 c 2,32,-1
 225 -387 l 1,33,-1
 164 -387 l 1,34,-1
 164 -287 l 2,35,36
 164 -236 164 -236 200 -200 c 128,-1,37
 236 -164 236 -164 287 -164 c 2,38,-1
 1041 -164 l 2,39,40
 1066 -164 1066 -164 1085 -146.5 c 128,-1,41
 1104 -129 1104 -129 1104 -104 c 2,42,-1
 1102 123 l 2,43,44
 1102 148 1102 148 1083 167 c 128,-1,45
 1064 186 1064 186 1039 186 c 2,46,-1
 937 186 l 2,47,48
 912 186 912 186 893.5 167 c 128,-1,49
 875 148 875 148 875 123 c 2,50,-1
 875 0 l 1,51,-1
 814 0 l 1,52,-1
 814 412 l 1,53,-1
 648 412 l 1,54,-1
 648 123 l 2,55,56
 648 72 648 72 612 36 c 128,-1,57
 576 0 576 0 525 0 c 2,58,-1
 217 0 l 2,59,60
 158 0 158 0 116 42 c 128,-1,61
 74 84 74 84 74 145 c 2,0,-1
135 145 m 2,62,63
 135 111 135 111 159.5 86.5 c 128,-1,64
 184 62 184 62 217 62 c 2,65,-1
 525 62 l 2,66,67
 551 62 551 62 569.5 80 c 128,-1,68
 588 98 588 98 588 123 c 2,69,-1
 588 412 l 1,70,-1
 197 412 l 2,71,72
 172 412 172 412 153.5 393.5 c 128,-1,73
 135 375 135 375 135 350 c 2,74,-1
 135 145 l 2,62,63
299 473 m 1,75,-1
 588 473 l 1,76,-1
 588 719 l 1,77,-1
 361 719 l 2,78,79
 336 719 336 719 317.5 701.5 c 128,-1,80
 299 684 299 684 299 658 c 2,81,-1
 299 473 l 1,75,-1
EndSplineSet
EndChar

StartChar: zerowidthnonjoiner
Encoding: 8204 8204 109
Width: 0
GlyphClass: 2
Flags: W
LayerCount: 2
Fore
SplineSet
315 1225 m 1,0,-1
 -34 -516 l 1,1,-1
 -103 -516 l 1,2,-1
 244 1225 l 1,3,-1
 315 1225 l 1,0,-1
EndSplineSet
EndChar

StartChar: zerowidthjoiner
Encoding: 8205 8205 110
Width: 0
GlyphClass: 2
Flags: W
LayerCount: 2
Fore
SplineSet
415 997 m 1,0,-1
 363 953 l 1,1,-1
 270 1073 l 1,2,-1
 -24 -441 l 1,3,-1
 -87 -441 l 1,4,-1
 206 1073 l 1,5,-1
 65 953 l 1,6,-1
 32 997 l 1,7,-1
 210 1145 l 1,8,-1
 89 1292 l 1,9,-1
 140 1334 l 1,10,-1
 260 1185 l 1,11,-1
 437 1334 l 1,12,-1
 472 1292 l 1,13,-1
 294 1145 l 1,14,-1
 415 997 l 1,0,-1
EndSplineSet
EndChar

StartChar: u2013
Encoding: 8211 8211 111
Width: 722
GlyphClass: 2
Flags: W
LayerCount: 2
Fore
SplineSet
733 319 m 1,0,-1
 -12 319 l 1,1,-1
 -12 370 l 1,2,-1
 733 370 l 1,3,-1
 733 319 l 1,0,-1
EndSplineSet
EndChar

StartChar: u2014
Encoding: 8212 8212 112
Width: 1284
GlyphClass: 2
Flags: W
LayerCount: 2
Fore
SplineSet
1296 318 m 1,0,-1
 -13 319 l 1,1,-1
 -13 371 l 1,2,-1
 1296 370 l 1,3,-1
 1296 318 l 1,0,-1
EndSplineSet
EndChar

StartChar: u2018
Encoding: 65539 -1 113
Width: 531
GlyphClass: 2
Flags: W
LayerCount: 2
Fore
SplineSet
137 719 m 0,0,1
 137 801 137 801 199.5 885 c 128,-1,2
 262 969 262 969 369 1031 c 1,3,-1
 395 1002 l 1,4,5
 314 955 314 955 260.5 899.5 c 128,-1,6
 207 844 207 844 186 785 c 1,7,8
 232 785 232 785 266.5 765.5 c 128,-1,9
 301 746 301 746 301 719 c 0,10,11
 301 676 301 676 276.5 646.5 c 128,-1,12
 252 617 252 617 219 617 c 256,13,14
 186 617 186 617 161.5 646.5 c 128,-1,15
 137 676 137 676 137 719 c 0,0,1
EndSplineSet
EndChar

StartChar: u2019
Encoding: 65540 -1 114
Width: 531
GlyphClass: 2
Flags: W
LayerCount: 2
Fore
SplineSet
137 600 m 1,0,1
 215 645 215 645 267.5 700.5 c 128,-1,2
 320 756 320 756 342 816 c 1,3,4
 295 816 295 816 262 841.5 c 128,-1,5
 229 867 229 867 229 904 c 0,6,7
 229 937 229 937 253 961.5 c 128,-1,8
 277 986 277 986 312 986 c 0,9,10
 346 986 346 986 370.5 961.5 c 128,-1,11
 395 937 395 937 395 904 c 0,12,13
 395 812 395 812 332.5 724.5 c 128,-1,14
 270 637 270 637 162 574 c 1,15,-1
 137 600 l 1,0,1
EndSplineSet
EndChar

StartChar: u201C
Encoding: 65541 -1 115
Width: 680
GlyphClass: 2
Flags: W
LayerCount: 2
Fore
SplineSet
8 968 m 1,0,1
 38 1064 38 1064 118 1150 c 128,-1,2
 198 1236 198 1236 290 1266 c 1,3,-1
 286 1234 l 1,4,5
 200 1172 200 1172 166 1136 c 1,6,7
 106 1060 106 1060 106 1000 c 1,8,-1
 110 968 l 1,9,-1
 144 966 l 1,10,-1
 198 956 l 1,11,12
 230 942 230 942 230 910 c 1,13,-1
 226 882 l 1,14,15
 202 786 202 786 122 786 c 0,16,17
 4 786 4 786 4 926 c 1,18,-1
 8 968 l 1,0,1
328 968 m 1,19,20
 358 1064 358 1064 438 1150 c 128,-1,21
 518 1236 518 1236 610 1266 c 1,22,-1
 606 1234 l 1,23,24
 520 1172 520 1172 486 1136 c 1,25,26
 426 1060 426 1060 426 1000 c 1,27,-1
 430 968 l 1,28,-1
 464 966 l 1,29,-1
 518 956 l 1,30,31
 550 942 550 942 550 910 c 1,32,-1
 546 882 l 1,33,34
 522 786 522 786 442 786 c 0,35,36
 324 786 324 786 324 926 c 1,37,-1
 328 968 l 1,19,20
EndSplineSet
EndChar

StartChar: u201D
Encoding: 65542 -1 116
Width: 696
GlyphClass: 2
Flags: W
LayerCount: 2
Fore
SplineSet
304 1074 m 1,0,1
 276 972 276 972 198 888 c 128,-1,2
 120 804 120 804 20 778 c 1,3,-1
 28 808 l 1,4,5
 120 880 120 880 142 904 c 0,6,7
 208 978 208 978 208 1034 c 1,8,-1
 206 1054 l 1,9,-1
 200 1074 l 1,10,-1
 108 1082 l 1,11,12
 82 1096 82 1096 82 1126 c 2,13,-1
 86 1156 l 1,14,15
 122 1258 122 1258 192 1258 c 0,16,17
 308 1258 308 1258 308 1114 c 1,18,-1
 304 1074 l 1,0,1
624 1074 m 1,19,20
 596 972 596 972 518 888 c 128,-1,21
 440 804 440 804 340 778 c 1,22,-1
 348 808 l 1,23,24
 440 880 440 880 462 904 c 0,25,26
 528 978 528 978 528 1034 c 1,27,-1
 526 1054 l 1,28,-1
 520 1074 l 1,29,-1
 428 1082 l 1,30,31
 402 1096 402 1096 402 1126 c 2,32,-1
 406 1156 l 1,33,34
 442 1258 442 1258 512 1258 c 0,35,36
 628 1258 628 1258 628 1114 c 1,37,-1
 624 1074 l 1,19,20
EndSplineSet
EndChar

StartChar: u2026
Encoding: 8230 8230 117
Width: 1283
GlyphClass: 2
Flags: W
LayerCount: 2
Fore
SplineSet
265 136 m 0,0,1
 298 136 298 136 320.5 114 c 128,-1,2
 343 92 343 92 343 58 c 0,3,4
 343 26 343 26 320.5 3 c 128,-1,5
 298 -20 298 -20 265 -20 c 0,6,7
 233 -20 233 -20 210 3 c 128,-1,8
 187 26 187 26 187 58 c 0,9,10
 187 92 187 92 210 114 c 128,-1,11
 233 136 233 136 265 136 c 0,0,1
638 136 m 256,12,13
 670 136 670 136 693 114 c 128,-1,14
 716 92 716 92 716 58 c 0,15,16
 716 26 716 26 692.5 3 c 128,-1,17
 669 -20 669 -20 638 -20 c 0,18,19
 606 -20 606 -20 583 3 c 128,-1,20
 560 26 560 26 560 58 c 0,21,22
 560 92 560 92 583 114 c 128,-1,23
 606 136 606 136 638 136 c 256,12,13
1010 136 m 0,24,25
 1043 136 1043 136 1066 114 c 128,-1,26
 1089 92 1089 92 1089 58 c 0,27,28
 1089 26 1089 26 1065.5 3 c 128,-1,29
 1042 -20 1042 -20 1010 -20 c 256,30,31
 978 -20 978 -20 955.5 3 c 128,-1,32
 933 26 933 26 933 58 c 0,33,34
 933 92 933 92 955.5 114 c 128,-1,35
 978 136 978 136 1010 136 c 0,24,25
EndSplineSet
EndChar

StartChar: u2212
Encoding: 8722 8722 118
Width: 974
GlyphClass: 2
Flags: W
LayerCount: 2
Fore
SplineSet
133 450 m 1,0,-1
 133 508 l 1,1,-1
 894 508 l 1,2,-1
 894 450 l 1,3,-1
 133 450 l 1,0,-1
EndSplineSet
EndChar

StartChar: u25CC
Encoding: 9676 9676 119
Width: 1167
GlyphClass: 2
Flags: W
LayerCount: 2
Fore
SplineSet
654 665 m 0,0,1
 626 665 626 665 612 679 c 128,-1,2
 598 693 598 693 598 724 c 0,3,4
 598 746 598 746 615 762.5 c 128,-1,5
 632 779 632 779 654 779 c 0,6,7
 683 779 683 779 697.5 765 c 128,-1,8
 712 751 712 751 712 724 c 0,9,10
 712 693 712 693 697.5 679 c 128,-1,11
 683 665 683 665 654 665 c 0,0,1
840 616 m 0,12,13
 811 616 811 616 796.5 630.5 c 128,-1,14
 782 645 782 645 782 674 c 0,15,16
 782 701 782 701 796.5 715 c 128,-1,17
 811 729 811 729 840 729 c 0,18,19
 862 729 862 729 879 713 c 128,-1,20
 896 697 896 697 896 674 c 0,21,22
 896 645 896 645 882 630.5 c 128,-1,23
 868 616 868 616 840 616 c 0,12,13
470 616 m 0,24,25
 442 616 442 616 428 630.5 c 128,-1,26
 414 645 414 645 414 674 c 0,27,28
 414 697 414 697 431 713 c 128,-1,29
 448 729 448 729 470 729 c 0,30,31
 494 729 494 729 510 713 c 128,-1,32
 526 697 526 697 526 674 c 0,33,34
 526 645 526 645 512.5 630.5 c 128,-1,35
 499 616 499 616 470 616 c 0,24,25
973 482 m 0,36,37
 951 482 951 482 933.5 498 c 128,-1,38
 916 514 916 514 916 538 c 0,39,40
 916 567 916 567 930.5 581 c 128,-1,41
 945 595 945 595 973 595 c 256,42,43
 1001 595 1001 595 1014.5 581 c 128,-1,44
 1028 567 1028 567 1028 538 c 0,45,46
 1028 514 1028 514 1012 498 c 128,-1,47
 996 482 996 482 973 482 c 0,36,37
336 482 m 0,48,49
 307 482 307 482 293 495.5 c 128,-1,50
 279 509 279 509 279 538 c 256,51,52
 279 567 279 567 293 581 c 128,-1,53
 307 595 307 595 336 595 c 0,54,55
 364 595 364 595 378 581 c 128,-1,56
 392 567 392 567 392 538 c 0,57,58
 392 514 392 514 375 498 c 128,-1,59
 358 482 358 482 336 482 c 0,48,49
1024 298 m 0,60,61
 994 298 994 298 979.5 311.5 c 128,-1,62
 965 325 965 325 965 354 c 0,63,64
 965 382 965 382 979.5 396 c 128,-1,65
 994 410 994 410 1024 410 c 0,66,67
 1046 410 1046 410 1063 393 c 128,-1,68
 1080 376 1080 376 1080 354 c 0,69,70
 1080 331 1080 331 1063 314.5 c 128,-1,71
 1046 298 1046 298 1024 298 c 0,60,61
287 298 m 0,72,73
 257 298 257 298 243 311.5 c 128,-1,74
 229 325 229 325 229 354 c 0,75,76
 229 382 229 382 243 396 c 128,-1,77
 257 410 257 410 287 410 c 0,78,79
 310 410 310 410 326.5 393 c 128,-1,80
 343 376 343 376 343 354 c 0,81,82
 343 331 343 331 326.5 314.5 c 128,-1,83
 310 298 310 298 287 298 c 0,72,73
973 112 m 256,84,85
 945 112 945 112 930.5 126.5 c 128,-1,86
 916 141 916 141 916 169 c 0,87,88
 916 193 916 193 933.5 209.5 c 128,-1,89
 951 226 951 226 973 226 c 0,90,91
 996 226 996 226 1012 209.5 c 128,-1,92
 1028 193 1028 193 1028 169 c 0,93,94
 1028 141 1028 141 1014.5 126.5 c 128,-1,95
 1001 112 1001 112 973 112 c 256,84,85
336 112 m 0,96,97
 307 112 307 112 293 126.5 c 128,-1,98
 279 141 279 141 279 169 c 0,99,100
 279 198 279 198 293 212 c 128,-1,101
 307 226 307 226 336 226 c 0,102,103
 358 226 358 226 375 209.5 c 128,-1,104
 392 193 392 193 392 169 c 0,105,106
 392 141 392 141 378 126.5 c 128,-1,107
 364 112 364 112 336 112 c 0,96,97
840 -22 m 0,108,109
 811 -22 811 -22 796.5 -8 c 128,-1,110
 782 6 782 6 782 34 c 0,111,112
 782 63 782 63 796.5 78 c 128,-1,113
 811 93 811 93 840 93 c 0,114,115
 863 93 863 93 879.5 75 c 128,-1,116
 896 57 896 57 896 34 c 256,117,118
 896 11 896 11 879 -5.5 c 128,-1,119
 862 -22 862 -22 840 -22 c 0,108,109
470 -22 m 0,120,121
 448 -22 448 -22 431 -5.5 c 128,-1,122
 414 11 414 11 414 34 c 256,123,124
 414 57 414 57 430.5 75 c 128,-1,125
 447 93 447 93 470 93 c 0,126,127
 495 93 495 93 510.5 75 c 128,-1,128
 526 57 526 57 526 34 c 256,129,130
 526 11 526 11 510 -5.5 c 128,-1,131
 494 -22 494 -22 470 -22 c 0,120,121
654 -72 m 0,132,133
 632 -72 632 -72 615 -55 c 128,-1,134
 598 -38 598 -38 598 -16 c 0,135,136
 598 14 598 14 612 28.5 c 128,-1,137
 626 43 626 43 654 43 c 0,138,139
 683 43 683 43 697.5 28.5 c 128,-1,140
 712 14 712 14 712 -16 c 0,141,142
 712 -44 712 -44 697.5 -58 c 128,-1,143
 683 -72 683 -72 654 -72 c 0,132,133
EndSplineSet
EndChar

StartChar: tm_k_ikaar
Encoding: 65543 -1 120
Width: 1465
GlyphClass: 2
Flags: W
LayerCount: 2
Fore
SplineSet
70 145 m 2,0,-1
 70 320 l 2,1,2
 70 371 70 371 106.5 407 c 128,-1,3
 143 443 143 443 195 443 c 2,4,-1
 236 443 l 1,5,-1
 236 658 l 2,6,7
 236 709 236 709 272.5 745 c 128,-1,8
 309 781 309 781 359 781 c 2,9,-1
 641 781 l 1,10,11
 615 803 615 803 600.5 830 c 128,-1,12
 586 857 586 857 586 885 c 2,13,-1
 586 1119 l 2,14,15
 586 1170 586 1170 622 1206 c 128,-1,16
 658 1242 658 1242 709 1242 c 2,17,-1
 1203 1242 l 2,18,19
 1256 1242 1256 1242 1292 1206 c 128,-1,20
 1328 1170 1328 1170 1328 1119 c 2,21,-1
 1328 0 l 1,22,-1
 1266 0 l 1,23,-1
 1266 1119 l 2,24,25
 1266 1145 1266 1145 1247.5 1162.5 c 128,-1,26
 1229 1180 1229 1180 1203 1180 c 2,27,-1
 709 1180 l 2,28,29
 684 1180 684 1180 665 1162.5 c 128,-1,30
 646 1145 646 1145 646 1119 c 2,31,-1
 646 885 l 2,32,33
 646 842 646 842 670.5 811.5 c 128,-1,34
 695 781 695 781 729 781 c 2,35,-1
 914 781 l 1,36,-1
 914 719 l 1,37,-1
 646 719 l 1,38,-1
 646 443 l 1,39,-1
 936 443 l 2,40,41
 986 443 986 443 1022.5 407 c 128,-1,42
 1059 371 1059 371 1059 320 c 2,43,-1
 1059 123 l 2,44,45
 1059 72 1059 72 1022.5 36 c 128,-1,46
 986 0 986 0 936 0 c 2,47,-1
 811 0 l 1,48,-1
 811 62 l 1,49,-1
 936 62 l 2,50,51
 961 62 961 62 978.5 80 c 128,-1,52
 996 98 996 98 996 123 c 2,53,-1
 996 320 l 2,54,55
 996 346 996 346 978.5 364.5 c 128,-1,56
 961 383 961 383 936 383 c 2,57,-1
 646 383 l 1,58,-1
 646 123 l 2,59,60
 646 72 646 72 610 36 c 128,-1,61
 574 0 574 0 523 0 c 2,62,-1
 215 0 l 2,63,64
 154 0 154 0 112 42 c 128,-1,65
 70 84 70 84 70 145 c 2,0,-1
133 145 m 2,66,67
 133 111 133 111 157.5 86.5 c 128,-1,68
 182 62 182 62 215 62 c 2,69,-1
 523 62 l 2,70,71
 549 62 549 62 567.5 80 c 128,-1,72
 586 98 586 98 586 123 c 2,73,-1
 586 383 l 1,74,-1
 195 383 l 2,75,76
 170 383 170 383 151.5 364.5 c 128,-1,77
 133 346 133 346 133 320 c 2,78,-1
 133 145 l 2,66,67
297 443 m 1,79,-1
 586 443 l 1,80,-1
 586 719 l 1,81,-1
 359 719 l 2,82,83
 334 719 334 719 315.5 701.5 c 128,-1,84
 297 684 297 684 297 658 c 2,85,-1
 297 443 l 1,79,-1
EndSplineSet
Ligature2: "'psts' Post Base Substitutions lookup 8 subtable" tm_ka tm_ikaar
EndChar

StartChar: tm_ng_ikaar
Encoding: 65544 -1 121
Width: 1916
GlyphClass: 2
Flags: W
LayerCount: 2
Fore
SplineSet
135 0 m 1,0,-1
 135 658 l 2,1,2
 135 709 135 709 171 745 c 128,-1,3
 207 781 207 781 258 781 c 2,4,-1
 916 781 l 1,5,-1
 916 719 l 1,6,-1
 607 719 l 1,7,-1
 607 414 l 1,8,9
 631 434 631 434 651.5 443.5 c 128,-1,10
 672 453 672 453 689 453 c 2,11,-1
 895 453 l 2,12,13
 945 453 945 453 981.5 417 c 128,-1,14
 1018 381 1018 381 1018 328 c 2,15,-1
 1018 145 l 2,16,17
 1018 121 1018 121 1008 99.5 c 128,-1,18
 998 78 998 78 979 62 c 1,19,-1
 1408 62 l 1,20,-1
 1408 576 l 1,21,-1
 1285 576 l 2,22,23
 1234 576 1234 576 1198 612 c 128,-1,24
 1162 648 1162 648 1162 699 c 2,25,-1
 1162 1119 l 2,26,27
 1162 1170 1162 1170 1198 1206 c 128,-1,28
 1234 1242 1234 1242 1285 1242 c 2,29,-1
 1656 1242 l 2,30,31
 1707 1242 1707 1242 1743 1206 c 128,-1,32
 1779 1170 1779 1170 1779 1119 c 2,33,-1
 1779 0 l 1,34,-1
 1717 0 l 1,35,-1
 1717 1119 l 2,36,37
 1717 1145 1717 1145 1699.5 1162.5 c 128,-1,38
 1682 1180 1682 1180 1656 1180 c 2,39,-1
 1285 1180 l 2,40,41
 1260 1180 1260 1180 1242.5 1162.5 c 128,-1,42
 1225 1145 1225 1145 1225 1119 c 2,43,-1
 1225 699 l 2,44,45
 1225 674 1225 674 1242.5 655.5 c 128,-1,46
 1260 637 1260 637 1285 637 c 2,47,-1
 1408 637 l 1,48,-1
 1408 781 l 1,49,-1
 1471 781 l 1,50,-1
 1471 0 l 1,51,-1
 545 0 l 1,52,-1
 545 62 l 1,53,-1
 875 62 l 2,54,55
 908 62 908 62 932.5 86.5 c 128,-1,56
 957 111 957 111 957 145 c 2,57,-1
 957 328 l 2,58,59
 957 354 957 354 938.5 372.5 c 128,-1,60
 920 391 920 391 895 391 c 2,61,-1
 689 391 l 2,62,63
 656 391 656 391 631.5 372.5 c 128,-1,64
 607 354 607 354 607 328 c 2,65,-1
 607 211 l 1,66,-1
 545 211 l 1,67,-1
 545 719 l 1,68,-1
 258 719 l 2,69,70
 232 719 232 719 213.5 701.5 c 128,-1,71
 195 684 195 684 195 658 c 2,72,-1
 195 0 l 1,73,-1
 135 0 l 1,0,-1
EndSplineSet
Ligature2: "'psts' Post Base Substitutions lookup 8 subtable" tm_nga tm_ikaar
EndChar

StartChar: tm_c_ikaar
Encoding: 65545 -1 122
Width: 1270
GlyphClass: 2
Flags: W
LayerCount: 2
Fore
SplineSet
70 145 m 2,0,-1
 70 320 l 2,1,2
 70 371 70 371 106.5 407 c 128,-1,3
 143 443 143 443 195 443 c 2,4,-1
 236 443 l 1,5,-1
 236 658 l 2,6,7
 236 709 236 709 272.5 745 c 128,-1,8
 309 781 309 781 359 781 c 2,9,-1
 641 781 l 1,10,11
 615 803 615 803 600.5 830 c 128,-1,12
 586 857 586 857 586 885 c 2,13,-1
 586 1119 l 2,14,15
 586 1170 586 1170 622 1206 c 128,-1,16
 658 1242 658 1242 709 1242 c 2,17,-1
 1008 1242 l 2,18,19
 1061 1242 1061 1242 1097 1206 c 128,-1,20
 1133 1170 1133 1170 1133 1119 c 2,21,-1
 1133 0 l 1,22,-1
 1070 0 l 1,23,-1
 1070 1119 l 2,24,25
 1070 1145 1070 1145 1051.5 1162.5 c 128,-1,26
 1033 1180 1033 1180 1008 1180 c 2,27,-1
 709 1180 l 2,28,29
 684 1180 684 1180 665 1162.5 c 128,-1,30
 646 1145 646 1145 646 1119 c 2,31,-1
 646 885 l 2,32,33
 646 842 646 842 670.5 811.5 c 128,-1,34
 695 781 695 781 729 781 c 2,35,-1
 914 781 l 1,36,-1
 914 719 l 1,37,-1
 646 719 l 1,38,-1
 646 443 l 1,39,-1
 852 443 l 1,40,-1
 852 383 l 1,41,-1
 646 383 l 1,42,-1
 646 123 l 2,43,44
 646 72 646 72 610 36 c 128,-1,45
 574 0 574 0 523 0 c 2,46,-1
 215 0 l 2,47,48
 154 0 154 0 112 42 c 128,-1,49
 70 84 70 84 70 145 c 2,0,-1
133 145 m 2,50,51
 133 111 133 111 157.5 86.5 c 128,-1,52
 182 62 182 62 215 62 c 2,53,-1
 523 62 l 2,54,55
 549 62 549 62 567.5 80 c 128,-1,56
 586 98 586 98 586 123 c 2,57,-1
 586 383 l 1,58,-1
 195 383 l 2,59,60
 170 383 170 383 151.5 364.5 c 128,-1,61
 133 346 133 346 133 320 c 2,62,-1
 133 145 l 2,50,51
297 443 m 1,63,-1
 586 443 l 1,64,-1
 586 719 l 1,65,-1
 359 719 l 2,66,67
 334 719 334 719 315.5 701.5 c 128,-1,68
 297 684 297 684 297 658 c 2,69,-1
 297 443 l 1,63,-1
EndSplineSet
Ligature2: "'psts' Post Base Substitutions lookup 8 subtable" tm_ca tm_ikaar
EndChar

StartChar: tm_j_ikaar
Encoding: 65546 -1 123
Width: 1787
GlyphClass: 2
Flags: W
LayerCount: 2
Fore
SplineSet
115 205 m 2,0,-1
 115 658 l 2,1,2
 115 709 115 709 151 745 c 128,-1,3
 187 781 187 781 238 781 c 2,4,-1
 627 781 l 2,5,6
 668 781 668 781 704 760.5 c 128,-1,7
 740 740 740 740 760 705 c 1,8,9
 779 740 779 740 812.5 760.5 c 128,-1,10
 846 781 846 781 883 781 c 2,11,-1
 992 781 l 1,12,13
 967 803 967 803 952 830 c 128,-1,14
 937 857 937 857 937 885 c 2,15,-1
 937 1119 l 2,16,17
 937 1170 937 1170 973.5 1206 c 128,-1,18
 1010 1242 1010 1242 1061 1242 c 2,19,-1
 1527 1242 l 2,20,21
 1578 1242 1578 1242 1614 1206 c 128,-1,22
 1650 1170 1650 1170 1650 1119 c 2,23,-1
 1650 0 l 1,24,-1
 1588 0 l 1,25,-1
 1588 1119 l 2,26,27
 1588 1145 1588 1145 1570.5 1162.5 c 128,-1,28
 1553 1180 1553 1180 1527 1180 c 2,29,-1
 1061 1180 l 2,30,31
 1035 1180 1035 1180 1016.5 1162.5 c 128,-1,32
 998 1145 998 1145 998 1119 c 2,33,-1
 998 885 l 2,34,35
 998 842 998 842 1022.5 811.5 c 128,-1,36
 1047 781 1047 781 1082 781 c 2,37,-1
 1184 781 l 2,38,39
 1234 781 1234 781 1270.5 739 c 128,-1,40
 1307 697 1307 697 1307 637 c 2,41,-1
 1307 21 l 2,42,43
 1307 -31 1307 -31 1270.5 -67.5 c 128,-1,44
 1234 -104 1234 -104 1184 -104 c 2,45,-1
 238 -104 l 2,46,47
 213 -104 213 -104 194.5 -121.5 c 128,-1,48
 176 -139 176 -139 176 -164 c 2,49,-1
 176 -494 l 2,50,51
 176 -520 176 -520 194.5 -537.5 c 128,-1,52
 213 -555 213 -555 238 -555 c 2,53,-1
 279 -555 l 2,54,55
 295 -555 295 -555 316.5 -543 c 128,-1,56
 338 -531 338 -531 363 -510 c 2,57,-1
 621 -305 l 2,58,59
 654 -275 654 -275 694 -260.5 c 128,-1,60
 734 -246 734 -246 773 -246 c 2,61,-1
 1184 -246 l 2,62,63
 1234 -246 1234 -246 1270.5 -282 c 128,-1,64
 1307 -318 1307 -318 1307 -369 c 2,65,-1
 1307 -494 l 2,66,67
 1307 -545 1307 -545 1270.5 -581 c 128,-1,68
 1234 -617 1234 -617 1184 -617 c 2,69,-1
 1020 -617 l 2,70,71
 969 -617 969 -617 932.5 -581 c 128,-1,72
 896 -545 896 -545 896 -494 c 2,73,-1
 896 -391 l 1,74,-1
 957 -391 l 1,75,-1
 957 -494 l 2,76,77
 957 -520 957 -520 975.5 -537.5 c 128,-1,78
 994 -555 994 -555 1020 -555 c 2,79,-1
 1184 -555 l 2,80,81
 1209 -555 1209 -555 1227.5 -537.5 c 128,-1,82
 1246 -520 1246 -520 1246 -494 c 2,83,-1
 1246 -369 l 2,84,85
 1246 -344 1246 -344 1227.5 -326.5 c 128,-1,86
 1209 -309 1209 -309 1184 -309 c 2,87,-1
 773 -309 l 2,88,89
 744 -309 744 -309 714 -320.5 c 128,-1,90
 684 -332 684 -332 658 -354 c 2,91,-1
 369 -580 l 2,92,93
 348 -598 348 -598 313.5 -607.5 c 128,-1,94
 279 -617 279 -617 238 -617 c 0,95,96
 187 -617 187 -617 151 -581 c 128,-1,97
 115 -545 115 -545 115 -494 c 2,98,-1
 115 -164 l 2,99,100
 115 -113 115 -113 151 -77 c 128,-1,101
 187 -41 187 -41 238 -41 c 2,102,-1
 1184 -41 l 2,103,104
 1209 -41 1209 -41 1227.5 -22.5 c 128,-1,105
 1246 -4 1246 -4 1246 21 c 2,106,-1
 1246 637 l 2,107,108
 1246 670 1246 670 1227.5 694.5 c 128,-1,109
 1209 719 1209 719 1184 719 c 2,110,-1
 875 719 l 2,111,112
 842 719 842 719 817.5 682.5 c 128,-1,113
 793 646 793 646 793 596 c 2,114,-1
 793 82 l 1,115,-1
 732 82 l 1,116,-1
 732 596 l 2,117,118
 732 646 732 646 701 682.5 c 128,-1,119
 670 719 670 719 627 719 c 2,120,-1
 238 719 l 2,121,122
 213 719 213 719 194.5 701.5 c 128,-1,123
 176 684 176 684 176 658 c 2,124,-1
 176 576 l 1,125,-1
 402 576 l 2,126,127
 463 576 463 576 505 534 c 128,-1,128
 547 492 547 492 547 432 c 2,129,-1
 547 227 l 2,130,131
 547 166 547 166 505 124 c 128,-1,132
 463 82 463 82 402 82 c 2,133,-1
 238 82 l 2,134,135
 187 82 187 82 151 118 c 128,-1,136
 115 154 115 154 115 205 c 2,0,-1
176 205 m 2,137,138
 176 180 176 180 194.5 162.5 c 128,-1,139
 213 145 213 145 238 145 c 2,140,-1
 402 145 l 2,141,142
 436 145 436 145 460 169 c 128,-1,143
 484 193 484 193 484 227 c 2,144,-1
 484 432 l 2,145,146
 484 465 484 465 460 489.5 c 128,-1,147
 436 514 436 514 402 514 c 2,148,-1
 176 514 l 1,149,-1
 176 205 l 2,137,138
EndSplineSet
Ligature2: "'psts' Post Base Substitutions lookup 8 subtable" tm_ja tm_ikaar
EndChar

StartChar: tm_ny_ikaar
Encoding: 65547 -1 124
Width: 1932
GlyphClass: 2
Flags: W
LayerCount: 2
Fore
SplineSet
447 146 m 2,0,-1
 447 664 l 2,1,2
 447 713 447 713 484 747 c 128,-1,3
 521 781 521 781 574 781 c 2,4,-1
 1121 781 l 1,5,6
 1094 805 1094 805 1078 833 c 128,-1,7
 1062 861 1062 861 1062 889 c 2,8,-1
 1062 1123 l 2,9,10
 1062 1172 1062 1172 1099.5 1206 c 128,-1,11
 1137 1240 1137 1240 1189 1240 c 2,12,-1
 1668 1240 l 2,13,14
 1721 1240 1721 1240 1758 1206 c 128,-1,15
 1795 1172 1795 1172 1795 1123 c 2,16,-1
 1795 0 l 1,17,-1
 1736 0 l 1,18,-1
 1736 1123 l 2,19,20
 1736 1146 1736 1146 1715.5 1164 c 128,-1,21
 1695 1182 1695 1182 1668 1182 c 2,22,-1
 1189 1182 l 2,23,24
 1162 1182 1162 1182 1141.5 1164 c 128,-1,25
 1121 1146 1121 1146 1121 1123 c 2,26,-1
 1121 889 l 2,27,28
 1121 844 1121 844 1146.5 812.5 c 128,-1,29
 1172 781 1172 781 1209 781 c 2,30,-1
 1434 781 l 1,31,-1
 1434 723 l 1,32,-1
 1121 723 l 1,33,-1
 1121 410 l 1,34,35
 1145 430 1145 430 1167 439.5 c 128,-1,36
 1189 449 1189 449 1209 449 c 2,37,-1
 1414 449 l 2,38,39
 1463 449 1463 449 1497 415 c 128,-1,40
 1531 381 1531 381 1531 332 c 2,41,-1
 1531 -166 l 2,42,43
 1531 -227 1531 -227 1491 -270 c 128,-1,44
 1451 -313 1451 -313 1395 -313 c 2,45,-1
 262 -313 l 2,46,47
 209 -313 209 -313 172 -275.5 c 128,-1,48
 135 -238 135 -238 135 -186 c 2,49,-1
 135 664 l 2,50,51
 135 713 135 713 172 747 c 128,-1,52
 209 781 209 781 262 781 c 2,53,-1
 301 781 l 1,54,-1
 301 723 l 1,55,-1
 262 723 l 2,56,57
 238 723 238 723 220.5 705 c 128,-1,58
 203 687 203 687 203 664 c 2,59,-1
 203 -186 l 2,60,61
 203 -209 203 -209 220.5 -226.5 c 128,-1,62
 238 -244 238 -244 262 -244 c 2,63,-1
 1395 -244 l 2,64,65
 1428 -244 1428 -244 1450.5 -221.5 c 128,-1,66
 1473 -199 1473 -199 1473 -166 c 2,67,-1
 1473 332 l 2,68,69
 1473 355 1473 355 1455 373 c 128,-1,70
 1437 391 1437 391 1414 391 c 2,71,-1
 1209 391 l 2,72,73
 1172 391 1172 391 1146.5 373 c 128,-1,74
 1121 355 1121 355 1121 332 c 2,75,-1
 1121 0 l 1,76,-1
 1062 0 l 1,77,-1
 1062 723 l 1,78,-1
 574 723 l 2,79,80
 547 723 547 723 526.5 705 c 128,-1,81
 506 687 506 687 506 664 c 2,82,-1
 506 469 l 1,83,-1
 730 469 l 2,84,85
 791 469 791 469 834 434.5 c 128,-1,86
 877 400 877 400 877 352 c 2,87,-1
 877 127 l 2,88,89
 877 74 877 74 840 37 c 128,-1,90
 803 0 803 0 750 0 c 2,91,-1
 574 0 l 2,92,93
 521 0 521 0 484 43 c 128,-1,94
 447 86 447 86 447 146 c 2,0,-1
506 146 m 2,95,96
 506 109 506 109 526.5 84 c 128,-1,97
 547 59 547 59 574 59 c 2,98,-1
 750 59 l 2,99,100
 777 59 777 59 797.5 79.5 c 128,-1,101
 818 100 818 100 818 127 c 2,102,-1
 818 352 l 2,103,104
 818 375 818 375 793 392.5 c 128,-1,105
 768 410 768 410 730 410 c 2,106,-1
 506 410 l 1,107,-1
 506 146 l 2,95,96
EndSplineSet
Ligature2: "'psts' Post Base Substitutions lookup 8 subtable" tm_nya tm_ikaar
EndChar

StartChar: tm_tt_ikaar
Encoding: 65548 -1 125
Width: 1400
GlyphClass: 2
Flags: W
LayerCount: 2
Fore
SplineSet
592 299 m 2,0,-1
 592 473 l 2,1,2
 592 533 592 533 628 575 c 128,-1,3
 664 617 664 617 715 617 c 2,4,-1
 879 617 l 2,5,6
 930 617 930 617 966 581 c 128,-1,7
 1002 545 1002 545 1002 494 c 2,8,-1
 1002 62 l 1,9,-1
 1389 62 l 1,10,-1
 1389 0 l 1,11,-1
 1002 0 l 1,12,-1
 1002 -205 l 1,13,-1
 939 -205 l 1,14,-1
 939 0 l 1,15,-1
 256 0 l 2,16,17
 205 0 205 0 169 36 c 128,-1,18
 133 72 133 72 133 123 c 2,19,-1
 133 781 l 1,20,-1
 193 781 l 1,21,-1
 193 123 l 2,22,23
 193 98 193 98 211.5 80 c 128,-1,24
 230 62 230 62 256 62 c 2,25,-1
 789 62 l 1,26,-1
 615 221 l 2,27,28
 604 232 604 232 598 252.5 c 128,-1,29
 592 273 592 273 592 299 c 2,0,-1
652 299 m 2,30,31
 652 275 652 275 665 252.5 c 128,-1,32
 678 230 678 230 699 211 c 2,33,-1
 871 62 l 1,34,-1
 939 62 l 1,35,-1
 939 494 l 2,36,37
 939 520 939 520 921.5 537.5 c 128,-1,38
 904 555 904 555 879 555 c 2,39,-1
 715 555 l 2,40,41
 689 555 689 555 670.5 530.5 c 128,-1,42
 652 506 652 506 652 473 c 2,43,-1
 652 299 l 2,30,31
EndSplineSet
Ligature2: "'psts' Post Base Substitutions lookup 8 subtable" tm_tta tm_ikaar
EndChar

StartChar: tm_nn_ikaar
Encoding: 65549 -1 126
Width: 2510
GlyphClass: 2
Flags: W
LayerCount: 2
Fore
SplineSet
129 145 m 2,0,-1
 129 658 l 2,1,2
 129 709 129 709 165 745 c 128,-1,3
 201 781 201 781 252 781 c 2,4,-1
 787 781 l 2,5,6
 801 781 801 781 826.5 770.5 c 128,-1,7
 852 760 852 760 889 738 c 1,8,9
 926 760 926 760 952.5 770.5 c 128,-1,10
 979 781 979 781 992 781 c 2,11,-1
 1301 781 l 2,12,13
 1314 781 1314 781 1339.5 770.5 c 128,-1,14
 1365 760 1365 760 1402 738 c 1,15,16
 1439 760 1439 760 1465.5 770.5 c 128,-1,17
 1492 781 1492 781 1506 781 c 2,18,-1
 1932 781 l 1,19,20
 1906 803 1906 803 1891.5 830 c 128,-1,21
 1877 857 1877 857 1877 885 c 2,22,-1
 1877 1119 l 2,23,24
 1877 1170 1877 1170 1913 1206 c 128,-1,25
 1949 1242 1949 1242 2000 1242 c 2,26,-1
 2250 1242 l 2,27,28
 2301 1242 2301 1242 2337 1206 c 128,-1,29
 2373 1170 2373 1170 2373 1119 c 2,30,-1
 2373 0 l 1,31,-1
 2312 0 l 1,32,-1
 2312 1119 l 2,33,34
 2312 1145 2312 1145 2293.5 1162.5 c 128,-1,35
 2275 1180 2275 1180 2250 1180 c 2,36,-1
 2000 1180 l 2,37,38
 1975 1180 1975 1180 1956 1162.5 c 128,-1,39
 1937 1145 1937 1145 1937 1119 c 2,40,-1
 1937 885 l 2,41,42
 1937 842 1937 842 1961.5 811.5 c 128,-1,43
 1986 781 1986 781 2020 781 c 2,44,-1
 2143 781 l 1,45,-1
 2143 719 l 1,46,-1
 1937 719 l 1,47,-1
 1937 0 l 1,48,-1
 1877 0 l 1,49,-1
 1877 719 l 1,50,-1
 1432 719 l 1,51,-1
 1564 602 l 2,52,53
 1576 592 1576 592 1582 574.5 c 128,-1,54
 1588 557 1588 557 1588 535 c 2,55,-1
 1588 123 l 2,56,57
 1588 72 1588 72 1552 36 c 128,-1,58
 1516 0 1516 0 1465 0 c 2,59,-1
 1342 0 l 2,60,61
 1291 0 1291 0 1255 36 c 128,-1,62
 1219 72 1219 72 1219 123 c 2,63,-1
 1219 535 l 2,64,65
 1219 566 1219 566 1230.5 591.5 c 128,-1,66
 1242 617 1242 617 1262 631 c 2,67,-1
 1383 719 l 1,68,-1
 918 719 l 1,69,-1
 1049 602 l 2,70,71
 1061 592 1061 592 1067.5 574.5 c 128,-1,72
 1074 557 1074 557 1074 535 c 2,73,-1
 1074 123 l 2,74,75
 1074 72 1074 72 1038 36 c 128,-1,76
 1002 0 1002 0 951 0 c 2,77,-1
 828 0 l 2,78,79
 777 0 777 0 741 36 c 128,-1,80
 705 72 705 72 705 123 c 2,81,-1
 705 535 l 2,82,83
 705 559 705 559 717 582 c 128,-1,84
 729 605 729 605 750 623 c 2,85,-1
 863 719 l 1,86,-1
 252 719 l 2,87,88
 227 719 227 719 208 701.5 c 128,-1,89
 189 684 189 684 189 658 c 2,90,-1
 189 473 l 1,91,-1
 416 473 l 2,92,93
 477 473 477 473 519 436.5 c 128,-1,94
 561 400 561 400 561 350 c 2,95,-1
 561 145 l 2,96,97
 561 84 561 84 519 42 c 128,-1,98
 477 0 477 0 416 0 c 2,99,-1
 252 0 l 2,100,101
 201 0 201 0 165 42 c 128,-1,102
 129 84 129 84 129 145 c 2,0,-1
189 145 m 2,103,104
 189 111 189 111 208 86.5 c 128,-1,105
 227 62 227 62 252 62 c 2,106,-1
 416 62 l 2,107,108
 449 62 449 62 473.5 86.5 c 128,-1,109
 498 111 498 111 498 145 c 2,110,-1
 498 350 l 2,111,112
 498 375 498 375 473.5 393.5 c 128,-1,113
 449 412 449 412 416 412 c 2,114,-1
 189 412 l 1,115,-1
 189 145 l 2,103,104
766 123 m 2,116,117
 766 98 766 98 784.5 80 c 128,-1,118
 803 62 803 62 828 62 c 2,119,-1
 951 62 l 2,120,121
 977 62 977 62 994.5 80 c 128,-1,122
 1012 98 1012 98 1012 123 c 2,123,-1
 1012 535 l 2,124,125
 1012 559 1012 559 976.5 593 c 128,-1,126
 941 627 941 627 879 662 c 1,127,128
 826 631 826 631 796 597.5 c 128,-1,129
 766 564 766 564 766 535 c 2,130,-1
 766 123 l 2,116,117
1279 123 m 2,131,132
 1279 98 1279 98 1297.5 80 c 128,-1,133
 1316 62 1316 62 1342 62 c 2,134,-1
 1465 62 l 2,135,136
 1490 62 1490 62 1508.5 80 c 128,-1,137
 1527 98 1527 98 1527 123 c 2,138,-1
 1527 535 l 2,139,140
 1527 559 1527 559 1491 592 c 128,-1,141
 1455 625 1455 625 1393 662 c 1,142,143
 1340 631 1340 631 1309.5 597.5 c 128,-1,144
 1279 564 1279 564 1279 535 c 2,145,-1
 1279 123 l 2,131,132
EndSplineSet
Ligature2: "'psts' Post Base Substitutions lookup 8 subtable" tm_nna tm_ikaar
EndChar

StartChar: tm_t_ikaar
Encoding: 65550 -1 127
Width: 1426
GlyphClass: 2
Flags: W
LayerCount: 2
Fore
SplineSet
70 145 m 2,0,-1
 70 320 l 2,1,2
 70 371 70 371 106.5 407 c 128,-1,3
 143 443 143 443 195 443 c 2,4,-1
 236 443 l 1,5,-1
 236 658 l 2,6,7
 236 709 236 709 272.5 745 c 128,-1,8
 309 781 309 781 359 781 c 2,9,-1
 641 781 l 1,10,11
 615 803 615 803 600.5 830 c 128,-1,12
 586 857 586 857 586 885 c 2,13,-1
 586 1119 l 2,14,15
 586 1170 586 1170 622 1206 c 128,-1,16
 658 1242 658 1242 709 1242 c 2,17,-1
 1164 1242 l 2,18,19
 1217 1242 1217 1242 1253 1206 c 128,-1,20
 1289 1170 1289 1170 1289 1119 c 2,21,-1
 1289 0 l 1,22,-1
 1227 0 l 1,23,-1
 1227 1119 l 2,24,25
 1227 1145 1227 1145 1208 1162.5 c 128,-1,26
 1189 1180 1189 1180 1164 1180 c 2,27,-1
 709 1180 l 2,28,29
 684 1180 684 1180 665 1162.5 c 128,-1,30
 646 1145 646 1145 646 1119 c 2,31,-1
 646 885 l 2,32,33
 646 842 646 842 670.5 811.5 c 128,-1,34
 695 781 695 781 729 781 c 2,35,-1
 914 781 l 1,36,-1
 914 719 l 1,37,-1
 646 719 l 1,38,-1
 646 443 l 1,39,-1
 873 443 l 2,40,41
 924 443 924 443 960 407 c 128,-1,42
 996 371 996 371 996 320 c 2,43,-1
 996 -104 l 2,44,45
 996 -154 996 -154 960 -190.5 c 128,-1,46
 924 -227 924 -227 873 -227 c 2,47,-1
 133 -227 l 2,48,49
 107 -227 107 -227 88.5 -244.5 c 128,-1,50
 70 -262 70 -262 70 -287 c 2,51,-1
 70 -387 l 1,52,-1
 10 -387 l 1,53,-1
 10 -287 l 2,54,55
 10 -236 10 -236 46 -200 c 128,-1,56
 82 -164 82 -164 133 -164 c 2,57,-1
 873 -164 l 2,58,59
 898 -164 898 -164 917 -146.5 c 128,-1,60
 936 -129 936 -129 936 -104 c 2,61,-1
 936 320 l 2,62,63
 936 346 936 346 917 364.5 c 128,-1,64
 898 383 898 383 873 383 c 2,65,-1
 646 383 l 1,66,-1
 646 123 l 2,67,68
 646 72 646 72 610 36 c 128,-1,69
 574 0 574 0 523 0 c 2,70,-1
 215 0 l 2,71,72
 154 0 154 0 112 42 c 128,-1,73
 70 84 70 84 70 145 c 2,0,-1
133 145 m 2,74,75
 133 111 133 111 157.5 86.5 c 128,-1,76
 182 62 182 62 215 62 c 2,77,-1
 523 62 l 2,78,79
 549 62 549 62 567.5 80 c 128,-1,80
 586 98 586 98 586 123 c 2,81,-1
 586 383 l 1,82,-1
 195 383 l 2,83,84
 170 383 170 383 151.5 364.5 c 128,-1,85
 133 346 133 346 133 320 c 2,86,-1
 133 145 l 2,74,75
297 443 m 1,87,-1
 586 443 l 1,88,-1
 586 719 l 1,89,-1
 359 719 l 2,90,91
 334 719 334 719 315.5 701.5 c 128,-1,92
 297 684 297 684 297 658 c 2,93,-1
 297 443 l 1,87,-1
EndSplineSet
Ligature2: "'psts' Post Base Substitutions lookup 8 subtable" tm_ta tm_ikaar
EndChar

StartChar: tm_n_ikaar
Encoding: 65551 -1 128
Width: 1424
GlyphClass: 2
Flags: W
LayerCount: 2
Fore
SplineSet
135 0 m 1,0,-1
 135 658 l 2,1,2
 135 709 135 709 171 745 c 128,-1,3
 207 781 207 781 258 781 c 2,4,-1
 602 781 l 1,5,6
 574 805 574 805 559.5 831 c 128,-1,7
 545 857 545 857 545 885 c 2,8,-1
 545 1119 l 2,9,10
 545 1170 545 1170 581 1206 c 128,-1,11
 617 1242 617 1242 668 1242 c 2,12,-1
 1164 1242 l 2,13,14
 1215 1242 1215 1242 1251 1206 c 128,-1,15
 1287 1170 1287 1170 1287 1119 c 2,16,-1
 1287 0 l 1,17,-1
 1227 0 l 1,18,-1
 1227 1119 l 2,19,20
 1227 1145 1227 1145 1208 1162.5 c 128,-1,21
 1189 1180 1189 1180 1164 1180 c 2,22,-1
 668 1180 l 2,23,24
 643 1180 643 1180 625 1162.5 c 128,-1,25
 607 1145 607 1145 607 1119 c 2,26,-1
 607 885 l 2,27,28
 607 842 607 842 631.5 811.5 c 128,-1,29
 656 781 656 781 689 781 c 2,30,-1
 916 781 l 1,31,-1
 916 719 l 1,32,-1
 607 719 l 1,33,-1
 607 453 l 1,34,-1
 895 453 l 2,35,36
 945 453 945 453 981.5 417 c 128,-1,37
 1018 381 1018 381 1018 328 c 2,38,-1
 1018 -104 l 2,39,40
 1018 -154 1018 -154 981.5 -190.5 c 128,-1,41
 945 -227 945 -227 895 -227 c 2,42,-1
 141 -227 l 2,43,44
 115 -227 115 -227 96.5 -244.5 c 128,-1,45
 78 -262 78 -262 78 -287 c 2,46,-1
 78 -387 l 1,47,-1
 18 -387 l 1,48,-1
 18 -287 l 2,49,50
 18 -236 18 -236 54 -200 c 128,-1,51
 90 -164 90 -164 141 -164 c 2,52,-1
 895 -164 l 2,53,54
 920 -164 920 -164 938.5 -146.5 c 128,-1,55
 957 -129 957 -129 957 -104 c 2,56,-1
 957 328 l 2,57,58
 957 354 957 354 938.5 372.5 c 128,-1,59
 920 391 920 391 895 391 c 2,60,-1
 607 391 l 1,61,-1
 607 0 l 1,62,-1
 545 0 l 1,63,-1
 545 719 l 1,64,-1
 258 719 l 2,65,66
 232 719 232 719 213.5 701.5 c 128,-1,67
 195 684 195 684 195 658 c 2,68,-1
 195 0 l 1,69,-1
 135 0 l 1,0,-1
EndSplineSet
Ligature2: "'psts' Post Base Substitutions lookup 8 subtable" tm_na tm_ikaar
EndChar

StartChar: tm_nnn_ikaar
Encoding: 65552 -1 129
Width: 2021
GlyphClass: 2
Flags: W
LayerCount: 2
Fore
SplineSet
129 145 m 2,0,-1
 129 658 l 2,1,2
 129 709 129 709 165 745 c 128,-1,3
 201 781 201 781 252 781 c 2,4,-1
 787 781 l 2,5,6
 801 781 801 781 826.5 770.5 c 128,-1,7
 852 760 852 760 889 738 c 1,8,9
 926 760 926 760 952.5 770.5 c 128,-1,10
 979 781 979 781 992 781 c 2,11,-1
 1418 781 l 1,12,13
 1391 805 1391 805 1376 831 c 128,-1,14
 1361 857 1361 857 1361 885 c 2,15,-1
 1361 1119 l 2,16,17
 1361 1170 1361 1170 1397.5 1206 c 128,-1,18
 1434 1242 1434 1242 1486 1242 c 2,19,-1
 1762 1242 l 2,20,21
 1812 1242 1812 1242 1848.5 1206 c 128,-1,22
 1885 1170 1885 1170 1885 1119 c 2,23,-1
 1885 0 l 1,24,-1
 1822 0 l 1,25,-1
 1822 1119 l 2,26,27
 1822 1145 1822 1145 1804.5 1162.5 c 128,-1,28
 1787 1180 1787 1180 1762 1180 c 2,29,-1
 1486 1180 l 2,30,31
 1461 1180 1461 1180 1442.5 1162.5 c 128,-1,32
 1424 1145 1424 1145 1424 1119 c 2,33,-1
 1424 885 l 2,34,35
 1424 842 1424 842 1448.5 811.5 c 128,-1,36
 1473 781 1473 781 1506 781 c 2,37,-1
 1629 781 l 1,38,-1
 1629 719 l 1,39,-1
 1424 719 l 1,40,-1
 1424 0 l 1,41,-1
 1361 0 l 1,42,-1
 1361 719 l 1,43,-1
 918 719 l 1,44,-1
 1049 602 l 2,45,46
 1061 592 1061 592 1067.5 574.5 c 128,-1,47
 1074 557 1074 557 1074 535 c 2,48,-1
 1074 123 l 2,49,50
 1074 72 1074 72 1038 36 c 128,-1,51
 1002 0 1002 0 951 0 c 2,52,-1
 828 0 l 2,53,54
 777 0 777 0 741 36 c 128,-1,55
 705 72 705 72 705 123 c 2,56,-1
 705 535 l 2,57,58
 705 559 705 559 717 582 c 128,-1,59
 729 605 729 605 750 623 c 2,60,-1
 863 719 l 1,61,-1
 252 719 l 2,62,63
 227 719 227 719 208 701.5 c 128,-1,64
 189 684 189 684 189 658 c 2,65,-1
 189 473 l 1,66,-1
 416 473 l 2,67,68
 477 473 477 473 519 436.5 c 128,-1,69
 561 400 561 400 561 350 c 2,70,-1
 561 123 l 2,71,72
 561 72 561 72 524.5 36 c 128,-1,73
 488 0 488 0 437 0 c 2,74,-1
 252 0 l 2,75,76
 201 0 201 0 165 42 c 128,-1,77
 129 84 129 84 129 145 c 2,0,-1
189 145 m 2,78,79
 189 111 189 111 208 86.5 c 128,-1,80
 227 62 227 62 252 62 c 2,81,-1
 437 62 l 2,82,83
 463 62 463 62 480.5 80 c 128,-1,84
 498 98 498 98 498 123 c 2,85,-1
 498 350 l 2,86,87
 498 375 498 375 473.5 393.5 c 128,-1,88
 449 412 449 412 416 412 c 2,89,-1
 189 412 l 1,90,-1
 189 145 l 2,78,79
766 123 m 2,91,92
 766 98 766 98 784.5 80 c 128,-1,93
 803 62 803 62 828 62 c 2,94,-1
 951 62 l 2,95,96
 977 62 977 62 994.5 80 c 128,-1,97
 1012 98 1012 98 1012 123 c 2,98,-1
 1012 535 l 2,99,100
 1012 559 1012 559 976.5 593 c 128,-1,101
 941 627 941 627 879 662 c 1,102,103
 826 631 826 631 796 597.5 c 128,-1,104
 766 564 766 564 766 535 c 2,105,-1
 766 123 l 2,91,92
EndSplineSet
Ligature2: "'psts' Post Base Substitutions lookup 8 subtable" tm_nnna tm_ikaar
EndChar

StartChar: tm_p_ikaar
Encoding: 65553 -1 130
Width: 1461
GlyphClass: 2
Flags: W
LayerCount: 2
Fore
SplineSet
133 123 m 2,0,-1
 133 781 l 1,1,-1
 193 781 l 1,2,-1
 193 123 l 2,3,4
 193 98 193 98 211.5 80 c 128,-1,5
 230 62 230 62 256 62 c 2,6,-1
 893 62 l 2,7,8
 918 62 918 62 936.5 80 c 128,-1,9
 955 98 955 98 955 123 c 2,10,-1
 955 576 l 1,11,-1
 832 576 l 2,12,13
 781 576 781 576 745 612 c 128,-1,14
 709 648 709 648 709 699 c 2,15,-1
 709 1119 l 2,16,17
 709 1170 709 1170 745 1206 c 128,-1,18
 781 1242 781 1242 832 1242 c 2,19,-1
 1201 1242 l 2,20,21
 1252 1242 1252 1242 1288 1206 c 128,-1,22
 1324 1170 1324 1170 1324 1119 c 2,23,-1
 1324 0 l 1,24,-1
 1264 0 l 1,25,-1
 1264 1119 l 2,26,27
 1264 1145 1264 1145 1245.5 1162.5 c 128,-1,28
 1227 1180 1227 1180 1201 1180 c 2,29,-1
 832 1180 l 2,30,31
 807 1180 807 1180 788.5 1162.5 c 128,-1,32
 770 1145 770 1145 770 1119 c 2,33,-1
 770 699 l 2,34,35
 770 674 770 674 788.5 655.5 c 128,-1,36
 807 637 807 637 832 637 c 2,37,-1
 955 637 l 1,38,-1
 955 781 l 1,39,-1
 1016 781 l 1,40,-1
 1016 123 l 2,41,42
 1016 72 1016 72 979.5 36 c 128,-1,43
 943 0 943 0 893 0 c 2,44,-1
 256 0 l 2,45,46
 205 0 205 0 169 36 c 128,-1,47
 133 72 133 72 133 123 c 2,0,-1
EndSplineSet
Ligature2: "'psts' Post Base Substitutions lookup 8 subtable" tm_pa tm_ikaar
EndChar

StartChar: tm_m_ikaar
Encoding: 65554 -1 131
Width: 1473
GlyphClass: 2
Flags: W
LayerCount: 2
Fore
SplineSet
133 123 m 2,0,-1
 133 781 l 1,1,-1
 193 781 l 1,2,-1
 193 123 l 2,3,4
 193 98 193 98 211.5 80 c 128,-1,5
 230 62 230 62 256 62 c 2,6,-1
 543 62 l 1,7,-1
 543 658 l 2,8,9
 543 709 543 709 579 745 c 128,-1,10
 615 781 615 781 666 781 c 2,11,-1
 805 781 l 1,12,13
 779 803 779 803 764.5 830 c 128,-1,14
 750 857 750 857 750 885 c 2,15,-1
 750 1119 l 2,16,17
 750 1170 750 1170 786 1206 c 128,-1,18
 822 1242 822 1242 873 1242 c 2,19,-1
 1211 1242 l 2,20,21
 1264 1242 1264 1242 1300 1206 c 128,-1,22
 1336 1170 1336 1170 1336 1119 c 2,23,-1
 1336 0 l 1,24,-1
 1273 0 l 1,25,-1
 1273 1119 l 2,26,27
 1273 1145 1273 1145 1254.5 1162.5 c 128,-1,28
 1236 1180 1236 1180 1211 1180 c 2,29,-1
 873 1180 l 2,30,31
 848 1180 848 1180 829.5 1162.5 c 128,-1,32
 811 1145 811 1145 811 1119 c 2,33,-1
 811 885 l 2,34,35
 811 842 811 842 835 811.5 c 128,-1,36
 859 781 859 781 893 781 c 2,37,-1
 934 781 l 2,38,39
 967 781 967 781 991.5 745 c 128,-1,40
 1016 709 1016 709 1016 658 c 2,41,-1
 1016 145 l 2,42,43
 1016 84 1016 84 974 42 c 128,-1,44
 932 0 932 0 873 0 c 2,45,-1
 256 0 l 2,46,47
 205 0 205 0 169 36 c 128,-1,48
 133 72 133 72 133 123 c 2,0,-1
605 62 m 1,49,-1
 873 62 l 2,50,51
 906 62 906 62 930.5 86.5 c 128,-1,52
 955 111 955 111 955 145 c 2,53,-1
 955 658 l 2,54,55
 955 684 955 684 936.5 701.5 c 128,-1,56
 918 719 918 719 893 719 c 2,57,-1
 666 719 l 2,58,59
 641 719 641 719 623 701.5 c 128,-1,60
 605 684 605 684 605 658 c 2,61,-1
 605 62 l 1,49,-1
EndSplineSet
Ligature2: "'psts' Post Base Substitutions lookup 8 subtable" tm_ma tm_ikaar
EndChar

StartChar: tm_y_ikaar
Encoding: 65555 -1 132
Width: 1668
GlyphClass: 2
Flags: W
LayerCount: 2
Fore
SplineSet
133 123 m 2,0,-1
 133 781 l 1,1,-1
 193 781 l 1,2,-1
 193 123 l 2,3,4
 193 98 193 98 211.5 80 c 128,-1,5
 230 62 230 62 256 62 c 2,6,-1
 338 62 l 2,7,8
 371 62 371 62 400.5 102.5 c 128,-1,9
 430 143 430 143 441 203 c 1,10,-1
 441 781 l 1,11,-1
 502 781 l 1,12,-1
 502 123 l 2,13,14
 502 98 502 98 520.5 80 c 128,-1,15
 539 62 539 62 564 62 c 2,16,-1
 1100 62 l 2,17,18
 1125 62 1125 62 1142.5 80 c 128,-1,19
 1160 98 1160 98 1160 123 c 2,20,-1
 1160 576 l 1,21,-1
 1037 576 l 2,22,23
 986 576 986 576 950 612 c 128,-1,24
 914 648 914 648 914 699 c 2,25,-1
 914 1119 l 2,26,27
 914 1170 914 1170 950 1206 c 128,-1,28
 986 1242 986 1242 1037 1242 c 2,29,-1
 1406 1242 l 2,30,31
 1459 1242 1459 1242 1495 1206 c 128,-1,32
 1531 1170 1531 1170 1531 1119 c 2,33,-1
 1531 0 l 1,34,-1
 1469 0 l 1,35,-1
 1469 1119 l 2,36,37
 1469 1145 1469 1145 1450.5 1162.5 c 128,-1,38
 1432 1180 1432 1180 1406 1180 c 2,39,-1
 1037 1180 l 2,40,41
 1012 1180 1012 1180 993.5 1162.5 c 128,-1,42
 975 1145 975 1145 975 1119 c 2,43,-1
 975 699 l 2,44,45
 975 674 975 674 993.5 655.5 c 128,-1,46
 1012 637 1012 637 1037 637 c 2,47,-1
 1160 637 l 1,48,-1
 1160 781 l 1,49,-1
 1223 781 l 1,50,-1
 1223 123 l 2,51,52
 1223 72 1223 72 1186.5 36 c 128,-1,53
 1150 0 1150 0 1100 0 c 2,54,-1
 564 0 l 2,55,56
 525 0 525 0 493 23.5 c 128,-1,57
 461 47 461 47 447 84 c 1,58,59
 434 47 434 47 403.5 23.5 c 128,-1,60
 373 0 373 0 338 0 c 2,61,-1
 256 0 l 2,62,63
 205 0 205 0 169 36 c 128,-1,64
 133 72 133 72 133 123 c 2,0,-1
EndSplineSet
Ligature2: "'psts' Post Base Substitutions lookup 8 subtable" tm_ya tm_ikaar
EndChar

StartChar: tm_r_ikaar
Encoding: 65556 -1 133
Width: 1166
GlyphClass: 2
Flags: W
LayerCount: 2
Fore
SplineSet
135 0 m 1,0,-1
 135 658 l 2,1,2
 135 709 135 709 171 745 c 128,-1,3
 207 781 207 781 260 781 c 2,4,-1
 592 781 l 1,5,6
 570 799 570 799 558.5 826.5 c 128,-1,7
 547 854 547 854 547 885 c 2,8,-1
 547 1119 l 2,9,10
 547 1170 547 1170 583 1206 c 128,-1,11
 619 1242 619 1242 670 1242 c 2,12,-1
 906 1242 l 2,13,14
 957 1242 957 1242 993 1206 c 128,-1,15
 1029 1170 1029 1170 1029 1119 c 2,16,-1
 1029 0 l 1,17,-1
 969 0 l 1,18,-1
 969 1119 l 2,19,20
 969 1145 969 1145 950.5 1162.5 c 128,-1,21
 932 1180 932 1180 906 1180 c 2,22,-1
 670 1180 l 2,23,24
 645 1180 645 1180 627 1162.5 c 128,-1,25
 609 1145 609 1145 609 1119 c 2,26,-1
 609 885 l 2,27,28
 609 842 609 842 633 811 c 0,29,30
 656 783 656 783 686 781 c 2,31,-1
 838 781 l 1,32,-1
 838 719 l 1,33,-1
 609 719 l 1,34,-1
 603 0 l 1,35,36
 580 -41 580 -41 553 -68 c 2,37,-1
 416 -205 l 1,38,-1
 340 -205 l 1,39,-1
 469 -76 l 2,40,41
 506 -39 506 -39 526.5 -9 c 128,-1,42
 547 21 547 21 547 41 c 2,43,-1
 547 719 l 1,44,-1
 260 719 l 2,45,46
 255 719 255 719 250 718 c 0,47,48
 248 718 248 718 247 718 c 0,49,50
 237 716 237 716 227 710 c 2,51,-1
 224 708 l 2,52,53
 219 705 219 705 215 701 c 0,54,55
 205 692 205 692 200 679 c 0,56,57
 200 677 200 677 199 675 c 0,58,59
 197 667 197 667 197 658 c 2,60,-1
 197 0 l 1,61,-1
 135 0 l 1,0,-1
EndSplineSet
Ligature2: "'psts' Post Base Substitutions lookup 8 subtable" tm_ra tm_ikaar
EndChar

StartChar: tm_rr_ikaar
Encoding: 65557 -1 134
Width: 1465
GlyphClass: 2
Flags: W
LayerCount: 2
Fore
SplineSet
135 0 m 1,0,-1
 135 658 l 2,1,2
 135 709 135 709 171 745 c 128,-1,3
 207 781 207 781 258 781 c 2,4,-1
 484 781 l 2,5,6
 514 781 514 781 538 759.5 c 128,-1,7
 562 738 562 738 576 703 c 1,8,9
 590 738 590 738 614.5 759.5 c 128,-1,10
 639 781 639 781 668 781 c 2,11,-1
 807 781 l 1,12,13
 781 803 781 803 766.5 830 c 128,-1,14
 752 857 752 857 752 885 c 2,15,-1
 752 1119 l 2,16,17
 752 1170 752 1170 788 1206 c 128,-1,18
 824 1242 824 1242 875 1242 c 2,19,-1
 1203 1242 l 2,20,21
 1256 1242 1256 1242 1292 1206 c 128,-1,22
 1328 1170 1328 1170 1328 1119 c 2,23,-1
 1328 0 l 1,24,-1
 1266 0 l 1,25,-1
 1266 1119 l 2,26,27
 1266 1145 1266 1145 1247.5 1162.5 c 128,-1,28
 1229 1180 1229 1180 1203 1180 c 2,29,-1
 875 1180 l 2,30,31
 850 1180 850 1180 831 1162.5 c 128,-1,32
 812 1145 812 1145 812 1119 c 2,33,-1
 812 885 l 2,34,35
 812 842 812 842 836.5 811.5 c 128,-1,36
 861 781 861 781 895 781 c 0,37,38
 945 781 945 781 981.5 745 c 128,-1,39
 1018 709 1018 709 1018 658 c 2,40,-1
 1018 -82 l 2,41,42
 1018 -143 1018 -143 976 -185 c 128,-1,43
 934 -227 934 -227 875 -227 c 2,44,-1
 160 -227 l 2,45,46
 127 -227 127 -227 102.5 -251 c 128,-1,47
 78 -275 78 -275 78 -309 c 2,48,-1
 78 -406 l 1,49,-1
 18 -406 l 1,50,-1
 18 -309 l 2,51,52
 18 -248 18 -248 60 -206 c 128,-1,53
 102 -164 102 -164 160 -164 c 2,54,-1
 875 -164 l 2,55,56
 908 -164 908 -164 932.5 -139.5 c 128,-1,57
 957 -115 957 -115 957 -82 c 2,58,-1
 957 658 l 2,59,60
 957 684 957 684 938.5 701.5 c 128,-1,61
 920 719 920 719 895 719 c 2,62,-1
 668 719 l 2,63,64
 643 719 643 719 625 701.5 c 128,-1,65
 607 684 607 684 607 658 c 2,66,-1
 607 0 l 1,67,-1
 545 0 l 1,68,-1
 545 658 l 2,69,70
 545 684 545 684 527.5 701.5 c 128,-1,71
 510 719 510 719 484 719 c 2,72,-1
 258 719 l 2,73,74
 232 719 232 719 213.5 701.5 c 128,-1,75
 195 684 195 684 195 658 c 2,76,-1
 195 0 l 1,77,-1
 135 0 l 1,0,-1
EndSplineSet
Ligature2: "'psts' Post Base Substitutions lookup 8 subtable" tm_rra tm_ikaar
EndChar

StartChar: tm_l_ikaar
Encoding: 65558 -1 135
Width: 1787
GlyphClass: 2
Flags: W
LayerCount: 2
Fore
SplineSet
129 145 m 2,0,-1
 129 658 l 2,1,2
 129 709 129 709 165 745 c 128,-1,3
 201 781 201 781 254 781 c 2,4,-1
 686 781 l 2,5,6
 736 781 736 781 772.5 745 c 128,-1,7
 809 709 809 709 809 658 c 2,8,-1
 809 123 l 2,9,10
 809 98 809 98 826.5 80 c 128,-1,11
 844 62 844 62 869 62 c 2,12,-1
 1199 62 l 2,13,14
 1225 62 1225 62 1242.5 80 c 128,-1,15
 1260 98 1260 98 1260 123 c 2,16,-1
 1260 658 l 2,17,18
 1260 684 1260 684 1242.5 701.5 c 128,-1,19
 1225 719 1225 719 1199 719 c 0,20,21
 1139 719 1139 719 1097 761 c 128,-1,22
 1055 803 1055 803 1055 863 c 2,23,-1
 1055 1119 l 2,24,25
 1055 1170 1055 1170 1091 1206 c 128,-1,26
 1127 1242 1127 1242 1178 1242 c 2,27,-1
 1527 1242 l 2,28,29
 1578 1242 1578 1242 1614 1206 c 128,-1,30
 1650 1170 1650 1170 1650 1119 c 2,31,-1
 1650 0 l 1,32,-1
 1590 0 l 1,33,-1
 1590 1119 l 2,34,35
 1590 1145 1590 1145 1571.5 1162.5 c 128,-1,36
 1553 1180 1553 1180 1527 1180 c 2,37,-1
 1178 1180 l 2,38,39
 1152 1180 1152 1180 1134.5 1162.5 c 128,-1,40
 1117 1145 1117 1145 1117 1119 c 2,41,-1
 1117 863 l 2,42,43
 1117 830 1117 830 1141.5 805.5 c 128,-1,44
 1166 781 1166 781 1199 781 c 0,45,46
 1250 781 1250 781 1286 745 c 128,-1,47
 1322 709 1322 709 1322 658 c 2,48,-1
 1322 123 l 2,49,50
 1322 72 1322 72 1286 36 c 128,-1,51
 1250 0 1250 0 1199 0 c 2,52,-1
 869 0 l 2,53,54
 818 0 818 0 782 36 c 128,-1,55
 746 72 746 72 746 123 c 2,56,-1
 746 658 l 2,57,58
 746 684 746 684 728.5 701.5 c 128,-1,59
 711 719 711 719 686 719 c 2,60,-1
 254 719 l 2,61,62
 229 719 229 719 210 701.5 c 128,-1,63
 191 684 191 684 191 658 c 2,64,-1
 191 473 l 1,65,-1
 418 473 l 2,66,67
 477 473 477 473 519 442.5 c 128,-1,68
 561 412 561 412 561 369 c 2,69,-1
 561 123 l 2,70,71
 561 72 561 72 524.5 36 c 128,-1,72
 488 0 488 0 437 0 c 2,73,-1
 254 0 l 2,74,75
 201 0 201 0 165 42 c 128,-1,76
 129 84 129 84 129 145 c 2,0,-1
191 145 m 2,77,78
 191 111 191 111 210 86.5 c 128,-1,79
 229 62 229 62 254 62 c 2,80,-1
 437 62 l 2,81,82
 463 62 463 62 481.5 80 c 128,-1,83
 500 98 500 98 500 123 c 2,84,-1
 500 369 l 2,85,86
 500 387 500 387 475.5 399.5 c 128,-1,87
 451 412 451 412 418 412 c 2,88,-1
 191 412 l 1,89,-1
 191 145 l 2,77,78
EndSplineSet
Ligature2: "'psts' Post Base Substitutions lookup 8 subtable" tm_la tm_ikaar
EndChar

StartChar: tm_ll_ikaar
Encoding: 65559 -1 136
Width: 1787
GlyphClass: 2
Flags: W
LayerCount: 2
Fore
SplineSet
129 145 m 2,0,-1
 129 658 l 2,1,2
 129 709 129 709 165 745 c 128,-1,3
 201 781 201 781 254 781 c 2,4,-1
 623 781 l 2,5,6
 662 781 662 781 695.5 753 c 128,-1,7
 729 725 729 725 746 678 c 1,8,-1
 746 781 l 1,9,-1
 1213 781 l 1,10,11
 1187 803 1187 803 1172.5 830 c 128,-1,12
 1158 857 1158 857 1158 885 c 2,13,-1
 1158 1119 l 2,14,15
 1158 1170 1158 1170 1194 1206 c 128,-1,16
 1230 1242 1230 1242 1281 1242 c 2,17,-1
 1527 1242 l 2,18,19
 1578 1242 1578 1242 1614 1206 c 128,-1,20
 1650 1170 1650 1170 1650 1119 c 2,21,-1
 1650 0 l 1,22,-1
 1590 0 l 1,23,-1
 1590 1119 l 2,24,25
 1590 1145 1590 1145 1571.5 1162.5 c 128,-1,26
 1553 1180 1553 1180 1527 1180 c 2,27,-1
 1281 1180 l 2,28,29
 1256 1180 1256 1180 1237.5 1162.5 c 128,-1,30
 1219 1145 1219 1145 1219 1119 c 2,31,-1
 1219 885 l 2,32,33
 1219 842 1219 842 1243.5 811.5 c 128,-1,34
 1268 781 1268 781 1301 781 c 2,35,-1
 1488 781 l 1,36,-1
 1488 719 l 1,37,-1
 1219 719 l 1,38,-1
 1219 0 l 1,39,-1
 1158 0 l 1,40,-1
 1158 719 l 1,41,-1
 809 719 l 1,42,-1
 809 0 l 1,43,-1
 746 0 l 1,44,-1
 746 596 l 2,45,46
 746 637 746 637 705 678 c 128,-1,47
 664 719 664 719 623 719 c 2,48,-1
 254 719 l 2,49,50
 229 719 229 719 210 701.5 c 128,-1,51
 191 684 191 684 191 658 c 2,52,-1
 191 473 l 1,53,-1
 418 473 l 2,54,55
 477 473 477 473 519 436.5 c 128,-1,56
 561 400 561 400 561 350 c 2,57,-1
 561 123 l 2,58,59
 561 72 561 72 524.5 36 c 128,-1,60
 488 0 488 0 437 0 c 2,61,-1
 254 0 l 2,62,63
 201 0 201 0 165 42 c 128,-1,64
 129 84 129 84 129 145 c 2,0,-1
191 145 m 2,65,66
 191 111 191 111 210 86.5 c 128,-1,67
 229 62 229 62 254 62 c 2,68,-1
 437 62 l 2,69,70
 463 62 463 62 481.5 80 c 128,-1,71
 500 98 500 98 500 123 c 2,72,-1
 500 350 l 2,73,74
 500 375 500 375 475.5 393.5 c 128,-1,75
 451 412 451 412 418 412 c 2,76,-1
 191 412 l 1,77,-1
 191 145 l 2,65,66
EndSplineSet
Ligature2: "'psts' Post Base Substitutions lookup 8 subtable" tm_lla tm_ikaar
EndChar

StartChar: tm_lll_ikaar
Encoding: 65560 -1 137
Width: 1533
GlyphClass: 2
Flags: W
LayerCount: 2
Fore
SplineSet
135 123 m 2,0,-1
 135 781 l 1,1,-1
 197 781 l 1,2,-1
 197 123 l 2,3,4
 197 98 197 98 215.5 80 c 128,-1,5
 234 62 234 62 260 62 c 2,6,-1
 547 62 l 1,7,-1
 547 658 l 2,8,9
 547 709 547 709 583 745 c 128,-1,10
 619 781 619 781 670 781 c 2,11,-1
 809 781 l 1,12,13
 781 805 781 805 766.5 831 c 128,-1,14
 752 857 752 857 752 885 c 2,15,-1
 752 1119 l 2,16,17
 752 1170 752 1170 788 1206 c 128,-1,18
 824 1242 824 1242 875 1242 c 2,19,-1
 1273 1242 l 2,20,21
 1324 1242 1324 1242 1360 1206 c 128,-1,22
 1396 1170 1396 1170 1396 1119 c 2,23,-1
 1396 0 l 1,24,-1
 1336 0 l 1,25,-1
 1336 1119 l 2,26,27
 1336 1145 1336 1145 1317.5 1162.5 c 128,-1,28
 1299 1180 1299 1180 1273 1180 c 2,29,-1
 875 1180 l 2,30,31
 850 1180 850 1180 832 1162.5 c 128,-1,32
 814 1145 814 1145 814 1119 c 2,33,-1
 814 885 l 2,34,35
 814 842 814 842 838.5 811.5 c 128,-1,36
 863 781 863 781 896 781 c 0,37,38
 947 781 947 781 983.5 745 c 128,-1,39
 1020 709 1020 709 1020 658 c 2,40,-1
 1020 145 l 2,41,42
 1020 84 1020 84 978 42 c 128,-1,43
 936 0 936 0 875 0 c 2,44,-1
 609 0 l 1,45,-1
 609 -82 l 2,46,47
 609 -107 609 -107 627 -126 c 128,-1,48
 645 -145 645 -145 670 -145 c 2,49,-1
 916 -145 l 1,50,-1
 916 -205 l 1,51,-1
 834 -205 l 2,52,53
 801 -205 801 -205 776.5 -229.5 c 128,-1,54
 752 -254 752 -254 752 -287 c 2,55,-1
 752 -494 l 2,56,57
 752 -545 752 -545 716 -581 c 128,-1,58
 680 -617 680 -617 629 -617 c 2,59,-1
 135 -617 l 2,60,61
 84 -617 84 -617 48 -581 c 128,-1,62
 12 -545 12 -545 12 -494 c 2,63,-1
 12 -350 l 2,64,65
 12 -299 12 -299 48 -263 c 128,-1,66
 84 -227 84 -227 135 -227 c 2,67,-1
 219 -227 l 1,68,-1
 219 -287 l 1,69,-1
 135 -287 l 2,70,71
 109 -287 109 -287 91.5 -305.5 c 128,-1,72
 74 -324 74 -324 74 -350 c 2,73,-1
 74 -494 l 2,74,75
 74 -520 74 -520 91.5 -537.5 c 128,-1,76
 109 -555 109 -555 135 -555 c 2,77,-1
 629 -555 l 2,78,79
 654 -555 654 -555 672.5 -537.5 c 128,-1,80
 691 -520 691 -520 691 -494 c 2,81,-1
 691 -287 l 2,82,83
 691 -264 691 -264 713.5 -241.5 c 128,-1,84
 736 -219 736 -219 773 -205 c 1,85,-1
 670 -205 l 2,86,87
 619 -205 619 -205 583 -169 c 128,-1,88
 547 -133 547 -133 547 -82 c 2,89,-1
 547 0 l 1,90,-1
 219 0 l 2,91,92
 184 0 184 0 159.5 36 c 128,-1,93
 135 72 135 72 135 123 c 2,0,-1
609 62 m 1,94,-1
 875 62 l 2,95,96
 908 62 908 62 932.5 86.5 c 128,-1,97
 957 111 957 111 957 145 c 2,98,-1
 957 658 l 2,99,100
 957 684 957 684 939.5 701.5 c 128,-1,101
 922 719 922 719 896 719 c 2,102,-1
 670 719 l 2,103,104
 645 719 645 719 627 701.5 c 128,-1,105
 609 684 609 684 609 658 c 2,106,-1
 609 62 l 1,94,-1
EndSplineSet
Ligature2: "'psts' Post Base Substitutions lookup 8 subtable" tm_llla tm_ikaar
EndChar

StartChar: tm_v_ikaar
Encoding: 65561 -1 138
Width: 1768
GlyphClass: 2
Flags: W
LayerCount: 2
Fore
SplineSet
129 145 m 2,0,-1
 129 658 l 2,1,2
 129 709 129 709 165 745 c 128,-1,3
 201 781 201 781 254 781 c 2,4,-1
 686 781 l 2,5,6
 736 781 736 781 772.5 745 c 128,-1,7
 809 709 809 709 809 658 c 2,8,-1
 809 145 l 2,9,10
 809 121 809 121 798 99.5 c 128,-1,11
 787 78 787 78 768 62 c 1,12,-1
 1199 62 l 2,13,14
 1225 62 1225 62 1242.5 80 c 128,-1,15
 1260 98 1260 98 1260 123 c 2,16,-1
 1260 576 l 1,17,-1
 1137 576 l 2,18,19
 1086 576 1086 576 1050 612 c 128,-1,20
 1014 648 1014 648 1014 699 c 2,21,-1
 1014 1119 l 2,22,23
 1014 1170 1014 1170 1050 1206 c 128,-1,24
 1086 1242 1086 1242 1137 1242 c 2,25,-1
 1508 1242 l 2,26,27
 1559 1242 1559 1242 1595 1206 c 128,-1,28
 1631 1170 1631 1170 1631 1119 c 2,29,-1
 1631 0 l 1,30,-1
 1568 0 l 1,31,-1
 1568 1119 l 2,32,33
 1568 1145 1568 1145 1550.5 1162.5 c 128,-1,34
 1533 1180 1533 1180 1508 1180 c 2,35,-1
 1137 1180 l 2,36,37
 1111 1180 1111 1180 1093.5 1162.5 c 128,-1,38
 1076 1145 1076 1145 1076 1119 c 2,39,-1
 1076 699 l 2,40,41
 1076 674 1076 674 1093.5 655.5 c 128,-1,42
 1111 637 1111 637 1137 637 c 2,43,-1
 1260 637 l 1,44,-1
 1260 781 l 1,45,-1
 1322 781 l 1,46,-1
 1322 123 l 2,47,48
 1322 72 1322 72 1286 36 c 128,-1,49
 1250 0 1250 0 1199 0 c 2,50,-1
 686 0 l 1,51,-1
 686 66 l 1,52,53
 711 66 711 66 728.5 88.5 c 128,-1,54
 746 111 746 111 746 145 c 2,55,-1
 746 658 l 2,56,57
 746 684 746 684 728.5 701.5 c 128,-1,58
 711 719 711 719 686 719 c 2,59,-1
 254 719 l 2,60,61
 229 719 229 719 210 701.5 c 128,-1,62
 191 684 191 684 191 658 c 2,63,-1
 191 473 l 1,64,-1
 418 473 l 2,65,66
 477 473 477 473 519 436.5 c 128,-1,67
 561 400 561 400 561 350 c 2,68,-1
 561 123 l 2,69,70
 561 72 561 72 524.5 36 c 128,-1,71
 488 0 488 0 437 0 c 2,72,-1
 254 0 l 2,73,74
 201 0 201 0 165 42 c 128,-1,75
 129 84 129 84 129 145 c 2,0,-1
191 145 m 2,76,77
 191 111 191 111 210 86.5 c 128,-1,78
 229 62 229 62 254 62 c 2,79,-1
 437 62 l 2,80,81
 463 62 463 62 481.5 80 c 128,-1,82
 500 98 500 98 500 123 c 2,83,-1
 500 350 l 2,84,85
 500 375 500 375 475.5 393.5 c 128,-1,86
 451 412 451 412 418 412 c 2,87,-1
 191 412 l 1,88,-1
 191 145 l 2,76,77
EndSplineSet
Ligature2: "'psts' Post Base Substitutions lookup 8 subtable" tm_va tm_ikaar
EndChar

StartChar: tm_ss_ikaar
Encoding: 65562 -1 139
Width: 2178
GlyphClass: 2
Flags: W
LayerCount: 2
Fore
SplineSet
129 145 m 2,0,-1
 129 658 l 2,1,2
 129 709 129 709 165 745 c 128,-1,3
 201 781 201 781 252 781 c 2,4,-1
 684 781 l 2,5,6
 734 781 734 781 770.5 745 c 128,-1,7
 807 709 807 709 807 658 c 2,8,-1
 807 145 l 2,9,10
 807 123 807 123 795 101.5 c 128,-1,11
 783 80 783 80 762 62 c 1,12,-1
 1402 62 l 1,13,-1
 1402 309 l 1,14,-1
 1137 309 l 2,15,16
 1076 309 1076 309 1034 345 c 128,-1,17
 992 381 992 381 992 432 c 2,18,-1
 992 658 l 2,19,20
 992 709 992 709 1028 745 c 128,-1,21
 1064 781 1064 781 1115 781 c 2,22,-1
 1314 781 l 1,23,24
 1289 803 1289 803 1274.5 830 c 128,-1,25
 1260 857 1260 857 1260 885 c 2,26,-1
 1260 1119 l 2,27,28
 1260 1170 1260 1170 1296 1206 c 128,-1,29
 1332 1242 1332 1242 1383 1242 c 2,30,-1
 1918 1242 l 2,31,32
 1969 1242 1969 1242 2005 1206 c 128,-1,33
 2041 1170 2041 1170 2041 1119 c 2,34,-1
 2041 0 l 1,35,-1
 1979 0 l 1,36,-1
 1979 1119 l 2,37,38
 1979 1145 1979 1145 1961 1162.5 c 128,-1,39
 1943 1180 1943 1180 1918 1180 c 2,40,-1
 1383 1180 l 2,41,42
 1357 1180 1357 1180 1338.5 1162.5 c 128,-1,43
 1320 1145 1320 1145 1320 1119 c 2,44,-1
 1320 885 l 2,45,46
 1320 842 1320 842 1344.5 811.5 c 128,-1,47
 1369 781 1369 781 1402 781 c 0,48,49
 1428 781 1428 781 1446.5 745 c 128,-1,50
 1465 709 1465 709 1465 658 c 2,51,-1
 1465 369 l 1,52,-1
 1670 369 l 2,53,54
 1721 369 1721 369 1757 333 c 128,-1,55
 1793 297 1793 297 1793 246 c 2,56,-1
 1793 123 l 2,57,58
 1793 72 1793 72 1757 36 c 128,-1,59
 1721 0 1721 0 1670 0 c 2,60,-1
 1465 0 l 1,61,-1
 1465 -205 l 1,62,-1
 1402 -205 l 1,63,-1
 1402 0 l 1,64,-1
 684 0 l 1,65,-1
 684 66 l 1,66,67
 709 66 709 66 727.5 88.5 c 128,-1,68
 746 111 746 111 746 145 c 2,69,-1
 746 658 l 2,70,71
 746 684 746 684 727.5 701.5 c 128,-1,72
 709 719 709 719 684 719 c 2,73,-1
 252 719 l 2,74,75
 227 719 227 719 208 701.5 c 128,-1,76
 189 684 189 684 189 658 c 2,77,-1
 189 473 l 1,78,-1
 416 473 l 2,79,80
 477 473 477 473 519 436.5 c 128,-1,81
 561 400 561 400 561 350 c 2,82,-1
 561 123 l 2,83,84
 561 72 561 72 524.5 36 c 128,-1,85
 488 0 488 0 437 0 c 2,86,-1
 252 0 l 2,87,88
 201 0 201 0 165 42 c 128,-1,89
 129 84 129 84 129 145 c 2,0,-1
189 145 m 2,90,91
 189 111 189 111 208 86.5 c 128,-1,92
 227 62 227 62 252 62 c 2,93,-1
 437 62 l 2,94,95
 463 62 463 62 480.5 80 c 128,-1,96
 498 98 498 98 498 123 c 2,97,-1
 498 350 l 2,98,99
 498 375 498 375 473.5 393.5 c 128,-1,100
 449 412 449 412 416 412 c 2,101,-1
 189 412 l 1,102,-1
 189 145 l 2,90,91
1053 432 m 2,103,104
 1053 406 1053 406 1077.5 387.5 c 128,-1,105
 1102 369 1102 369 1137 369 c 2,106,-1
 1402 369 l 1,107,-1
 1402 658 l 2,108,109
 1402 684 1402 684 1384.5 701.5 c 128,-1,110
 1367 719 1367 719 1342 719 c 2,111,-1
 1115 719 l 2,112,113
 1090 719 1090 719 1071.5 701.5 c 128,-1,114
 1053 684 1053 684 1053 658 c 2,115,-1
 1053 432 l 2,103,104
1465 62 m 1,116,-1
 1670 62 l 2,117,118
 1695 62 1695 62 1713.5 80 c 128,-1,119
 1732 98 1732 98 1732 123 c 2,120,-1
 1732 246 l 2,121,122
 1732 271 1732 271 1713.5 290 c 128,-1,123
 1695 309 1695 309 1670 309 c 2,124,-1
 1465 309 l 1,125,-1
 1465 62 l 1,116,-1
EndSplineSet
Ligature2: "'psts' Post Base Substitutions lookup 8 subtable" tm_ssa tm_ikaar
EndChar

StartChar: tm_s_ikaar
Encoding: 65563 -1 140
Width: 2117
GlyphClass: 2
Flags: W
LayerCount: 2
Fore
SplineSet
131 123 m 2,0,-1
 131 658 l 2,1,2
 131 709 131 709 167 745 c 128,-1,3
 203 781 203 781 254 781 c 2,4,-1
 623 781 l 2,5,6
 666 781 666 781 708 756.5 c 128,-1,7
 750 732 750 732 781 687 c 1,8,9
 801 729 801 729 836 754 c 128,-1,10
 871 779 871 779 912 781 c 2,11,-1
 1098 781 l 2,12,13
 1148 781 1148 781 1184.5 745 c 128,-1,14
 1221 709 1221 709 1221 658 c 2,15,-1
 1221 123 l 2,16,17
 1221 98 1221 98 1238.5 80 c 128,-1,18
 1256 62 1256 62 1281 62 c 2,19,-1
 1549 62 l 2,20,21
 1574 62 1574 62 1592.5 80 c 128,-1,22
 1611 98 1611 98 1611 123 c 2,23,-1
 1611 658 l 2,24,25
 1611 684 1611 684 1592.5 701.5 c 128,-1,26
 1574 719 1574 719 1549 719 c 2,27,-1
 1488 719 l 2,28,29
 1436 719 1436 719 1399.5 761 c 128,-1,30
 1363 803 1363 803 1363 863 c 2,31,-1
 1363 1119 l 2,32,33
 1363 1170 1363 1170 1399.5 1206 c 128,-1,34
 1436 1242 1436 1242 1488 1242 c 2,35,-1
 1857 1242 l 2,36,37
 1908 1242 1908 1242 1944 1206 c 128,-1,38
 1980 1170 1980 1170 1980 1119 c 2,39,-1
 1980 0 l 1,40,-1
 1920 0 l 1,41,-1
 1920 1119 l 2,42,43
 1920 1145 1920 1145 1901.5 1162.5 c 128,-1,44
 1883 1180 1883 1180 1857 1180 c 2,45,-1
 1488 1180 l 2,46,47
 1463 1180 1463 1180 1444.5 1162.5 c 128,-1,48
 1426 1145 1426 1145 1426 1119 c 2,49,-1
 1426 863 l 2,50,51
 1426 830 1426 830 1444.5 805.5 c 128,-1,52
 1463 781 1463 781 1488 781 c 2,53,-1
 1549 781 l 2,54,55
 1600 781 1600 781 1636 745 c 128,-1,56
 1672 709 1672 709 1672 658 c 2,57,-1
 1672 123 l 2,58,59
 1672 72 1672 72 1636 36 c 128,-1,60
 1600 0 1600 0 1549 0 c 2,61,-1
 1281 0 l 2,62,63
 1230 0 1230 0 1194 36 c 128,-1,64
 1158 72 1158 72 1158 123 c 2,65,-1
 1158 658 l 2,66,67
 1158 684 1158 684 1140.5 701.5 c 128,-1,68
 1123 719 1123 719 1098 719 c 2,69,-1
 910 719 l 2,70,71
 867 719 867 719 838 682.5 c 128,-1,72
 809 646 809 646 809 596 c 2,73,-1
 809 0 l 1,74,-1
 748 0 l 1,75,-1
 748 596 l 2,76,77
 748 637 748 637 706 678 c 128,-1,78
 664 719 664 719 623 719 c 2,79,-1
 254 719 l 2,80,81
 229 719 229 719 210 701.5 c 128,-1,82
 191 684 191 684 191 658 c 2,83,-1
 191 473 l 1,84,-1
 418 473 l 2,85,86
 479 473 479 473 520.5 436.5 c 128,-1,87
 562 400 562 400 562 350 c 2,88,-1
 562 123 l 2,89,90
 562 72 562 72 526 36 c 128,-1,91
 490 0 490 0 439 0 c 2,92,-1
 254 0 l 2,93,94
 203 0 203 0 167 36 c 128,-1,95
 131 72 131 72 131 123 c 2,0,-1
191 123 m 2,96,97
 191 98 191 98 210 80 c 128,-1,98
 229 62 229 62 254 62 c 2,99,-1
 439 62 l 2,100,101
 465 62 465 62 482.5 80 c 128,-1,102
 500 98 500 98 500 123 c 2,103,-1
 500 350 l 2,104,105
 500 375 500 375 475.5 393.5 c 128,-1,106
 451 412 451 412 418 412 c 2,107,-1
 191 412 l 1,108,-1
 191 123 l 2,96,97
EndSplineSet
Ligature2: "'psts' Post Base Substitutions lookup 8 subtable" tm_sa tm_ikaar
EndChar

StartChar: tm_h_ikaar
Encoding: 65564 -1 141
Width: 2408
GlyphClass: 2
Flags: W
LayerCount: 2
Fore
SplineSet
129 145 m 2,0,-1
 129 658 l 2,1,2
 129 709 129 709 165 745 c 128,-1,3
 201 781 201 781 252 781 c 2,4,-1
 684 781 l 2,5,6
 734 781 734 781 770.5 745 c 128,-1,7
 807 709 807 709 807 658 c 2,8,-1
 807 145 l 2,9,10
 807 121 807 121 797 99.5 c 128,-1,11
 787 78 787 78 768 62 c 1,12,-1
 1033 62 l 1,13,-1
 1033 658 l 2,14,15
 1033 709 1033 709 1069 745 c 128,-1,16
 1105 781 1105 781 1156 781 c 2,17,-1
 1383 781 l 2,18,19
 1416 781 1416 781 1441.5 765.5 c 128,-1,20
 1467 750 1467 750 1477 723 c 1,21,22
 1486 750 1486 750 1511.5 765.5 c 128,-1,23
 1537 781 1537 781 1568 781 c 2,24,-1
 1717 781 l 1,25,26
 1695 801 1695 801 1682.5 827.5 c 128,-1,27
 1670 854 1670 854 1670 885 c 2,28,-1
 1670 1119 l 2,29,30
 1670 1170 1670 1170 1706 1206 c 128,-1,31
 1742 1242 1742 1242 1793 1242 c 2,32,-1
 2146 1242 l 2,33,34
 2199 1242 2199 1242 2235 1206 c 128,-1,35
 2271 1170 2271 1170 2271 1119 c 2,36,-1
 2271 0 l 1,37,-1
 2209 0 l 1,38,-1
 2209 1119 l 2,39,40
 2209 1145 2209 1145 2190.5 1162.5 c 128,-1,41
 2172 1180 2172 1180 2146 1180 c 2,42,-1
 1793 1180 l 2,43,44
 1768 1180 1768 1180 1750 1162.5 c 128,-1,45
 1732 1145 1732 1145 1732 1119 c 2,46,-1
 1732 885 l 2,47,48
 1732 852 1732 852 1746 824.5 c 128,-1,49
 1760 797 1760 797 1785 783 c 1,50,51
 1840 783 1840 783 1879 747 c 128,-1,52
 1918 711 1918 711 1918 658 c 2,53,-1
 1918 -82 l 2,54,55
 1918 -143 1918 -143 1876 -185 c 128,-1,56
 1834 -227 1834 -227 1773 -227 c 2,57,-1
 193 -227 l 2,58,59
 160 -227 160 -227 135.5 -251 c 128,-1,60
 111 -275 111 -275 111 -309 c 2,61,-1
 111 -328 l 1,62,-1
 51 -328 l 1,63,-1
 51 -309 l 2,64,65
 51 -248 51 -248 93 -206 c 128,-1,66
 135 -164 135 -164 193 -164 c 2,67,-1
 1773 -164 l 2,68,69
 1807 -164 1807 -164 1831 -139.5 c 128,-1,70
 1855 -115 1855 -115 1855 -82 c 2,71,-1
 1855 658 l 2,72,73
 1855 684 1855 684 1836.5 701.5 c 128,-1,74
 1818 719 1818 719 1793 719 c 2,75,-1
 1568 719 l 2,76,77
 1543 719 1543 719 1524.5 701.5 c 128,-1,78
 1506 684 1506 684 1506 658 c 2,79,-1
 1506 0 l 1,80,-1
 1443 0 l 1,81,-1
 1443 658 l 2,82,83
 1443 684 1443 684 1425.5 701.5 c 128,-1,84
 1408 719 1408 719 1383 719 c 2,85,-1
 1156 719 l 2,86,87
 1131 719 1131 719 1113.5 701.5 c 128,-1,88
 1096 684 1096 684 1096 658 c 2,89,-1
 1096 0 l 1,90,-1
 684 0 l 1,91,-1
 684 66 l 1,92,93
 709 66 709 66 727.5 88.5 c 128,-1,94
 746 111 746 111 746 145 c 2,95,-1
 746 658 l 2,96,97
 746 684 746 684 727.5 701.5 c 128,-1,98
 709 719 709 719 684 719 c 2,99,-1
 252 719 l 2,100,101
 227 719 227 719 208 701.5 c 128,-1,102
 189 684 189 684 189 658 c 2,103,-1
 189 473 l 1,104,-1
 416 473 l 2,105,106
 477 473 477 473 519 442.5 c 128,-1,107
 561 412 561 412 561 369 c 2,108,-1
 561 123 l 2,109,110
 561 72 561 72 524.5 36 c 128,-1,111
 488 0 488 0 437 0 c 2,112,-1
 252 0 l 2,113,114
 201 0 201 0 165 42 c 128,-1,115
 129 84 129 84 129 145 c 2,0,-1
189 145 m 2,116,117
 189 111 189 111 208 86.5 c 128,-1,118
 227 62 227 62 252 62 c 2,119,-1
 437 62 l 2,120,121
 463 62 463 62 480.5 80 c 128,-1,122
 498 98 498 98 498 123 c 2,123,-1
 498 369 l 2,124,125
 498 387 498 387 473.5 399.5 c 128,-1,126
 449 412 449 412 416 412 c 2,127,-1
 189 412 l 1,128,-1
 189 145 l 2,116,117
EndSplineSet
Ligature2: "'psts' Post Base Substitutions lookup 8 subtable" tm_ha tm_ikaar
EndChar

StartChar: tm_k_iikaar
Encoding: 65565 -1 142
Width: 1129
GlyphClass: 2
Flags: W
LayerCount: 2
Fore
SplineSet
70 145 m 2,0,-1
 70 320 l 2,1,2
 70 371 70 371 106.5 407 c 128,-1,3
 143 443 143 443 195 443 c 2,4,-1
 236 443 l 1,5,-1
 236 658 l 2,6,7
 236 709 236 709 272.5 745 c 128,-1,8
 309 781 309 781 359 781 c 2,9,-1
 641 781 l 1,10,11
 615 803 615 803 600.5 830 c 128,-1,12
 586 857 586 857 586 885 c 2,13,-1
 586 1119 l 2,14,15
 586 1170 586 1170 622 1206 c 128,-1,16
 658 1242 658 1242 709 1242 c 2,17,-1
 1059 1242 l 2,18,19
 1109 1242 1109 1242 1145.5 1206 c 128,-1,20
 1182 1170 1182 1170 1182 1119 c 2,21,-1
 1182 975 l 2,22,23
 1182 924 1182 924 1145.5 888 c 128,-1,24
 1109 852 1109 852 1059 852 c 2,25,-1
 955 852 l 2,26,27
 904 852 904 852 868 888 c 128,-1,28
 832 924 832 924 832 975 c 2,29,-1
 832 1180 l 1,30,-1
 709 1180 l 2,31,32
 684 1180 684 1180 665 1162.5 c 128,-1,33
 646 1145 646 1145 646 1119 c 2,34,-1
 646 885 l 2,35,36
 646 852 646 852 666.5 822.5 c 128,-1,37
 687 793 687 793 723 781 c 1,38,-1
 914 781 l 1,39,-1
 914 719 l 1,40,-1
 646 719 l 1,41,-1
 646 443 l 1,42,-1
 936 443 l 2,43,44
 986 443 986 443 1022.5 407 c 128,-1,45
 1059 371 1059 371 1059 320 c 2,46,-1
 1059 123 l 2,47,48
 1059 72 1059 72 1022.5 36 c 128,-1,49
 986 0 986 0 936 0 c 2,50,-1
 811 0 l 1,51,-1
 811 62 l 1,52,-1
 936 62 l 2,53,54
 961 62 961 62 978.5 80 c 128,-1,55
 996 98 996 98 996 123 c 2,56,-1
 996 320 l 2,57,58
 996 346 996 346 978.5 364.5 c 128,-1,59
 961 383 961 383 936 383 c 2,60,-1
 646 383 l 1,61,-1
 646 123 l 2,62,63
 646 72 646 72 610 36 c 128,-1,64
 574 0 574 0 523 0 c 2,65,-1
 215 0 l 2,66,67
 154 0 154 0 112 42 c 128,-1,68
 70 84 70 84 70 145 c 2,0,-1
133 145 m 2,69,70
 133 111 133 111 157.5 86.5 c 128,-1,71
 182 62 182 62 215 62 c 2,72,-1
 523 62 l 2,73,74
 549 62 549 62 567.5 80 c 128,-1,75
 586 98 586 98 586 123 c 2,76,-1
 586 383 l 1,77,-1
 195 383 l 2,78,79
 170 383 170 383 151.5 364.5 c 128,-1,80
 133 346 133 346 133 320 c 2,81,-1
 133 145 l 2,69,70
297 443 m 1,82,-1
 586 443 l 1,83,-1
 586 719 l 1,84,-1
 359 719 l 2,85,86
 334 719 334 719 315.5 701.5 c 128,-1,87
 297 684 297 684 297 658 c 2,88,-1
 297 443 l 1,82,-1
893 1180 m 1,89,-1
 893 975 l 2,90,91
 893 949 893 949 911.5 930.5 c 128,-1,92
 930 912 930 912 955 912 c 2,93,-1
 1059 912 l 2,94,95
 1084 912 1084 912 1101.5 930.5 c 128,-1,96
 1119 949 1119 949 1119 975 c 2,97,-1
 1119 1119 l 2,98,99
 1119 1145 1119 1145 1101.5 1162.5 c 128,-1,100
 1084 1180 1084 1180 1059 1180 c 2,101,-1
 893 1180 l 1,89,-1
EndSplineSet
Ligature2: "'abvs' Above Base Substitutions lookup 6 subtable" tm_ka tm_iikaar
EndChar

StartChar: tm_ng_iikaar
Encoding: 65566 -1 143
Width: 1607
GlyphClass: 2
Flags: W
LayerCount: 2
Fore
SplineSet
135 0 m 1,0,-1
 135 658 l 2,1,2
 135 709 135 709 171 745 c 128,-1,3
 207 781 207 781 258 781 c 2,4,-1
 916 781 l 1,5,-1
 916 719 l 1,6,-1
 607 719 l 1,7,-1
 607 414 l 1,8,9
 631 434 631 434 651.5 443.5 c 128,-1,10
 672 453 672 453 689 453 c 2,11,-1
 895 453 l 2,12,13
 945 453 945 453 981.5 417 c 128,-1,14
 1018 381 1018 381 1018 328 c 2,15,-1
 1018 145 l 2,16,17
 1018 121 1018 121 1008 99.5 c 128,-1,18
 998 78 998 78 979 62 c 1,19,-1
 1408 62 l 1,20,-1
 1408 576 l 1,21,-1
 1162 576 l 2,22,23
 1111 576 1111 576 1075 612 c 128,-1,24
 1039 648 1039 648 1039 699 c 2,25,-1
 1039 1119 l 2,26,27
 1039 1170 1039 1170 1075 1206 c 128,-1,28
 1111 1242 1111 1242 1162 1242 c 2,29,-1
 1449 1242 l 2,30,31
 1502 1242 1502 1242 1538 1206 c 128,-1,32
 1574 1170 1574 1170 1574 1119 c 2,33,-1
 1574 975 l 2,34,35
 1574 924 1574 924 1538 888 c 128,-1,36
 1502 852 1502 852 1449 852 c 2,37,-1
 1348 852 l 2,38,39
 1297 852 1297 852 1261 888 c 128,-1,40
 1225 924 1225 924 1225 975 c 2,41,-1
 1225 1180 l 1,42,-1
 1162 1180 l 2,43,44
 1137 1180 1137 1180 1119.5 1162.5 c 128,-1,45
 1102 1145 1102 1145 1102 1119 c 2,46,-1
 1102 699 l 2,47,48
 1102 674 1102 674 1119.5 655.5 c 128,-1,49
 1137 637 1137 637 1162 637 c 2,50,-1
 1408 637 l 1,51,-1
 1408 781 l 1,52,-1
 1471 781 l 1,53,-1
 1471 0 l 1,54,-1
 545 0 l 1,55,-1
 545 62 l 1,56,-1
 875 62 l 2,57,58
 908 62 908 62 932.5 86.5 c 128,-1,59
 957 111 957 111 957 145 c 2,60,-1
 957 328 l 2,61,62
 957 354 957 354 938.5 372.5 c 128,-1,63
 920 391 920 391 895 391 c 2,64,-1
 689 391 l 2,65,66
 656 391 656 391 631.5 372.5 c 128,-1,67
 607 354 607 354 607 328 c 2,68,-1
 607 211 l 1,69,-1
 545 211 l 1,70,-1
 545 719 l 1,71,-1
 258 719 l 2,72,73
 232 719 232 719 213.5 701.5 c 128,-1,74
 195 684 195 684 195 658 c 2,75,-1
 195 0 l 1,76,-1
 135 0 l 1,0,-1
1285 1180 m 1,77,-1
 1285 975 l 2,78,79
 1285 949 1285 949 1303.5 930.5 c 128,-1,80
 1322 912 1322 912 1348 912 c 2,81,-1
 1449 912 l 2,82,83
 1475 912 1475 912 1493.5 930.5 c 128,-1,84
 1512 949 1512 949 1512 975 c 2,85,-1
 1512 1119 l 2,86,87
 1512 1145 1512 1145 1493.5 1162.5 c 128,-1,88
 1475 1180 1475 1180 1449 1180 c 2,89,-1
 1285 1180 l 1,77,-1
EndSplineSet
Ligature2: "'abvs' Above Base Substitutions lookup 6 subtable" tm_nga tm_iikaar
EndChar

StartChar: tm_c_iikaar
Encoding: 65567 -1 144
Width: 928
GlyphClass: 2
Flags: W
LayerCount: 2
Fore
SplineSet
70 145 m 2,0,-1
 70 320 l 2,1,2
 70 371 70 371 106.5 407 c 128,-1,3
 143 443 143 443 195 443 c 2,4,-1
 236 443 l 1,5,-1
 236 658 l 2,6,7
 236 709 236 709 272.5 745 c 128,-1,8
 309 781 309 781 359 781 c 2,9,-1
 641 781 l 1,10,11
 615 803 615 803 600.5 830 c 128,-1,12
 586 857 586 857 586 885 c 2,13,-1
 586 1129 l 2,14,15
 586 1176 586 1176 618 1209 c 128,-1,16
 650 1242 650 1242 697 1242 c 2,17,-1
 1059 1242 l 2,18,19
 1109 1242 1109 1242 1145.5 1206 c 128,-1,20
 1182 1170 1182 1170 1182 1119 c 2,21,-1
 1182 975 l 2,22,23
 1182 924 1182 924 1145.5 888 c 128,-1,24
 1109 852 1109 852 1059 852 c 2,25,-1
 955 852 l 2,26,27
 904 852 904 852 868 888 c 128,-1,28
 832 924 832 924 832 975 c 2,29,-1
 832 1180 l 1,30,-1
 697 1180 l 2,31,32
 676 1180 676 1180 661 1165 c 128,-1,33
 646 1150 646 1150 646 1129 c 2,34,-1
 646 885 l 2,35,36
 646 852 646 852 666.5 822.5 c 128,-1,37
 687 793 687 793 723 781 c 1,38,-1
 914 781 l 1,39,-1
 914 719 l 1,40,-1
 646 719 l 1,41,-1
 646 443 l 1,42,-1
 852 443 l 1,43,-1
 852 383 l 1,44,-1
 646 383 l 1,45,-1
 646 123 l 2,46,47
 646 72 646 72 610 36 c 128,-1,48
 574 0 574 0 523 0 c 2,49,-1
 215 0 l 2,50,51
 154 0 154 0 112 42 c 128,-1,52
 70 84 70 84 70 145 c 2,0,-1
133 145 m 2,53,54
 133 111 133 111 157.5 86.5 c 128,-1,55
 182 62 182 62 215 62 c 2,56,-1
 523 62 l 2,57,58
 549 62 549 62 567.5 80 c 128,-1,59
 586 98 586 98 586 123 c 2,60,-1
 586 383 l 1,61,-1
 195 383 l 2,62,63
 170 383 170 383 151.5 364.5 c 128,-1,64
 133 346 133 346 133 320 c 2,65,-1
 133 145 l 2,53,54
297 443 m 1,66,-1
 586 443 l 1,67,-1
 586 719 l 1,68,-1
 359 719 l 2,69,70
 334 719 334 719 315.5 701.5 c 128,-1,71
 297 684 297 684 297 658 c 2,72,-1
 297 443 l 1,66,-1
893 1180 m 1,73,-1
 893 975 l 2,74,75
 893 949 893 949 911.5 930.5 c 128,-1,76
 930 912 930 912 955 912 c 2,77,-1
 1059 912 l 2,78,79
 1084 912 1084 912 1101.5 930.5 c 128,-1,80
 1119 949 1119 949 1119 975 c 2,81,-1
 1119 1119 l 2,82,83
 1119 1145 1119 1145 1101.5 1162.5 c 128,-1,84
 1084 1180 1084 1180 1059 1180 c 2,85,-1
 893 1180 l 1,73,-1
EndSplineSet
Ligature2: "'abvs' Above Base Substitutions lookup 6 subtable" tm_ca tm_iikaar
EndChar

StartChar: tm_j_iikaar
Encoding: 65568 -1 145
Width: 1441
GlyphClass: 2
Flags: W
LayerCount: 2
Fore
SplineSet
115 205 m 2,0,-1
 115 658 l 2,1,2
 115 709 115 709 151 745 c 128,-1,3
 187 781 187 781 238 781 c 2,4,-1
 607 781 l 2,5,6
 656 781 656 781 699 755.5 c 128,-1,7
 742 730 742 730 768 687 c 1,8,9
 793 730 793 730 827 755.5 c 128,-1,10
 861 781 861 781 895 781 c 2,11,-1
 1096 781 l 1,12,13
 1068 805 1068 805 1053.5 831 c 128,-1,14
 1039 857 1039 857 1039 885 c 2,15,-1
 1039 1129 l 2,16,17
 1039 1176 1039 1176 1072 1209 c 128,-1,18
 1105 1242 1105 1242 1152 1242 c 2,19,-1
 1514 1242 l 2,20,21
 1564 1242 1564 1242 1600.5 1206 c 128,-1,22
 1637 1170 1637 1170 1637 1119 c 2,23,-1
 1637 975 l 2,24,25
 1637 924 1637 924 1600.5 888 c 128,-1,26
 1564 852 1564 852 1514 852 c 2,27,-1
 1410 852 l 2,28,29
 1359 852 1359 852 1323 888 c 128,-1,30
 1287 924 1287 924 1287 975 c 2,31,-1
 1287 1180 l 1,32,-1
 1152 1180 l 2,33,34
 1131 1180 1131 1180 1116.5 1165 c 128,-1,35
 1102 1150 1102 1150 1102 1129 c 2,36,-1
 1102 885 l 2,37,38
 1102 846 1102 846 1123.5 816.5 c 128,-1,39
 1145 787 1145 787 1178 781 c 1,40,41
 1230 781 1230 781 1268.5 739 c 128,-1,42
 1307 697 1307 697 1307 637 c 2,43,-1
 1307 21 l 2,44,45
 1307 -31 1307 -31 1270.5 -67.5 c 128,-1,46
 1234 -104 1234 -104 1184 -104 c 2,47,-1
 238 -104 l 2,48,49
 213 -104 213 -104 194.5 -121.5 c 128,-1,50
 176 -139 176 -139 176 -164 c 2,51,-1
 176 -494 l 2,52,53
 176 -520 176 -520 194.5 -537.5 c 128,-1,54
 213 -555 213 -555 238 -555 c 2,55,-1
 279 -555 l 2,56,57
 295 -555 295 -555 316.5 -543 c 128,-1,58
 338 -531 338 -531 363 -510 c 2,59,-1
 662 -295 l 2,60,61
 697 -271 697 -271 725.5 -258.5 c 128,-1,62
 754 -246 754 -246 773 -246 c 2,63,-1
 1184 -246 l 2,64,65
 1234 -246 1234 -246 1270.5 -282 c 128,-1,66
 1307 -318 1307 -318 1307 -369 c 2,67,-1
 1307 -494 l 2,68,69
 1307 -549 1307 -549 1282.5 -588 c 128,-1,70
 1258 -627 1258 -627 1223 -627 c 2,71,-1
 1021 -617 l 2,72,73
 969 -617 969 -617 932.5 -581 c 128,-1,74
 896 -545 896 -545 896 -494 c 2,75,-1
 896 -391 l 1,76,-1
 957 -391 l 1,77,-1
 957 -494 l 2,78,79
 957 -520 957 -520 975.5 -537.5 c 128,-1,80
 994 -555 994 -555 1020 -555 c 2,81,-1
 1184 -555 l 2,82,83
 1209 -555 1209 -555 1227.5 -537.5 c 128,-1,84
 1246 -520 1246 -520 1246 -494 c 2,85,-1
 1246 -369 l 2,86,87
 1246 -344 1246 -344 1227.5 -326.5 c 128,-1,88
 1209 -309 1209 -309 1184 -309 c 2,89,-1
 773 -309 l 2,90,91
 744 -309 744 -309 714 -320.5 c 128,-1,92
 684 -332 684 -332 658 -354 c 2,93,-1
 369 -580 l 2,94,95
 348 -598 348 -598 324.5 -607.5 c 128,-1,96
 301 -617 301 -617 279 -617 c 2,97,-1
 238 -617 l 2,98,99
 187 -617 187 -617 151 -581 c 128,-1,100
 115 -545 115 -545 115 -494 c 2,101,-1
 115 -164 l 2,102,103
 115 -113 115 -113 151 -77 c 128,-1,104
 187 -41 187 -41 238 -41 c 2,105,-1
 1184 -41 l 2,106,107
 1209 -41 1209 -41 1227.5 -22.5 c 128,-1,108
 1246 -4 1246 -4 1246 21 c 2,109,-1
 1246 637 l 2,110,111
 1246 670 1246 670 1227.5 694.5 c 128,-1,112
 1209 719 1209 719 1184 719 c 2,113,-1
 895 719 l 2,114,115
 852 719 852 719 822.5 682.5 c 128,-1,116
 793 646 793 646 793 596 c 2,117,-1
 793 82 l 1,118,-1
 732 82 l 1,119,-1
 732 596 l 2,120,121
 732 646 732 646 696 682.5 c 128,-1,122
 660 719 660 719 607 719 c 2,123,-1
 238 719 l 2,124,125
 213 719 213 719 194.5 701.5 c 128,-1,126
 176 684 176 684 176 658 c 2,127,-1
 176 576 l 1,128,-1
 402 576 l 2,129,130
 463 576 463 576 505 534 c 128,-1,131
 547 492 547 492 547 432 c 2,132,-1
 547 227 l 2,133,134
 547 166 547 166 505 124 c 128,-1,135
 463 82 463 82 402 82 c 2,136,-1
 238 82 l 2,137,138
 187 82 187 82 151 118 c 128,-1,139
 115 154 115 154 115 205 c 2,0,-1
176 205 m 2,140,141
 176 180 176 180 194.5 162.5 c 128,-1,142
 213 145 213 145 238 145 c 2,143,-1
 402 145 l 2,144,145
 436 145 436 145 460 169 c 128,-1,146
 484 193 484 193 484 227 c 2,147,-1
 484 432 l 2,148,149
 484 465 484 465 460 489.5 c 128,-1,150
 436 514 436 514 402 514 c 2,151,-1
 176 514 l 1,152,-1
 176 205 l 2,140,141
1348 1180 m 1,153,-1
 1348 975 l 2,154,155
 1348 949 1348 949 1366.5 930.5 c 128,-1,156
 1385 912 1385 912 1410 912 c 2,157,-1
 1514 912 l 2,158,159
 1539 912 1539 912 1556.5 930.5 c 128,-1,160
 1574 949 1574 949 1574 975 c 2,161,-1
 1574 1119 l 2,162,163
 1574 1145 1574 1145 1556.5 1162.5 c 128,-1,164
 1539 1180 1539 1180 1514 1180 c 2,165,-1
 1348 1180 l 1,153,-1
EndSplineSet
Ligature2: "'abvs' Above Base Substitutions lookup 6 subtable" tm_ja tm_iikaar
EndChar

